<svg width="197" height="450" viewBox="0 0 197 450" fill="none" xmlns="http://www.w3.org/2000/svg" class="drawing">
<g clip-path="url(#clip0_11530_171)">
<path d="M88.3926 49.6145C90.0631 50.2804 92.0678 50.7799 93.5712 51.7789C96.7452 54.1097 99.084 57.2731 100.253 61.1024C100.587 61.9349 100.253 62.9338 100.253 64.2657C101.757 65.2647 103.761 66.2636 105.766 67.5956C110.277 66.2636 114.954 65.0982 119.631 63.5998C122.973 62.6008 123.474 61.6019 122.973 57.6061C121.469 57.6061 120.133 57.9391 118.629 57.7726C115.622 57.2731 113.618 55.2752 112.949 52.1118C112.448 49.2815 111.78 46.6176 108.773 45.1192C107.27 44.2867 106.935 42.7883 108.439 41.2899C110.277 39.4585 110.945 37.4606 110.277 34.7967C108.94 29.136 109.608 23.6418 111.279 18.1476C114.453 7.49212 121.803 1.9979 133.163 2.16439C136.671 2.16439 140.346 2.16439 143.52 3.49632C147.529 5.16124 151.204 7.8251 153.877 11.8209C159.223 19.646 157.051 27.8041 155.882 35.9622C154.88 43.2878 155.381 50.4469 157.887 57.2731C159.39 61.7684 163.399 64.4322 167.409 66.9296C171.418 69.5935 175.928 71.5914 179.269 74.9212C187.956 83.5787 193.636 94.0677 195.306 106.388C197.144 120.207 197.812 134.192 195.64 148.011C193.97 158.333 190.128 168.323 187.288 178.479C186.118 182.641 183.947 186.637 183.279 190.799C182.777 193.963 183.78 197.459 184.281 200.789C185.617 209.613 187.789 218.437 188.457 227.261C189.961 243.078 190.629 258.728 191.798 274.545C191.798 275.377 191.798 276.209 191.965 276.875C192.132 302.682 192.132 328.654 192.299 354.46C192.299 366.281 192.634 378.269 192.634 390.09C192.634 393.586 192.299 397.082 191.631 400.579C191.297 402.244 189.961 403.742 188.791 405.24C188.123 406.239 187.455 407.405 186.954 408.404C186.787 408.903 186.787 409.403 186.787 409.902C186.954 418.06 188.457 426.218 185.617 434.043C184.949 435.875 183.78 437.54 182.443 438.872C178.935 442.535 176.095 447.196 170.917 449.361C166.74 451.026 163.065 450.526 159.39 448.528C156.383 446.863 155.715 440.87 158.054 437.873C161.562 433.544 165.237 429.382 168.745 425.053C169.413 424.22 170.081 423.055 170.416 421.89C171.418 419.725 172.42 417.727 172.921 415.563C173.255 413.565 173.422 411.068 172.587 409.236C171.585 406.905 169.246 405.074 168.077 402.743C166.573 399.58 165.738 396.083 164.903 392.754C160.392 376.271 155.715 359.955 151.204 343.472C149.033 335.647 147.362 327.822 145.358 319.164C144.522 325.158 143.854 330.486 143.019 335.647C142.017 342.64 140.847 349.632 137.506 355.959C137.005 356.791 137.172 358.123 137.172 359.289C136.838 364.117 135 368.446 131.325 371.609C130.156 372.608 129.153 373.607 128.151 374.606C126.147 376.437 123.975 376.271 122.137 374.439C121.469 370.444 123.975 367.613 125.478 364.45C126.481 362.286 127.149 359.788 127.817 357.457C127.984 357.124 127.984 356.791 127.817 356.458C124.476 352.463 124.643 347.468 123.975 342.806C122.973 336.479 121.97 329.986 121.469 323.66C120.968 316.334 120.467 308.842 120.634 301.516C120.968 280.205 121.636 258.894 122.304 237.583C122.471 233.088 123.808 228.759 123.808 224.431C123.808 219.935 122.805 215.44 122.304 210.945C121.803 206.949 121.135 202.953 120.634 198.957C120.133 194.962 119.13 191.465 115.956 188.468C114.787 187.303 114.453 185.305 113.618 183.807C111.446 184.972 111.112 186.97 111.112 189.467C111.112 190.799 110.444 192.298 110.109 193.63C109.942 194.296 109.775 195.128 109.942 195.794C113.116 210.279 114.453 224.93 114.954 239.748C115.121 248.905 114.62 258.062 115.121 267.219C115.622 277.208 116.625 287.364 117.46 297.354C118.128 304.846 118.796 312.338 119.297 319.83C119.966 328.155 120.3 336.479 120.801 344.97C120.968 348.134 120.3 350.964 118.128 353.462C117.293 354.46 117.627 356.125 117.293 357.624C117.126 359.122 117.293 360.787 116.625 362.119C114.954 365.116 113.116 367.946 111.112 370.777C110.611 371.609 109.441 372.275 108.439 372.275C106.935 372.275 104.43 372.109 104.096 371.443C103.594 369.944 103.929 367.946 104.597 366.281C105.432 363.95 107.27 361.953 107.938 359.622C108.439 358.123 108.105 355.459 107.103 354.793C104.43 353.129 103.427 350.631 102.592 347.967C100.086 339.476 97.9146 330.985 95.2418 322.494C90.3972 307.177 85.0515 291.86 80.5411 276.376C78.5365 269.716 78.0353 262.557 76.6989 255.565C75.3625 248.239 74.1931 240.913 72.8567 233.588C72.5226 236.418 72.3555 239.082 71.8544 241.912C70.1839 251.569 68.5133 261.225 66.3416 270.882C63.6688 282.37 62.3324 294.024 60.996 305.845C59.8266 317.499 57.3208 328.987 54.4809 340.475C50.6387 355.792 45.6271 370.777 41.4508 386.094C40.1144 390.922 39.6132 396.083 38.2768 401.078C37.7756 403.076 36.4392 405.074 35.1028 406.572C31.4276 410.402 27.4183 413.898 23.4091 417.394C18.8987 421.057 13.72 423.221 7.70613 422.223C6.20265 422.056 4.03095 420.225 3.69685 418.893C3.36274 417.394 4.19801 415.063 5.36738 413.898C8.70843 410.235 12.3836 406.905 16.2258 403.575C18.3975 401.744 19.2328 399.58 19.3998 396.749C20.068 386.76 20.7362 376.937 21.4045 366.947C22.2397 354.793 23.242 342.64 24.0773 330.319C24.5784 321.162 24.7455 312.005 25.0796 302.848C25.5808 287.198 27.0842 271.548 29.59 256.064C31.9288 241.746 33.7663 227.094 35.771 212.776C36.4392 207.781 37.4415 202.787 38.1097 197.792C38.2768 196.627 37.9427 195.295 37.9427 193.963C37.9427 192.298 37.9427 190.466 37.9427 188.635C35.2698 186.637 32.597 184.306 31.9288 180.643C31.2606 177.313 30.7594 173.817 29.59 170.487C28.0866 191.132 26.416 211.944 24.9125 233.588C27.5854 238.083 27.0842 243.744 25.5808 250.237C24.0773 249.238 23.242 248.572 22.0727 247.739C22.4068 249.737 22.5738 251.402 22.7409 252.901C22.9079 254.066 23.5761 255.398 23.5761 256.563C23.5761 257.895 23.075 259.227 22.9079 260.559C21.7385 260.06 20.4021 259.56 19.2328 258.728C18.7316 258.395 18.2304 257.562 18.0634 256.896C15.7247 250.07 12.5506 243.244 14.5553 235.752C14.8894 234.753 14.8894 233.588 15.0564 232.589C14.3882 232.089 13.3859 231.59 13.2189 231.09C11.7154 226.595 9.8778 222.266 9.54369 217.438C9.04254 205.784 8.20728 194.296 7.53907 182.641C7.20496 177.813 7.03792 172.985 6.87087 168.156C6.87087 167.823 6.70381 167.49 6.53675 166.991C3.1957 167.99 3.02864 165.659 2.69453 163.328C2.52748 162.163 2.36043 160.997 1.85927 159.832C-1.14768 153.172 0.355802 146.18 0.522855 139.187C0.689908 132.694 2.52748 126.534 4.19801 120.54C5.20033 116.877 6.87087 113.381 8.54139 110.051C12.7177 101.726 16.5599 93.2353 18.0634 84.0782C18.8987 78.917 20.068 73.7558 23.5761 69.76C25.4137 67.5956 28.0866 65.9306 30.5924 64.9317C36.7733 62.4343 43.1213 60.2699 49.4693 57.9391C49.8034 57.7726 50.3046 57.4396 50.4716 57.1066C53.3115 53.9433 55.9844 50.7799 59.3254 46.9506C58.1561 44.6197 56.4855 41.4564 54.982 38.2931C54.3138 36.9611 53.9797 35.2962 53.8127 33.7978C53.6456 32.6323 53.4786 31.3004 53.6456 29.9685C53.8127 28.9695 54.3138 27.9706 54.815 26.3057C54.648 26.1392 53.6456 25.4732 52.9774 24.8072C49.1352 21.3109 48.634 17.1486 50.9728 12.4869C53.3115 7.65861 57.3208 4.82825 62.1653 3.16334C66.1746 1.66491 70.518 0 74.6943 0C81.8775 0.166492 89.2279 1.16544 93.9053 7.8251C96.5782 11.4879 98.7499 15.1507 98.9169 19.646C99.084 24.4743 97.9146 26.3057 93.0701 27.8041C93.0701 28.3036 92.903 28.9695 92.903 29.6355C93.5713 29.6355 94.2395 29.6355 95.2418 29.6355C95.2418 30.4679 95.4088 31.3004 95.2418 32.1329C94.4065 34.9632 93.5712 37.9601 92.5689 40.7904C92.0678 41.9559 90.8984 42.6218 90.0631 43.6208C89.562 44.2867 89.2279 44.9527 88.8938 45.6187C89.2279 47.4501 88.8938 48.6155 88.3926 49.6145C87.8914 50.4469 86.7221 51.4459 86.8891 52.2783C87.2232 54.9422 87.8914 57.4396 88.8938 59.937C89.8961 62.1013 91.3996 63.9327 92.903 66.0971C94.9077 64.9317 97.0794 63.7663 99.4181 62.4343C97.9146 57.4396 94.7406 53.7768 90.5643 51.1129C89.562 50.6134 89.0608 50.1139 88.3926 49.6145ZM108.105 364.783C108.272 364.783 108.272 364.783 108.105 364.783C108.272 364.616 108.105 364.783 108.105 364.783ZM55.9844 30.6344C55.9844 30.3015 55.9844 30.135 55.9844 30.6344C55.8173 30.135 55.8173 30.3015 55.9844 30.6344C56.3185 33.7978 54.6479 37.7936 58.8243 39.625C59.9936 42.9548 60.6618 46.2846 62.1653 49.2815C65.5064 55.7747 68.1792 57.9391 76.5319 57.1066C80.8752 56.6071 84.0492 53.7768 86.388 50.2804C88.0585 47.7831 89.0608 44.7862 90.3973 41.7894C90.7314 42.1224 91.0654 42.4553 91.7337 42.9548C92.736 39.4585 93.7383 36.1287 94.5736 32.6323C94.7406 32.4658 94.7406 32.2994 94.5736 32.6323C94.7406 32.2994 94.5736 32.4658 94.5736 32.6323C94.0724 33.2983 93.5712 33.7978 92.736 34.7967C92.736 31.9664 92.5689 29.9685 92.736 27.9706C93.0701 24.6407 92.2348 23.1423 89.0608 21.9769C87.2232 21.3109 85.3857 20.8114 83.7151 19.979C77.2001 17.3151 70.518 17.3151 64.0029 19.4795C58.9913 20.9779 57.6549 22.9758 57.822 28.1371C57.822 29.9685 57.989 31.6334 58.1561 33.4648C57.989 33.4648 57.822 33.4648 57.6549 33.4648C56.9867 32.6323 56.4855 31.6334 55.9844 30.6344ZM40.7826 197.126C40.2814 199.29 39.6132 202.121 39.2791 204.951C37.4415 218.603 35.938 232.422 33.7663 246.074C30.5923 266.386 27.9195 286.532 27.4183 307.177C27.0842 324.159 25.5808 341.141 24.4114 358.123C23.5761 371.443 22.5738 384.928 21.7386 398.248C21.7386 398.914 22.4068 400.079 22.7409 400.079C25.2467 399.913 27.7525 399.913 30.0912 399.247C30.7594 399.08 31.0935 397.082 31.2606 395.75C34.6016 381.932 37.9427 368.113 41.1167 354.294C43.2884 344.97 45.4601 335.647 47.2976 326.323C49.4693 314.503 50.8057 302.515 53.4786 290.861C56.8196 276.376 61.3301 262.224 64.6711 247.739C67.6781 235.253 69.8497 222.599 68.8474 209.613C68.5133 206.117 68.8474 202.454 68.8474 199.29C59.3254 198.458 50.1375 197.792 40.7826 197.126ZM75.3625 198.624C74.8613 203.786 74.5272 208.947 74.0261 213.942C73.859 216.106 73.0237 218.437 73.3578 220.601C75.0284 231.923 76.866 243.244 78.8706 254.566C80.207 262.058 80.8752 269.716 83.0469 276.875C88.5597 295.023 94.5736 313.004 100.42 331.152C102.091 336.479 103.929 341.974 104.931 347.468C106.1 353.462 111.112 356.125 116.457 352.629C114.62 341.474 112.615 330.319 110.945 319.164C109.608 310.507 108.606 301.849 107.938 293.025C106.601 276.542 105.599 259.893 104.263 243.244C103.26 230.258 101.757 217.271 100.587 204.285C100.42 201.954 100.253 199.623 100.086 197.292C91.9007 197.792 83.7151 198.125 75.3625 198.624ZM122.304 197.292C123.641 197.625 124.81 198.125 125.812 198.291C133.163 198.791 140.513 199.124 148.03 199.457C158.054 199.79 167.743 197.292 177.265 194.795C179.938 194.129 181.274 192.797 181.775 190.133C182.276 187.802 183.112 185.638 183.78 183.474C186.954 173.484 190.462 163.661 193.135 153.505C196.309 141.684 194.805 129.364 194.638 117.377C194.638 117.21 194.471 117.044 194.304 116.711C192.466 119.041 190.629 121.372 188.791 123.703C188.457 124.203 188.123 124.869 188.123 125.535C187.121 134.026 184.782 142.017 179.938 149.176C177.098 153.505 174.759 158.333 169.914 160.831C167.242 162.163 164.402 162.662 161.395 163.328C156.216 164.66 151.037 163.828 146.193 161.83C139.177 158.999 134.666 153.172 129.822 147.844C125.645 143.349 121.97 138.521 117.46 133.36C117.46 141.518 117.794 149.01 117.46 156.502C117.126 164.327 115.956 172.152 115.455 180.144C115.288 182.808 115.622 186.138 117.126 188.135C119.631 190.633 121.803 193.463 122.304 197.292ZM91.9007 74.7547C91.5666 74.7547 91.3996 74.9212 91.0655 74.9212C91.0655 75.7536 90.8984 76.4196 91.0655 77.2521C91.9007 81.2479 92.4019 85.4102 93.5712 89.4059C94.0724 91.4038 94.9077 93.7347 96.4111 95.0667C100.253 98.563 102.425 102.892 104.597 107.387C109.274 117.377 114.453 127.2 121.803 135.691C127.817 142.517 133.831 149.176 140.012 155.836C141.515 157.334 143.353 158.666 145.358 159.665C152.875 163.495 160.726 162.329 168.578 160.331C169.246 160.165 169.914 159.998 170.416 159.499C172.921 156.502 175.761 153.505 177.933 150.342C182.61 143.516 185.617 136.19 186.787 128.032C187.455 123.204 187.789 123.37 183.78 120.706C183.613 120.706 183.613 120.54 183.446 120.54C175.26 116.544 166.573 114.879 157.385 116.544C156.216 116.711 154.378 117.543 154.211 118.209C153.376 121.705 152.708 125.368 152.875 128.864C153.042 131.029 154.88 133.193 156.049 135.191C157.051 136.856 157.887 138.687 158.889 140.685C158.054 140.685 157.887 140.685 157.887 140.685C157.72 140.519 157.385 140.186 157.218 140.019C154.211 136.024 151.037 132.194 148.03 128.198C145.859 125.535 144.188 122.538 141.682 120.373C133.497 113.547 124.977 107.054 116.625 100.561C113.618 98.23 110.277 96.2321 112.448 91.4039C112.615 91.0709 112.448 90.7379 112.448 90.4049C112.114 86.4091 111.78 82.4133 111.279 78.584C110.778 74.4217 109.608 70.7589 104.764 69.76C104.597 70.5924 104.43 71.4249 104.263 72.2573C103.929 72.4238 103.761 72.5903 103.427 72.5903C101.59 70.0929 99.7522 67.7621 97.9146 65.2647C97.2464 65.9306 96.5782 66.4301 96.2441 66.5966C97.0794 70.4259 97.7476 73.9222 98.5828 77.5851C98.2487 77.5851 98.0817 77.7515 97.7476 77.7515C96.9123 76.0866 96.077 74.5882 95.0747 72.9233C94.2394 71.4249 94.7406 69.094 91.5666 68.9275C93.2371 74.2552 94.9077 79.583 96.4111 84.9107C96.077 85.0772 95.7429 85.0772 95.4088 85.2437C94.4065 81.4144 93.2371 78.0845 91.9007 74.7547ZM150.369 128.531C150.703 128.365 151.204 128.365 151.539 128.198C151.539 122.538 151.539 116.877 151.539 111.216C151.539 109.052 150.87 106.888 150.87 104.723C150.87 97.0646 150.87 89.406 151.204 81.7473C151.204 80.5819 152.04 79.25 152.541 78.0845C152.875 78.251 153.209 78.251 153.543 78.4175C150.87 90.9044 152.04 103.391 153.71 115.712C166.239 113.048 178.1 114.213 188.624 121.705C189.292 121.039 189.961 120.54 190.462 119.874C192.801 116.211 195.975 112.881 194.304 107.887C192.634 102.559 191.297 96.8981 188.958 91.9033C185.617 84.9107 181.608 78.0845 174.759 73.7557C169.914 70.5924 164.903 67.4291 159.891 64.2657C159.056 65.4312 158.054 67.2626 156.717 68.095C149.534 72.4238 141.849 75.0877 133.664 76.0866C129.822 76.5861 125.812 76.7526 123.14 73.4228C121.469 71.4249 120.467 68.9275 118.796 65.9306C115.622 66.7631 111.947 67.5956 108.439 68.428C109.942 70.5924 111.613 72.0908 112.114 74.0887C112.949 77.7515 113.116 81.4144 113.451 85.0772C113.618 87.5745 113.952 90.0719 113.451 92.4028C113.116 94.2342 113.283 95.7326 114.62 96.8981C117.961 99.7284 121.302 102.725 124.977 105.223C132.829 110.717 140.847 115.878 146.527 123.87C147.696 125.535 149.033 127.033 150.369 128.531ZM134.165 13.3193C127.984 17.6481 121.135 18.1476 113.618 15.8167C112.782 19.1465 112.114 22.3099 111.112 26.3057C115.622 23.3088 119.464 24.1413 123.307 25.9727C119.799 28.4701 114.787 27.1381 111.112 30.135C111.613 34.7967 113.952 39.958 109.107 43.6208C111.112 45.4522 112.615 46.7841 114.62 48.6155C115.455 48.449 117.126 48.1161 118.796 47.7831C118.796 48.1161 118.963 48.6155 118.963 48.6155C117.46 49.448 115.956 50.1139 114.453 50.9464C114.954 54.2762 116.29 56.7736 120.133 56.7736C121.469 56.7736 122.805 56.4406 124.142 56.2741C127.149 55.6082 130.323 54.9422 133.33 54.2762C131.325 57.2731 127.984 56.4406 125.311 57.4396C124.81 59.7705 124.309 62.1013 123.975 64.2657C123.307 68.095 126.147 71.7579 130.156 71.9243C136.671 72.0908 142.351 69.76 148.03 66.9296C151.372 65.2647 154.545 62.9338 157.719 60.9359C154.378 54.2762 154.378 47.6166 154.378 41.2899C154.378 36.4616 155.214 31.4669 155.882 26.6386C156.884 20.312 155.214 14.8177 150.703 10.6555C143.52 3.8293 134.833 2.66387 125.311 5.16124C126.314 5.66071 126.982 5.99369 127.65 6.49317C127.65 6.82615 127.483 6.99264 127.483 7.32563C126.147 6.99264 124.81 6.82615 123.14 6.49317C121.469 7.8251 119.297 9.32353 116.959 11.1549C118.963 11.6544 120.467 11.9874 121.803 12.4869C121.803 12.8198 121.636 13.1528 121.636 13.3193C119.799 13.1528 117.961 12.8198 115.956 12.6534C115.622 13.1528 115.288 13.8188 114.62 14.6513C121.302 16.8156 127.65 15.4837 134.165 13.3193ZM71.1862 219.436C71.0191 219.436 70.8521 219.602 70.685 219.602C69.8498 225.929 69.1815 232.422 67.8451 238.749C65.5064 250.403 62.6665 261.891 59.8266 273.546C58.1561 280.205 55.6503 286.698 54.3138 293.358C51.9751 305.012 50.8057 316.833 48.2999 328.488C43.9566 348.8 39.1121 368.945 34.4346 389.091C33.7664 392.254 32.9311 395.417 32.0958 398.914C35.2698 398.081 37.7756 397.082 38.4438 394.085C38.7779 392.587 38.7779 391.089 39.112 389.59C42.7872 377.27 46.7965 365.116 49.9705 352.629C53.4786 338.977 56.4855 325.324 59.1584 311.506C60.4948 304.347 60.1607 297.021 61.3301 289.862C63.3347 278.707 66.3416 267.718 68.1792 256.563C69.8498 246.574 70.685 236.251 71.6873 226.096C72.5226 223.765 71.6873 221.6 71.1862 219.436ZM117.794 352.296C118.462 351.131 118.796 350.631 118.963 350.132C119.297 347.301 119.631 344.471 119.464 341.641C119.297 336.146 118.963 330.819 118.462 325.324C117.627 315.501 116.959 305.512 115.956 295.689C115.455 290.195 114.286 284.534 114.119 279.04C113.451 260.559 113.283 242.245 112.782 223.765C112.615 218.936 111.78 214.108 111.112 208.947C108.606 213.442 106.434 217.438 104.263 221.6C104.096 221.933 104.096 222.433 104.096 222.932C104.597 228.093 105.098 233.421 105.432 238.582C106.601 252.235 107.771 266.053 108.773 279.706C109.274 286.365 108.94 293.025 109.775 299.685C111.446 313.004 113.618 326.157 115.455 339.31C116.29 343.472 116.959 347.468 117.794 352.296ZM165.07 198.957C165.237 200.789 165.404 202.287 165.738 203.952C167.743 215.274 169.413 226.761 169.58 238.416C169.58 244.743 170.248 251.236 170.917 257.562C171.919 268.551 173.757 279.373 174.258 290.361C175.093 307.177 175.26 323.826 175.427 340.642C175.594 349.133 175.427 357.457 175.594 365.948C175.761 374.939 176.095 383.763 176.262 392.587C176.429 397.082 176.262 401.411 176.262 406.073C177.599 406.073 178.267 406.073 178.935 406.073C178.601 398.914 178.1 391.921 178.1 384.928C177.933 371.443 178.267 357.957 178.1 344.471C177.933 332.317 177.098 320.33 176.931 308.176C176.764 287.364 175.928 266.719 172.587 246.241C170.583 233.588 169.747 220.768 168.411 208.114C168.077 205.118 167.743 202.287 167.242 199.29C166.406 198.791 165.905 198.791 165.07 198.957ZM169.58 198.125C169.246 198.291 169.079 198.458 168.745 198.624C169.079 202.287 169.413 205.784 169.914 209.446C170.75 215.773 171.585 222.266 172.42 228.593C173.255 235.919 174.091 243.411 174.926 250.736C175.761 257.396 176.931 263.889 177.265 270.549C178.1 285.2 178.601 299.851 178.935 314.669C179.269 326.989 179.269 339.31 179.436 351.464C179.436 356.125 179.77 360.621 179.77 365.282C179.77 373.108 179.436 380.933 179.603 388.758C179.77 394.418 180.439 399.913 180.773 405.906C181.608 405.573 182.109 405.407 182.443 405.407C182.276 402.577 181.775 400.079 181.775 397.415C181.775 381.599 181.942 365.782 181.608 349.965C181.107 328.321 180.439 306.677 179.603 285.2C179.102 273.046 178.434 260.726 177.098 248.572C175.26 232.256 172.921 216.106 170.583 199.79C170.75 199.124 170.081 198.624 169.58 198.125ZM74.8613 189.8C75.1954 179.811 75.6966 170.321 75.8636 160.664C76.1977 146.18 76.3648 131.861 76.5319 117.377C76.5319 107.554 76.3648 97.564 76.5319 87.741C76.5319 85.4102 77.5342 82.9128 78.7036 80.9149C81.5435 76.0866 86.555 73.9222 91.0655 71.2584C90.8984 70.7589 90.7313 70.0929 90.5643 69.2605C84.8845 73.4228 77.5342 75.4207 74.5272 83.0793C73.0238 80.9149 71.8544 79.4165 70.8521 77.918C68.5133 74.9212 68.3463 74.7547 66.5087 75.4207C67.8451 77.5851 69.5156 79.7494 70.685 82.0803C73.3579 87.4081 73.3579 93.4017 73.5249 99.229C73.692 107.887 74.0261 116.544 74.0261 125.202C73.859 140.852 73.3579 156.502 73.1908 172.152C73.0238 177.979 73.1908 183.973 73.1908 189.967C74.0261 189.8 74.6943 189.8 74.8613 189.8ZM185.45 421.557C184.114 423.388 182.944 424.553 182.109 425.885C179.603 429.715 177.432 433.544 173.422 436.041C169.246 438.872 166.072 438.539 162.564 435.042C161.562 436.374 160.392 437.706 159.39 439.205C156.884 443.034 159.056 447.363 163.733 447.862C167.576 448.195 170.917 447.196 173.757 444.865C175.928 443.034 178.1 441.036 180.105 439.038C185.116 434.376 186.118 428.549 185.45 421.557ZM88.3926 62.7673C87.0562 59.271 86.0539 56.4406 85.0515 53.7768C81.7105 56.1076 78.5365 58.938 73.859 58.4385C69.5156 58.1055 65.6734 56.9401 62.8335 52.4448C62.1653 55.4417 61.6642 57.6061 61.3301 59.937C60.8289 62.7673 62.8335 65.4312 65.6734 66.4301C70.518 67.9285 75.3625 68.428 80.207 67.0961C83.381 66.2636 86.8891 65.5977 88.3926 62.7673ZM9.8778 184.473C10.2119 184.473 10.379 184.473 10.7131 184.639C11.0472 183.474 11.3813 182.475 11.5483 181.309C13.553 171.653 15.5576 161.996 17.7293 152.34C19.0657 146.346 21.0703 140.519 22.2397 134.525C23.9102 126.367 24.9126 118.209 26.416 110.217C27.0842 105.889 27.9195 101.56 28.7548 97.3975C29.2559 94.0677 30.2583 90.5714 30.2583 87.2416C30.2583 80.2489 33.0981 75.7536 39.7803 73.5893C43.9566 72.2573 48.1329 70.9254 52.3092 69.5935C52.3092 69.2605 52.3092 68.5945 52.3092 67.7621C48.6341 68.9275 45.293 70.0929 41.7849 70.9254C34.2675 72.5903 29.9241 76.9191 28.7548 84.7442C26.5831 98.896 24.4114 113.048 21.7386 127.2C20.4021 134.359 17.8963 141.185 16.2258 148.177C14.3882 156.502 13.0518 164.827 11.5483 173.151C10.8801 176.648 10.379 180.643 9.8778 184.473ZM9.20959 172.485H9.37666C12.0495 161.663 14.7223 151.008 17.0611 140.186C19.0657 131.861 20.7362 123.37 22.4068 114.879C23.242 110.384 23.5761 105.722 24.4114 101.227C25.2467 96.0656 26.249 90.9044 26.9172 85.7431C27.9195 77.5851 30.4253 73.0898 37.7756 70.7589C42.4531 69.2605 47.1306 67.7621 51.641 66.4301C50.9728 65.7642 50.1375 65.2647 49.6364 65.4312C44.1236 66.9296 38.6109 68.5945 33.2652 70.2594C29.2559 71.5914 27.4184 75.0877 26.416 78.7505C25.4137 83.0793 24.5785 87.5746 23.9102 92.0698C22.2397 102.392 21.2374 112.881 19.2328 123.204C16.727 135.358 13.3859 147.511 10.7131 159.665C9.71074 163.828 9.71075 168.156 9.20959 172.485ZM37.6086 398.414C29.0889 402.077 24.9126 411.401 16.3929 414.897C14.5553 414.397 12.3836 414.064 10.0449 413.398C9.37665 413.898 8.37433 414.397 7.87317 415.063C7.0379 416.229 6.0356 417.727 6.3697 418.726C6.53675 419.559 8.37433 420.724 9.54369 420.724C15.0564 421.39 19.7339 419.392 23.7432 416.062C27.2513 413.232 30.2582 409.902 33.4322 406.739C35.6039 404.741 38.1097 402.41 37.6086 398.414ZM61.6642 49.9475C57.4878 51.4459 56.4855 52.4448 55.6503 55.9412C55.3162 57.4396 54.815 58.938 54.6479 60.4364C53.8127 66.9296 53.3115 73.4228 55.3162 80.2489C58.8243 77.918 62.1653 75.7536 66.0075 73.2563C65.8405 73.9222 66.0075 73.7557 65.8405 73.7557C65.6734 73.5893 65.5064 73.4228 65.5064 73.2563C59.9936 68.2615 58.8243 62.2678 61.163 55.2752C61.4971 53.6103 61.4971 51.9454 61.6642 49.9475ZM17.7293 232.755C15.8917 243.91 18.3975 256.73 23.242 259.394C22.9079 253.9 20.5692 248.572 22.5738 243.078C23.4091 244.743 24.4114 246.407 25.2467 247.906C25.5808 242.578 26.9172 237.25 23.242 232.755C21.5715 232.755 19.7339 232.755 17.7293 232.755ZM3.36275 136.19C2.69454 144.681 1.02401 153.006 4.69917 160.831C5.20033 161.83 5.86854 162.662 6.3697 163.495C6.70381 163.328 7.0379 163.328 7.372 163.162C6.87085 156.835 6.3697 150.508 5.86854 144.182C6.20264 144.182 6.53676 144.182 6.87087 144.182C7.20497 146.18 7.53906 148.177 7.87317 150.342C8.70843 150.175 9.54369 149.842 10.379 149.676C11.3813 145.514 10.8801 141.518 9.8778 137.522C9.71074 136.856 8.54138 135.857 7.87317 135.857C6.53675 135.691 4.86622 136.024 3.36275 136.19ZM108.272 195.461C106.267 195.961 103.929 196.46 101.59 197.126C102.258 204.452 103.093 211.611 103.761 219.436C108.272 211.611 112.615 204.452 108.272 195.461ZM9.20959 133.693C11.2142 124.036 13.2189 114.38 15.2235 104.224C8.20729 113.547 5.36738 123.87 3.36275 134.858C5.36738 134.525 7.03791 134.192 9.20959 133.693ZM172.754 427.217C174.592 426.218 176.429 424.72 178.434 424.387C181.608 424.054 183.279 422.389 184.448 419.892C184.782 419.059 185.283 417.727 185.116 417.561C183.613 416.229 181.942 414.564 180.105 414.397C178.1 414.231 175.427 414.73 174.258 417.228C172.42 420.391 171.919 423.887 172.754 427.217ZM122.137 64.9317C121.97 64.7652 121.803 64.7652 121.636 64.5987C121.469 65.2647 120.968 65.9306 121.135 66.5966C122.137 72.0908 126.147 75.0877 131.826 74.7547C138.675 74.2552 144.856 71.7578 151.037 69.2605C154.044 67.9285 156.884 66.2636 158.388 63.2668C158.555 62.9338 158.555 62.2678 158.722 61.9349C155.381 63.9327 152.374 66.2636 149.033 67.5956C143.687 69.7599 138.174 71.7579 132.495 73.0898C128.819 74.0887 124.643 72.4238 123.307 69.094C122.638 67.7621 122.471 66.2636 122.137 64.9317ZM92.736 22.8093C94.5736 21.1444 95.0747 18.1476 93.7383 15.9832C91.2325 11.9874 87.5574 9.823 82.8799 8.99054C74.5272 7.32563 66.6758 7.99159 59.4925 12.9863C58.3231 13.8188 57.4879 15.6502 56.9867 17.1486C56.4855 18.98 57.4879 20.1455 58.9913 20.4785C57.3208 17.1486 57.4878 15.6502 60.8289 13.4858C68.1792 8.82405 75.8637 8.32458 84.0492 10.9884C91.0655 13.3193 93.9053 15.9832 92.736 22.8093ZM133.497 356.292C133.998 356.458 134.332 356.458 134.833 356.625C135.167 356.125 135.669 355.459 135.669 354.96C135.836 352.13 136.003 349.466 136.17 346.635C136.337 342.806 136.003 338.977 136.504 335.314C137.673 326.823 139.177 318.332 140.346 309.674C140.847 305.512 142.852 301.35 140.179 296.688C137.84 316.833 135.669 336.479 133.497 356.292ZM70.1839 198.624C70.685 205.284 69.8497 211.777 71.6873 217.937C71.8544 217.937 72.1885 217.937 72.3555 217.937C72.8567 211.444 73.3579 205.118 73.859 198.458C72.3555 198.458 71.5203 198.458 70.1839 198.624ZM54.982 82.7463C54.815 82.5798 54.4809 82.5798 54.3138 82.4133C46.7965 89.9054 38.2768 96.2321 31.9288 104.89C32.2629 105.056 32.4299 104.89 32.597 104.89C39.7803 98.23 46.9635 91.4039 53.9797 84.7442C54.648 84.0782 54.815 83.2458 54.982 82.7463ZM105.265 371.443C107.27 370.943 109.107 370.943 110.109 370.111C113.785 367.114 115.622 363.118 116.625 358.123C115.288 358.456 114.286 358.789 113.451 358.956C113.116 360.621 112.949 362.286 112.782 363.451C112.114 364.616 111.78 365.449 111.279 366.281C110.778 366.115 110.277 365.782 109.274 365.449C109.775 366.448 110.109 367.114 110.444 367.78C110.277 367.946 110.109 368.113 110.109 368.279C109.274 367.78 108.439 367.114 107.437 366.448C106.601 367.946 106.1 369.112 105.265 371.443ZM125.311 368.945C124.977 369.778 124.309 370.444 124.309 371.11C124.142 371.776 124.142 372.941 124.476 373.274C124.977 373.773 126.147 373.94 126.815 373.607C130.49 372.442 135.501 365.449 135.669 361.62C131.659 368.612 128.819 370.777 125.311 368.945ZM185.283 415.063C185.283 412.732 185.283 411.068 185.283 409.736C181.942 410.235 178.601 410.735 175.093 411.401C175.26 412.067 175.26 412.899 175.427 413.898C178.768 412.566 182.109 411.9 185.283 415.063ZM180.773 425.552C177.098 425.386 175.093 427.384 173.088 429.548C174.258 430.381 175.26 431.047 176.429 431.879C177.766 429.881 179.102 427.883 180.773 425.552ZM24.7455 230.924C24.5785 229.925 24.4114 229.092 24.2443 228.593C21.0703 228.926 18.0634 229.092 15.0564 229.259C15.5576 231.423 18.5646 231.923 24.7455 230.924ZM104.931 188.635C103.761 188.801 102.926 188.801 101.924 188.968C102.091 191.132 102.258 193.13 102.425 195.295C103.594 194.962 104.597 194.795 105.766 194.629C105.432 192.464 105.265 190.633 104.931 188.635ZM173.59 407.738C174.926 410.235 182.777 409.569 186.286 406.572C182.109 406.905 177.933 407.405 173.59 407.738ZM106.267 188.302C106.601 189.8 106.768 190.966 106.935 192.131C107.103 192.631 107.27 193.297 107.27 193.796C109.942 192.964 110.611 191.299 109.608 187.469C108.606 187.636 107.437 187.969 106.267 188.302ZM93.4042 196.127C93.2371 193.796 93.0701 191.798 93.0701 189.8C91.9007 189.967 91.2325 189.967 90.0631 190.133C90.3972 192.298 90.5643 194.296 90.8984 196.46C91.9007 196.46 92.5689 196.294 93.4042 196.127ZM98.9169 195.628C99.7522 195.461 100.253 195.461 100.755 195.295C100.755 193.13 100.755 191.132 100.755 188.968C99.5851 189.134 98.7499 189.134 97.5805 189.301C97.9146 191.465 98.4158 193.463 98.9169 195.628ZM86.2209 190.466C86.555 192.631 86.8891 194.462 87.2232 196.46C88.0585 196.46 88.7267 196.46 89.562 196.46C89.3949 194.296 89.0608 192.298 88.8938 189.967C87.7244 190.133 87.0562 190.3 86.2209 190.466ZM127.817 364.45C127.984 364.616 128.151 364.949 128.318 365.116C129.655 364.616 131.158 364.45 132.16 363.617C132.662 363.285 132.327 361.62 132.327 360.621C131.492 360.621 130.323 360.288 129.989 360.787C128.986 361.786 128.485 363.118 127.817 364.45ZM94.4065 189.467C94.5736 191.632 94.7406 193.63 94.9077 195.628C95.7429 195.628 96.4111 195.628 97.2464 195.628C96.9123 193.297 96.5782 191.299 96.077 188.968C95.5759 189.301 95.0747 189.467 94.4065 189.467ZM174.759 433.877C174.926 433.544 175.093 433.211 175.26 432.878C172.921 431.546 170.583 430.381 168.244 429.049C167.743 429.548 167.409 430.048 166.907 430.547C169.58 431.713 172.086 432.712 174.759 433.877ZM82.3787 196.46C82.0446 194.462 81.7105 192.797 81.3764 190.966C79.3718 190.966 79.2047 191.965 79.8729 196.46C80.7082 196.46 81.5434 196.46 82.3787 196.46ZM66.0075 191.465C66.1746 193.463 66.3416 195.128 66.5087 196.959C67.344 196.959 68.0122 196.959 68.6804 196.959C68.5133 194.962 68.3463 193.297 68.1792 191.465C67.511 191.299 66.8428 191.465 66.0075 191.465ZM48.467 191.132C48.467 192.964 48.467 194.629 48.467 196.294C49.1352 196.46 49.8034 196.46 50.6387 196.627C50.6387 194.629 50.6387 192.964 50.6387 191.299C49.8034 191.132 49.3023 191.132 48.467 191.132ZM58.8243 191.632C58.9913 193.463 59.1584 195.295 59.1584 197.126C59.9936 197.126 60.6618 197.126 61.3301 196.959C61.163 195.128 60.9959 193.297 60.8289 191.632C60.3277 191.632 59.6595 191.632 58.8243 191.632ZM110.109 355.792C110.444 356.458 110.611 356.958 110.778 357.624C113.116 357.291 115.455 357.624 117.126 354.96C114.453 355.293 112.448 355.626 110.109 355.792ZM54.1468 56.2741C51.1398 59.937 49.8034 63.4333 52.6433 64.5987C53.1445 61.9348 53.6456 59.1045 54.1468 56.2741ZM54.3138 196.793C54.3138 194.795 54.3138 193.13 54.3138 191.299C53.4786 191.299 52.8104 191.299 51.9751 191.299C52.1422 193.13 52.3092 194.795 52.4763 196.627C52.9774 196.627 53.4786 196.626 54.3138 196.793ZM83.8822 196.46C84.3833 196.46 84.8845 196.46 85.5527 196.46C85.2186 194.462 85.0515 192.464 84.7174 190.3C84.0492 190.466 83.381 190.466 82.7128 190.633C83.0469 192.631 83.381 194.462 83.8822 196.46ZM62.6665 191.465C61.9983 194.795 62.8335 196.793 64.6711 196.793C64.6711 194.962 64.6711 193.297 64.6711 191.465C64.0029 191.465 63.3347 191.465 62.6665 191.465ZM57.822 196.959C57.6549 195.128 57.6549 193.463 57.4878 191.632C56.8196 191.632 56.3185 191.632 55.8173 191.632C55.8173 193.463 55.8173 195.128 55.8173 196.959C56.4855 196.959 56.9867 196.959 57.822 196.959ZM70.3509 196.793C70.685 196.793 71.0191 196.959 71.5203 196.959C72.8567 195.461 71.6873 193.463 72.0214 191.465C71.1862 191.465 70.518 191.465 69.5157 191.465C69.8498 193.463 70.0168 195.128 70.3509 196.793ZM22.7409 403.742C24.5785 403.742 26.0819 403.742 27.7525 403.742C27.7525 403.409 27.7524 403.076 27.9195 402.743C26.0819 402.244 24.0773 401.744 21.9056 401.245C22.2397 402.41 22.4068 403.076 22.7409 403.742ZM73.3578 191.465C73.0237 195.295 73.3579 196.46 75.1954 196.294C75.1954 194.629 75.1954 192.964 75.1954 191.132C74.5272 191.299 74.0261 191.465 73.3578 191.465ZM90.5643 83.0793C88.7267 82.0803 87.0562 81.2479 85.3857 80.4154C85.2186 80.7484 85.0516 81.0814 84.8845 81.4144C86.7221 82.5798 88.5596 83.7452 90.8984 85.2437C90.7313 84.0782 90.5643 83.5788 90.5643 83.0793ZM78.2024 196.627C78.2024 194.629 78.2024 192.964 78.2024 190.966C76.5319 191.632 76.5319 191.632 76.6989 196.46C77.2001 196.46 77.7012 196.627 78.2024 196.627ZM46.4624 196.127C46.6294 195.961 46.7965 195.794 46.9635 195.628C46.9635 193.963 46.9635 192.464 46.9635 190.799C46.6294 190.799 46.2953 190.633 46.1283 190.633C45.9612 191.965 45.7941 193.297 45.7941 194.629C45.6271 195.128 46.1283 195.628 46.4624 196.127ZM43.1213 190.466C43.1213 192.131 41.6178 194.129 44.2907 195.794C43.7895 193.63 45.293 191.798 43.1213 190.466ZM169.914 436.041C167.743 435.209 166.072 434.543 164.235 433.877C165.237 436.707 166.573 437.207 169.914 436.041ZM165.404 431.879C165.404 432.212 165.237 432.378 165.237 432.711C167.743 433.544 170.081 434.376 172.587 435.209C172.587 435.042 172.754 434.709 172.754 434.543C170.248 433.71 167.743 432.711 165.404 431.879ZM126.147 367.613C126.314 367.946 126.314 368.279 126.481 368.446C127.65 368.113 128.819 367.613 129.989 367.28C129.989 367.114 129.822 366.947 129.822 366.781C128.986 366.614 128.151 366.281 127.149 366.115C126.815 366.448 126.481 366.947 126.147 367.613ZM16.2258 411.567C14.3882 411.401 13.2189 411.401 12.2165 411.234C12.2165 411.567 12.0495 411.9 12.0495 412.233C13.0518 412.4 14.0541 412.733 15.2235 412.899C15.2235 413.065 15.5576 412.4 16.2258 411.567ZM40.4485 194.462C40.6155 194.462 40.7826 194.462 41.1167 194.462C41.1167 192.964 41.1167 191.299 41.1167 189.8C40.9496 189.8 40.7826 189.8 40.4485 189.8C40.4485 191.299 40.4485 192.964 40.4485 194.462ZM19.901 405.573C19.7339 405.906 19.5669 406.073 19.3998 406.406C20.4021 406.905 21.2374 407.405 22.2397 407.904C22.4068 407.738 22.5738 407.571 22.7409 407.238C22.5738 406.739 22.2397 406.073 22.0727 405.573C21.2374 405.573 20.5692 405.573 19.901 405.573ZM132.327 358.623C132.996 359.289 133.497 359.788 134.332 360.454C135 359.622 135.501 358.789 136.337 357.624C134.666 358.123 133.664 358.456 132.327 358.623ZM17.0611 408.903C16.894 409.07 16.894 409.403 16.727 409.569C17.5622 410.069 18.5645 410.568 20.068 411.401C19.5669 410.069 19.3998 409.569 19.2328 408.903C18.3975 408.903 17.7293 408.903 17.0611 408.903ZM171.251 428.549C171.251 427.384 171.251 426.385 171.251 425.053C170.416 426.218 169.747 427.051 169.079 428.05C169.914 428.216 170.416 428.383 171.251 428.549ZM112.281 359.622C112.114 359.455 111.947 359.122 111.78 358.956C111.446 359.289 110.778 359.622 110.611 359.955C110.444 360.454 110.945 361.12 111.112 361.62C111.279 361.62 111.446 361.62 111.78 361.453C111.78 360.954 111.947 360.288 112.281 359.622ZM27.7525 401.578C28.4207 402.077 28.9218 402.41 29.423 402.743C29.9241 402.244 30.2583 401.744 31.0935 400.912C29.7571 401.078 28.9218 401.245 27.7525 401.578ZM10.2119 152.007C9.87782 151.84 9.71076 151.507 9.37666 151.341C9.04255 152.007 8.54137 152.506 8.20727 153.172C8.37432 153.339 8.70844 153.505 8.87549 153.672C9.2096 153.172 9.71076 152.506 10.2119 152.007ZM18.0634 405.573C17.3952 406.073 16.894 406.406 16.0588 407.072C17.2281 407.238 17.8963 407.405 18.7316 407.405C18.3975 406.739 18.2304 406.239 18.0634 405.573ZM14.0541 409.569C14.2212 409.736 14.3882 409.902 14.5553 410.069C14.8894 409.569 15.2235 409.07 15.5576 408.57C15.3906 408.404 15.2235 408.404 15.0564 408.237C14.7223 408.737 14.3882 409.07 14.0541 409.569ZM23.7432 405.74C23.9102 406.239 24.0773 406.572 24.2443 407.072C24.7455 406.739 25.0796 406.406 25.9149 405.74C24.7455 405.74 24.2443 405.74 23.7432 405.74ZM20.9033 402.244C20.4021 402.91 20.068 403.242 19.7339 403.742C20.4021 403.742 20.9033 403.742 21.4045 403.742C21.2374 403.409 21.0703 403.076 20.9033 402.244ZM6.03559 165.826C6.20264 165.659 6.53675 165.659 6.7038 165.493C6.3697 164.993 6.20264 164.494 5.86854 163.994C5.70149 163.994 5.53443 164.161 5.36738 164.161C5.70148 164.827 5.86854 165.326 6.03559 165.826ZM129.655 358.789C129.822 358.789 129.822 358.956 129.989 358.956C130.156 358.789 130.323 358.623 130.49 358.29C130.323 358.123 130.156 358.123 129.989 357.957C129.989 358.29 129.822 358.623 129.655 358.789ZM21.9056 409.07C21.7386 408.903 21.7385 408.903 21.5715 408.737C21.4044 408.903 21.2374 409.07 21.0704 409.403L21.2374 409.569C21.5715 409.403 21.7386 409.236 21.9056 409.07ZM17.5622 412.067C17.5622 412.4 17.5622 412.233 17.5622 412.067C17.3952 412.233 17.2281 412.4 17.5622 412.067Z" fill="#201B20"/>
<path d="M125.645 133.526C131.491 139.353 137.171 145.18 143.018 151.007C143.352 150.674 143.519 150.508 143.853 150.175C141.013 150.008 127.148 136.356 126.313 132.86C126.146 133.026 125.812 133.359 125.645 133.526Z" fill="#201B20"/>
<path d="M171.25 148.676C174.257 142.683 177.431 136.523 180.438 130.695C181.607 133.859 174.758 147.677 171.25 148.676Z" fill="#201B20"/>
<path d="M140.182 125.701C142.186 127.2 144.358 128.532 146.363 130.363C148.701 132.361 150.706 134.858 152.878 137.023C153.212 137.356 153.212 137.855 153.713 138.854C152.711 138.521 152.209 138.521 151.875 138.188C148.033 134.359 144.358 130.529 140.683 126.7C140.349 126.201 140.349 125.868 140.182 125.701Z" fill="#201B20"/>
<path d="M157.552 119.374C157.719 123.203 157.887 127.033 158.221 130.695C155.548 129.697 155.047 122.038 157.552 119.374Z" fill="#201B20"/>
<path d="M140.179 125.535H140.012L140.179 125.702V125.535Z" fill="#201B20"/>
<path d="M144.69 28.8028C142.852 29.1358 141.516 29.4688 140.179 29.8018C140.012 29.4688 140.012 29.3023 139.845 28.9693C141.182 28.4698 142.518 27.6374 143.687 27.8039C144.69 27.9704 145.859 29.3023 146.193 30.4677C147.029 34.297 146.026 37.6269 142.017 39.2918C141.015 39.7913 139.678 39.7913 138.342 39.9578C140.681 37.9599 143.019 36.6279 144.523 34.63C145.358 33.2981 144.69 30.9672 144.69 28.8028Z" fill="#201B20"/>
<path d="M136.668 7.8252C136.501 9.32362 134.998 10.6556 130.822 12.154C128.817 12.8199 126.812 12.9864 124.808 13.4859C124.808 13.3194 124.808 12.9864 124.641 12.8199C128.65 10.9885 132.826 9.32362 136.668 7.8252Z" fill="#201B20"/>
<path d="M139.514 36.961C140.683 35.4625 137.509 31.6332 142.187 32.1327C141.685 32.1327 141.351 31.9662 140.349 31.7997C141.184 31.3002 141.685 30.6343 142.187 30.6343C142.521 30.6343 143.189 31.3002 143.356 31.7997C144.191 33.6311 141.852 36.7945 139.514 36.961Z" fill="#201B20"/>
<path d="M131.156 7.65918C129.151 10.1566 122.302 10.656 120.799 8.65813C124.14 8.32515 127.481 7.99216 131.156 7.65918Z" fill="#201B20"/>
<path d="M117.791 33.7976C117.123 34.9631 116.455 35.7955 115.954 36.628C115.453 35.4625 114.617 34.4636 114.45 33.2981C114.283 32.4657 115.286 31.4667 115.62 30.6343C116.288 31.6332 116.956 32.4657 117.791 33.7976Z" fill="#201B20"/>
<path d="M130.156 37.4604C128.987 40.2908 127.818 43.1212 126.481 46.118C124.811 43.1212 127.484 37.4604 130.156 37.4604Z" fill="#201B20"/>
<path d="M75.5302 36.4619C78.036 39.9582 77.869 43.4545 75.1961 44.287C73.8597 44.7865 72.0221 43.954 70.5187 43.4545C70.3516 43.4545 70.5187 41.4566 70.8528 40.4577C71.3539 38.9593 71.8551 37.4608 72.3563 36.1289C72.6904 36.2954 73.0244 36.2954 73.3586 36.4619C72.8574 38.4598 72.3562 40.4577 71.688 42.9551C72.8574 42.7886 74.1938 43.1215 74.862 42.4556C75.5303 41.9561 75.5302 40.6242 75.5302 39.6252C75.6973 38.4598 75.5302 37.4608 75.5302 36.4619Z" fill="#201B20"/>
<path d="M62.8301 26.1389C63.9994 25.3064 65.0018 24.141 66.1711 23.9745C67.6746 23.808 69.5122 24.3075 71.1827 24.6404C70.8486 25.3064 70.6815 26.3054 70.1804 26.4718C68.0087 26.9713 65.837 27.1378 63.4983 27.3043C63.1642 26.9713 62.9971 26.4719 62.8301 26.1389Z" fill="#201B20"/>
<path d="M85.5503 25.4729C82.0421 25.4729 79.3693 25.4729 76.1953 25.4729C76.8635 22.4761 79.0352 22.9756 80.8728 22.8091C82.7103 22.8091 84.3809 23.3086 85.5503 25.4729Z" fill="#201B20"/>
<path d="M68.1777 34.1302C66.5072 33.1313 65.839 30.9669 67.0084 29.4685C67.3425 29.1355 68.8459 29.1355 69.18 29.4685C70.3494 30.4674 69.6812 33.1313 68.1777 34.1302Z" fill="#201B20"/>
<path d="M80.3739 28.1372C80.541 29.4691 80.875 30.8011 80.875 32.133C80.875 32.6325 80.0398 33.4649 79.5386 33.4649C79.0375 33.4649 78.0352 32.6325 78.0352 32.133C78.0352 30.8011 78.3693 29.4691 78.7034 28.1372C79.3716 28.1372 79.8728 28.1372 80.3739 28.1372Z" fill="#201B20"/>
<path d="M70.3498 46.9502C73.0226 46.9502 75.5284 46.9502 78.2012 46.9502C77.7001 48.6151 75.3613 49.6141 72.5214 48.9481C71.6862 48.7816 70.8509 47.9491 70.0156 47.4497C70.0156 47.2832 70.1827 47.1167 70.3498 46.9502Z" fill="#201B20"/>
<path d="M86.8906 44.2869C87.5588 40.9571 88.227 38.1267 88.8953 35.1299C90.2317 36.9613 89.0623 42.955 86.8906 44.2869Z" fill="#201B20"/>
<path d="M61.6625 37.9609C62.1636 40.1253 62.6648 42.4562 63.1659 44.6206C62.8318 44.6206 62.4977 44.7871 62.1636 44.7871C61.6625 42.6227 61.1613 40.2918 60.6602 38.1274C60.9943 38.1274 61.3284 37.9609 61.6625 37.9609Z" fill="#201B20"/>
</g>
<defs>
<clipPath id="clip0_11530_171">
<rect width="197" height="450" fill="white"/>
</clipPath>
</defs>
</svg>
