<svg width="175" height="450" viewBox="0 0 175 450" fill="none" xmlns="http://www.w3.org/2000/svg" class="drawing">
<path d="M75.8761 7.47622C77.8243 5.85429 79.6101 4.39457 81.5582 2.93483C84.1558 0.988515 87.078 -0.146867 90.325 0.0153262C94.0589 0.177519 97.6306 -0.146837 101.202 1.3129C107.209 4.07019 112.566 10.2335 112.566 17.37C112.566 20.2895 112.079 23.3712 112.242 26.2906C112.242 27.9126 112.729 29.8589 113.541 31.3186C114.839 33.5893 115.002 36.0222 114.839 38.4551C114.677 40.4014 115.002 42.0234 116.625 43.3209C117.437 43.9697 118.249 45.2672 118.249 46.2404C118.736 50.944 121.82 53.8635 125.067 56.4586C131.399 61.811 135.62 68.6231 139.029 75.9218C143.737 86.1399 145.685 97.0069 146.497 108.198C147.796 126.039 144.549 143.07 139.516 159.938C139.191 161.235 138.867 162.695 138.38 163.993C137.893 165.452 137.243 166.912 136.756 168.372C136.594 168.372 136.431 168.372 136.107 168.372C137.73 175.671 139.029 182.969 140.815 190.106C142.276 195.783 142.763 201.459 142.438 207.298C141.789 217.516 141.302 227.735 140.815 237.953C140.165 252.226 139.354 266.499 138.704 280.772C138.055 295.045 137.243 309.318 136.594 323.591C136.107 332.187 135.782 340.783 135.457 349.379C135.457 350.515 135.782 351.65 136.107 352.623C139.354 359.76 142.763 366.896 146.01 374.195C147.146 376.79 148.932 378.574 151.367 380.034C156.887 383.278 162.894 385.224 168.738 387.495C169.875 387.981 170.849 388.306 171.174 389.603C171.661 391.063 171.336 392.361 169.875 392.847C167.44 393.658 165.004 394.631 162.569 394.793C159.322 394.956 155.913 394.469 152.666 394.145C148.445 393.82 144.062 393.496 139.841 393.009C137.243 392.685 134.97 391.874 133.022 389.441C132.86 390.252 132.697 390.901 132.697 391.55C132.373 400.308 131.886 409.067 131.561 417.825C131.561 419.285 131.399 420.582 130.912 422.042C127.989 430.638 123.931 438.748 117.275 445.073C112.891 449.453 107.371 450.912 101.202 449.453C98.28 448.804 96.9812 446.533 97.9553 443.451C99.7411 437.45 102.176 431.774 105.261 426.421C107.209 423.177 108.832 419.771 110.294 416.365C111.917 412.635 112.079 408.904 111.105 404.849C110.294 401.443 110.131 397.875 109.644 394.469C109.644 393.982 109.482 393.496 109.482 393.009C109.32 393.009 108.995 393.009 108.832 392.847C108.508 394.307 107.858 395.767 108.021 397.064C108.345 401.443 108.995 405.823 109.482 410.04C109.807 412.797 108.832 414.094 106.073 414.581C105.099 414.743 103.962 414.743 102.988 414.905C101.365 415.23 99.5787 415.554 98.6047 413.608C97.9553 413.77 97.6306 413.77 97.1435 413.932C90.0003 417.014 82.5323 417.501 74.902 417.176C74.415 417.176 73.9279 417.176 73.6033 417.014C72.1421 416.69 70.3563 416.69 70.0316 414.581C69.7069 412.797 70.8434 410.688 72.7915 410.04C75.0644 409.229 77.3372 408.58 79.6101 408.093C82.6947 407.445 85.6169 406.147 87.7274 403.714C88.5392 402.741 89.6756 401.93 90.6497 401.119C93.4096 398.686 93.4096 398.037 91.7861 394.631C91.2991 393.496 91.1367 391.874 91.1367 390.576C91.6237 373.708 92.1108 357.002 92.5978 340.134C92.5978 339.648 92.5978 339.323 92.5978 338.837C93.4096 333.322 91.1367 328.619 88.5392 324.077C86.591 320.671 84.8052 317.103 83.1817 313.697C81.5582 310.129 80.2595 306.56 78.7984 302.992C78.149 301.532 77.0125 300.235 76.3632 298.613C75.2267 296.18 74.2526 293.747 72.9539 290.99C72.4668 291.639 71.9798 292.125 71.8174 292.774C69.5446 298.613 68.0835 304.614 67.5964 310.777C67.4341 311.913 67.1094 313.048 66.947 314.021C66.2977 320.833 65.4859 327.646 64.8365 334.295C64.1871 339.972 63.5378 345.811 63.0507 351.488C62.726 356.354 62.4013 361.219 62.239 366.085C62.0766 371.6 62.0766 377.277 61.7519 382.791C61.5896 385.062 62.726 386.684 64.1871 388.144C67.1094 391.063 70.0316 393.82 74.2526 395.118C76.2008 395.604 78.149 397.226 79.6101 398.686C81.3959 400.795 80.2595 402.903 77.4996 402.903C69.5446 403.065 61.7519 401.768 54.4463 398.362C52.4982 397.551 50.55 396.74 48.6019 395.929C46.9784 395.28 46.1667 394.307 46.329 392.523C46.329 390.09 46.329 387.657 46.329 384.9C43.2444 384.738 43.2444 382.305 43.0821 379.71C42.4327 366.41 41.4586 353.11 40.8092 339.81C40.1598 329.267 39.6728 318.725 39.0234 308.02C38.374 297.315 37.887 286.611 36.9129 276.068C36.7505 273.473 35.4518 271.04 34.64 268.607C30.7437 258.227 28.9579 247.522 29.6073 236.493C29.7696 234.547 29.2826 232.763 28.3085 230.978C27.0097 228.708 26.198 225.95 25.3863 223.355C24.4122 219.787 22.1393 217.192 19.5418 214.759C17.5936 212.975 15.8078 211.029 14.8337 208.596C8.17752 193.187 3.46946 177.13 3.14477 160.1C2.98242 149.72 2.98242 139.015 2.98242 128.472C2.98242 115.983 5.25528 103.981 7.69048 91.8167C9.1516 84.1936 13.3726 78.1925 18.243 72.5157C24.2498 65.5414 31.2308 59.8646 39.1857 55.161C41.6209 53.7013 42.9197 51.755 42.2703 48.8355C41.7833 47.0514 41.6209 44.9429 40.6469 43.3209C37.2376 37.6442 37.0752 31.643 37.3999 25.3175C37.5623 20.4517 39.3481 16.0725 42.108 12.1798C46.0043 6.82744 51.1994 2.9348 58.018 2.44822C64.0248 2.12384 69.8693 3.7458 75.0644 6.98966C75.3891 7.15186 75.7138 7.31403 75.8761 7.47622ZM76.2008 103.657C76.3631 106.252 76.3631 108.847 77.8243 111.118C77.4996 108.523 77.4996 105.927 76.2008 103.657C75.0644 98.6288 73.7656 93.4386 72.6292 88.4106C70.681 82.7338 68.8952 77.0571 66.947 71.3803C66.7847 71.3803 66.6223 71.5425 66.46 71.5425C67.5964 77.3815 70.0316 82.5717 72.3045 87.924C72.3045 88.0862 72.6292 88.0862 72.6292 88.2484C72.6292 88.8972 72.3045 89.546 72.4668 90.1947C73.1162 92.4654 73.7656 94.8983 74.415 97.169C74.902 99.4397 75.5514 101.548 76.2008 103.657ZM99.254 8.93595C94.546 12.0176 91.2991 16.0725 89.6756 21.4248C90.1626 21.2627 90.6497 20.9383 90.9744 20.6139C92.7602 18.6676 94.546 16.7212 96.0071 14.6127C97.1435 12.9908 98.1176 10.8823 99.254 8.93595ZM78.636 82.7338C79.2854 88.8972 81.7206 94.5739 83.5064 100.413C84.1558 93.9252 81.3959 88.2484 78.636 82.7338ZM62.4013 84.1936C61.7519 80.7875 60.9402 77.2193 60.1285 73.651C59.3167 73.4888 58.6674 73.3266 57.6933 73.0023C59.1544 76.7327 60.4532 80.1387 61.9143 83.3826C62.0766 83.8692 62.239 84.0314 62.4013 84.1936C62.4013 84.518 62.4013 84.8424 62.4013 85.1667C64.6742 93.4386 66.947 101.873 69.3822 110.144C69.5446 110.793 70.194 111.442 70.5187 111.929C70.681 111.766 71.0057 111.766 71.1681 111.604C70.8434 109.982 70.5187 108.198 70.0316 106.576C68.2458 101.062 66.2977 95.7093 64.5118 90.1947C63.8625 88.4106 63.0507 86.3021 62.4013 84.1936ZM17.1066 76.7327C21.0029 75.9218 24.4122 74.7864 26.685 71.2181C27.6591 69.5962 29.2826 68.2987 30.5814 67.0011C33.3413 64.406 36.2635 61.9731 39.1857 59.378C39.3481 59.2158 39.3481 58.8915 39.5104 58.7293C39.3481 58.5671 39.1857 58.2427 39.0234 58.0805C38.8611 57.9183 38.5364 57.7561 38.2117 57.5939C30.0943 62.9463 22.9511 69.1096 17.1066 76.7327ZM58.1803 104.143C58.1803 104.306 58.1803 104.143 58.1803 104.143C57.3686 101.224 56.7192 98.4666 56.0698 95.5471C55.0957 91.3301 54.4463 86.9509 53.1476 82.7338C51.6864 77.7059 49.7383 72.8401 47.9525 67.8121C47.1407 65.3792 46.4914 62.7841 43.7315 61.9731C44.2185 64.0816 44.7055 66.1901 45.3549 68.1365C45.842 69.7584 46.329 71.3803 46.9784 73.1645C47.7901 75.4352 48.7642 77.7059 49.4136 79.9766C50.063 81.9229 50.2253 84.0314 50.8747 86.1399C51.6864 89.3838 52.4982 92.6276 53.797 95.7093C54.9334 98.791 55.2581 102.197 58.1803 104.143ZM39.6728 234.06C40.3222 236.169 40.8092 238.439 41.4586 240.548C41.7833 241.845 42.4327 243.305 42.9197 244.927C41.9456 244.927 41.4586 245.089 40.9716 244.927C37.5623 243.954 35.7765 241.359 34.3153 238.277C33.666 236.98 33.0166 235.682 31.3931 235.358C30.7437 247.036 31.7178 254.983 35.4518 266.012C36.7505 269.743 38.374 273.473 39.8351 277.203C40.1598 278.177 40.4845 279.799 40.1598 280.123C38.6987 281.42 39.3481 282.88 39.5104 284.178C40.4845 300.721 41.4586 317.265 42.4327 333.809C43.4068 349.542 44.2185 365.274 45.1926 381.007C45.1926 381.656 45.3549 382.142 45.6796 383.278C50.55 383.278 55.2581 383.278 60.4532 383.278C60.4532 378.574 60.6155 373.708 60.6155 369.005C60.6155 368.356 60.2908 367.869 59.9661 367.221C58.505 363.815 56.7192 360.409 55.5828 356.84C51.8488 345.811 51.0371 333.971 48.4395 322.618C48.4395 322.293 48.6019 321.969 48.6019 321.644C48.7642 321.644 48.9266 321.644 49.2512 321.644C50.2253 325.537 51.1994 329.592 52.0111 333.484C53.4723 341.432 54.6087 349.379 57.3686 357.002C58.1803 359.435 59.3167 361.706 60.1285 364.139C60.7779 360.409 61.1026 356.84 61.4272 353.272C61.4272 352.299 61.1026 351.326 60.7779 350.515C58.992 345.649 56.7192 340.783 55.4204 335.755C51.6864 322.78 50.55 309.48 49.4136 296.018C49.4136 295.694 49.4136 295.207 49.5759 294.883C49.7383 294.883 49.9006 294.882 50.063 294.72C50.2253 295.531 50.55 296.342 50.7124 296.991C51.1994 300.559 51.6864 304.29 52.1735 307.858C53.6346 321.158 55.9075 334.133 60.9402 346.622C61.1026 347.109 61.4273 347.433 62.0766 348.244C62.239 345.649 62.5637 343.865 62.5637 341.919C62.4013 338.188 63.7001 334.458 62.726 330.727C60.7779 322.618 59.1544 314.508 57.5309 306.398C56.8815 303.154 56.5568 299.911 56.2322 296.829C56.2322 296.342 56.3945 295.693 56.5568 295.045C56.7192 295.045 56.8815 295.045 57.2062 295.045C58.9921 305.749 60.6155 316.454 63.3754 327.159C64.8365 318.725 66.2976 310.94 67.2717 302.83C68.4082 294.72 72.1421 288.07 76.8502 281.583C77.9866 279.961 78.9607 277.852 79.2854 275.906C79.7724 273.311 79.4477 270.716 79.6101 268.121C80.0971 260.498 80.7465 252.712 81.2336 245.089C81.8829 234.871 82.857 224.653 83.1817 214.435C83.5064 205.028 83.1817 195.62 83.0194 186.375C83.0194 185.726 82.857 185.24 82.857 184.753C74.2526 187.673 65.8106 190.592 57.3686 193.35C57.2062 195.458 57.2062 197.404 57.0439 199.351C56.0698 213.624 54.771 228.059 53.9593 242.332C53.4723 253.848 53.4723 265.526 53.4723 277.041C53.4723 284.016 54.1216 290.828 54.4463 297.802C54.4463 298.775 54.1216 299.586 54.1216 300.559C53.797 300.559 53.6346 300.559 53.3099 300.397C49.7383 264.877 52.6605 229.356 55.7451 193.674C52.1735 193.998 49.0889 194.323 45.3549 194.647C41.9456 196.431 37.887 198.54 33.666 200.811C33.666 204.703 35.7765 208.271 33.9907 211.84C35.2894 214.759 36.2635 217.679 38.0493 220.111C40.6469 223.842 41.7833 228.059 42.9197 232.114C43.0821 232.925 42.9197 233.898 42.9197 235.195C41.6209 234.871 40.6469 234.547 39.6728 234.06ZM124.905 406.309C124.905 402.417 124.905 398.848 124.905 395.442C125.23 366.896 125.554 338.35 125.879 309.804C126.204 275.419 126.528 241.197 127.178 206.812C127.34 199.837 126.366 193.512 122.47 187.673C120.521 184.753 119.223 181.509 117.599 178.428C117.275 177.779 116.787 177.13 116.463 176.482C115.651 176.482 115.002 176.482 114.19 176.482C110.131 176.644 106.073 176.968 102.176 176.806C98.1176 176.644 94.546 177.292 91.6237 179.725C91.6237 187.511 91.6237 195.134 91.6237 202.757C91.6237 208.758 91.7861 214.597 91.7861 220.598C91.9484 227.572 91.4614 234.547 92.1108 241.359C93.2472 252.712 94.8707 264.066 96.3318 275.582C98.6047 293.098 100.715 310.453 102.988 327.97C105.099 344.027 107.047 359.922 109.157 375.979C109.644 380.196 110.294 384.413 110.781 388.63C111.43 393.334 112.079 398.2 112.729 402.903C113.054 405.012 114.19 406.471 116.3 406.634C118.898 406.634 121.658 406.309 124.905 406.309ZM44.0561 109.982C44.0561 102.846 42.4327 96.3581 38.0493 90.5191C37.0752 89.2216 36.1012 88.0862 35.1271 86.7887C32.3672 83.707 29.6073 80.4632 26.8474 77.3815C25.711 76.2461 24.5745 75.9217 23.1134 76.4083C20.8406 77.2193 18.4054 77.8681 16.1325 79.0034C14.9961 79.49 14.022 80.4632 13.3726 81.5985C10.288 85.9777 9.31395 91.3301 8.50221 96.5203C7.20344 104.306 5.57997 112.091 5.09293 119.876C4.44354 133.176 4.76824 146.476 4.93058 159.776C5.09293 176.644 10.1257 192.376 16.2949 207.785C17.2689 210.055 18.7301 212.164 20.8406 213.786C21.977 214.597 22.9511 214.759 24.2498 214.273C26.685 213.299 29.1202 212.651 31.3931 211.677C32.2048 211.353 32.8542 210.218 33.1789 209.407C33.5036 208.434 33.1789 207.298 33.0166 206.325C32.5295 204.054 31.7178 201.784 31.2308 199.513C30.419 194.809 29.932 189.944 29.2826 185.24C27.6591 172.102 27.0097 159.127 31.7178 146.314C34.3153 139.339 36.7505 132.365 40.3222 125.715C43.0821 120.687 44.0561 115.497 44.0561 109.982ZM75.8761 114.199C68.7329 113.875 66.46 113.064 61.2649 109.334C56.2322 105.603 52.8229 100.737 51.6864 94.574C51.3618 93.1142 50.7124 91.8167 50.3877 90.3569C49.7383 88.0862 49.0889 85.8155 48.6019 83.5448C47.9525 81.1119 47.7901 78.5168 46.6537 76.2461C45.1926 73.1644 44.0561 69.9206 43.4068 66.5145C43.0821 64.406 42.2703 62.4597 40.3222 60.8378C34.9647 64.8926 30.0943 69.434 26.0357 74.2998C29.932 78.679 33.666 82.7338 37.2376 86.7887C40.8092 90.8435 43.4068 95.3849 44.5432 100.575C46.6537 109.82 46.1667 118.903 41.6209 127.175C46.4913 139.177 51.1994 151.017 56.0698 162.695C62.0766 162.857 67.5964 163.019 73.2786 163.344C76.5255 163.506 78.9607 162.046 80.9089 160.262C80.9089 144.205 78.7984 129.283 75.8761 114.199ZM136.431 179.563C134.159 185.402 132.048 190.917 130.1 196.431C129.613 197.891 128.801 199.513 128.801 201.135C128.476 211.191 128.476 221.085 128.314 231.141C127.989 254.334 127.827 277.366 127.502 300.559C127.015 334.62 126.691 368.68 126.204 402.741C126.204 403.714 126.204 404.525 126.366 405.498C129.451 405.336 130.1 404.85 130.262 402.254C131.074 390.252 131.723 378.25 132.535 366.248C133.185 356.192 133.996 346.136 134.483 336.08C135.133 321.807 135.62 307.371 136.431 293.098C137.243 274.608 138.38 255.956 139.354 237.466C139.841 228.059 140.328 218.814 140.815 209.407C140.977 205.514 141.464 201.621 140.815 197.891C139.678 191.728 138.055 185.727 136.431 179.563ZM85.1299 184.429C84.9675 184.429 84.9675 184.429 84.8052 184.429C84.8052 191.89 84.8052 199.513 84.8052 206.974C84.8052 210.218 84.9675 213.624 84.8052 216.868C83.9934 229.356 83.0194 241.845 82.0453 254.334C81.5582 260.984 81.3959 267.796 80.9089 274.446C80.7465 276.555 79.9348 278.663 79.123 280.61C77.9866 282.88 76.5255 284.989 75.2267 287.097C74.902 287.584 74.5773 288.233 74.7397 288.719C75.3891 290.99 76.2008 293.423 77.1749 295.531C78.4737 298.451 80.4218 301.046 81.7206 303.965C84.4805 309.804 86.9157 315.643 89.5132 321.482C90.325 323.266 91.2991 324.888 92.2731 326.672C92.4355 326.672 92.7602 326.51 92.9225 326.51C92.9225 325.861 92.9225 325.375 92.9225 324.726C92.2731 309.318 91.6237 293.747 91.1367 278.339C90.6497 258.227 90.4873 238.277 90.325 218.165C90.325 209.082 90.6497 199.999 87.2404 191.241C86.2663 189.295 85.7793 186.862 85.1299 184.429ZM92.4355 255.956H92.2731C92.2731 260.822 92.1108 265.85 92.2731 270.716C92.9225 287.908 94.0589 304.938 94.546 322.131C95.033 334.944 95.3577 347.757 94.3836 360.571C93.5719 370.789 93.5719 381.007 93.2472 391.225C93.2472 393.334 94.2213 394.956 96.1695 395.28C98.6047 395.604 101.202 395.767 103.8 395.604C104.774 395.604 106.235 394.631 106.722 393.658C108.183 390.414 109.32 387.17 108.832 383.602C107.209 370.789 105.586 358.138 103.962 345.325C101.689 327.97 99.4164 310.615 97.3059 293.261C95.5201 280.934 93.8966 268.445 92.4355 255.956ZM71.0057 41.5368C71.4928 40.2392 71.6551 39.2661 71.9798 38.4551C72.7915 36.9954 72.7915 35.6978 72.3045 33.9137C70.8434 29.3723 70.5187 24.6687 71.1681 19.9651C71.4927 17.6944 72.1421 15.5859 72.6292 13.4774C67.2717 12.8286 65.4859 13.6396 63.0507 18.3432C61.4272 21.4249 59.9661 24.5065 58.3427 27.5882C57.6933 28.7235 57.0439 29.8589 56.0698 30.832C55.2581 31.8052 54.4463 32.6162 53.6346 33.2649C52.8229 32.6162 51.6864 31.8052 50.55 30.9942C48.2772 34.0759 50.7124 36.0222 52.0111 38.2929C48.6019 38.2929 48.9265 35.2113 47.4654 33.4271C45.1926 36.5088 47.4654 39.4283 47.4654 42.51C46.1667 43.1587 44.7055 43.9697 43.4068 44.6184C43.7315 47.0513 44.0561 49.4843 44.3808 52.0793C46.1667 53.3769 48.2772 54.8366 50.063 56.4586C53.3099 59.7024 57.2062 61.6488 61.7519 62.1353C61.9143 61.6488 62.239 61 62.4013 60.5134C63.5378 56.783 65.6483 54.6744 69.7069 54.35C71.6551 54.1878 73.4409 53.7013 75.3891 53.0525C76.5255 52.7281 77.4996 51.7549 78.636 51.1062C77.3372 47.7001 76.0385 44.7806 74.902 42.0233C73.6033 41.8612 72.6292 41.699 71.0057 41.5368ZM91.9484 36.671C92.9225 36.0222 93.7343 35.5356 94.2213 35.0491C95.1954 33.9137 96.4941 32.7784 96.8188 31.3186C97.4682 28.7235 95.3577 26.4528 92.9225 26.9394C91.7861 27.2638 90.9744 28.5613 90.1626 29.3723C89.8379 29.6967 89.5132 29.8589 89.0262 30.1833C88.8638 29.3723 88.7015 28.8857 88.7015 28.2369C86.7533 29.0479 84.8052 29.6967 82.37 30.5077C82.5323 28.5614 82.5323 27.2638 82.6947 25.9662C83.5064 20.9382 85.6169 16.559 87.8898 12.0176C88.3768 10.8823 88.5392 9.74691 89.0262 7.96278C84.1558 8.77375 80.0971 9.09815 76.5255 11.5311C75.7138 12.1798 74.7397 12.9908 74.415 13.8017C72.7915 17.6944 72.1421 21.587 72.7915 25.6419C73.9279 26.1285 74.7397 26.4528 75.7138 26.7772C75.7138 26.9394 75.5514 27.1016 75.5514 27.2638C74.5773 27.426 73.7656 27.7504 72.7915 27.9126C72.7915 28.5613 72.6292 28.8857 72.6292 29.3723C74.2526 36.3466 76.3631 42.9965 79.4477 49.4842C80.4218 51.4306 81.7206 51.9172 83.6688 51.5928C86.104 51.2684 88.5392 51.1062 90.812 50.944C91.6237 52.5659 92.2731 53.7013 92.9225 54.9988C98.9294 51.4305 104.936 48.0245 110.618 44.7806C109.157 37.8063 102.826 35.5356 98.9293 30.832C97.1435 35.3734 95.3577 37.1576 91.9484 36.671ZM45.5173 41.699C45.5173 41.3746 45.6796 41.2124 45.6796 41.0502C45.6796 40.5636 45.5173 40.2392 45.3549 39.7527C44.7055 36.5088 44.0561 33.4271 47.9525 31.643C48.1148 31.4808 48.2772 31.3186 48.4395 30.9942C49.4136 29.6967 50.7124 29.5345 52.1735 30.0211C54.284 30.6698 55.2581 30.3454 56.2322 28.3991C56.7192 27.5882 57.0439 26.7772 57.3686 25.9662C59.4791 21.4248 61.4273 16.559 64.9989 12.9908C64.3495 12.1798 63.8625 11.3689 63.0507 10.2335C64.0248 10.3957 64.5118 10.2335 64.6742 10.3957C66.947 11.8554 69.5446 11.5311 71.9798 11.6933C73.4409 11.8554 74.5773 11.2067 74.902 9.26036C74.0903 8.61158 73.1162 7.8006 71.9798 7.31402C68.7329 6.17867 65.6483 4.88113 62.239 4.23236C58.992 3.58359 55.5828 3.5836 52.4982 5.20553C48.4395 7.15185 45.1926 10.0713 42.7574 13.8017C38.5364 20.4517 37.887 27.7504 39.1857 35.3735C39.6728 37.9686 40.4845 40.5636 42.7574 42.6722C43.8938 42.51 44.7055 42.0234 45.5173 41.699ZM64.3495 61.8109C67.4341 61.1622 68.5705 61.9731 69.5446 65.217C69.8693 66.1902 70.0316 67.1633 70.0316 67.9743C69.8693 69.7584 70.681 70.8937 71.9798 72.0291C75.8761 75.1108 79.4477 78.679 81.7206 83.2205C81.7206 83.3826 82.0453 83.3826 82.2076 83.3826L82.37 83.2205C84.1558 74.6242 89.5132 67.0011 90.4873 58.0805C90.4873 57.9183 90.6497 57.7561 90.6497 57.5939C91.7861 55.6476 91.1367 54.1879 90.0003 52.8903C86.4286 52.8903 83.0194 52.8903 79.2854 52.8903C76.6878 55.3232 73.1162 55.6476 69.3822 56.2964C65.973 57.1073 64.8365 58.4049 64.3495 61.8109ZM89.5132 154.748C89.6756 154.91 89.8379 154.91 90.0003 155.072C93.5719 151.666 96.4941 147.936 97.4682 143.07C98.4423 138.528 98.767 133.663 99.4164 129.121C100.39 121.336 101.202 113.713 102.339 105.927C103.15 99.9264 104.449 93.9252 105.261 87.7618C106.397 80.4631 110.456 75.1108 115.651 70.245C116.95 69.1096 118.086 68.9474 119.71 69.9206C124.418 72.8401 128.963 75.7595 133.185 79.3278C135.944 81.7607 137.081 84.3558 137.243 87.924C137.568 96.5203 135.457 104.63 133.347 112.74C131.723 118.579 129.775 124.418 127.665 130.094C124.093 139.664 119.872 148.909 113.703 157.018C112.079 159.289 110.456 161.722 108.995 163.993C108.833 164.317 108.832 164.804 108.67 165.29C109.157 165.128 109.32 165.128 109.482 165.128C109.969 164.641 110.456 164.317 110.781 163.83C115.002 158.802 118.736 153.45 121.658 147.611C123.931 142.908 126.204 138.204 128.152 133.338C129.613 129.77 131.074 126.202 132.048 122.633C133.672 117.119 134.808 111.442 136.431 105.927C138.542 98.6288 138.704 91.0057 138.055 83.5448C138.055 82.7338 137.568 81.7607 136.918 81.1119C132.048 76.2461 126.691 72.0291 120.521 68.7852C117.437 67.1633 115.489 64.5682 113.865 61.4865C112.729 59.0536 111.105 56.9451 109.807 54.6744C109.644 54.8366 109.32 54.9988 109.157 54.9988C111.268 59.0536 113.378 63.2707 115.489 67.4877C113.865 69.434 112.404 71.2181 110.943 72.84C108.345 75.7595 105.91 78.679 104.936 82.5716C103.962 86.1399 102.988 89.7081 102.339 93.2764C100.878 102.359 99.5787 111.604 98.28 120.849C97.6306 125.391 97.3059 130.094 96.9812 134.636C96.4941 141.448 95.033 147.773 90.325 152.964C90.0003 153.774 89.6756 154.261 89.5132 154.748ZM53.4723 162.371C53.6346 162.046 53.797 161.884 53.9593 161.56C49.5759 150.855 45.6796 139.826 40.6469 129.283C38.6987 132.689 37.5623 136.095 35.7765 139.177C33.666 143.07 34.9647 146.151 36.7505 149.557C38.5364 152.477 40.1598 155.396 41.7833 158.316C42.108 158.965 42.595 159.776 43.2444 159.938C46.6537 160.911 50.063 161.56 53.4723 162.371ZM134.321 380.845C134.321 382.305 134.159 383.927 134.321 385.548C134.646 389.279 135.457 390.09 139.191 390.739C140.652 390.901 142.114 391.225 143.575 391.387C146.659 391.712 149.744 391.387 152.666 392.198C157.374 393.334 162.082 392.685 166.628 392.036C167.602 391.874 168.576 391.387 169.388 390.901C169.388 390.739 169.388 390.414 169.55 390.252C168.738 389.766 167.927 389.117 166.953 388.792C159.322 386.197 151.854 383.116 146.01 378.574C141.951 379.385 138.217 380.196 134.321 380.845ZM48.2772 393.658C58.1803 398.686 67.9211 401.443 78.7984 400.795C78.3113 399.659 77.6619 398.848 76.8502 398.362C75.7138 397.713 74.415 397.226 73.2786 396.74C70.5187 395.767 67.7588 394.469 65.8106 392.198C64.3495 390.576 63.0507 388.792 61.5896 387.17C60.9402 386.522 60.2908 385.386 59.4791 385.386C56.0698 385.224 52.4982 385.224 48.9265 385.224C48.6019 388.306 48.4395 391.063 48.2772 393.658ZM82.5323 158.154C82.6947 158.154 82.857 158.154 83.0194 158.154C85.1299 140.637 86.104 123.282 84.1558 105.603C82.2076 108.523 80.9089 111.766 77.3372 113.226C78.4737 120.849 79.9348 128.148 80.7465 135.609C81.7206 143.07 82.0453 150.531 82.5323 158.154ZM55.9075 173.724C56.0698 170.48 56.3945 167.561 56.5568 164.479C51.6864 163.668 47.1407 162.857 42.2703 162.046C42.4327 164.479 42.9197 166.75 42.7574 169.021C42.595 171.94 42.108 174.86 41.6209 177.779C41.2963 179.239 40.1598 180.05 38.2117 179.077C38.0493 180.374 37.887 181.347 37.7246 183.131C40.3222 181.834 42.4327 180.861 44.5432 179.725C45.5173 179.239 46.329 178.266 47.4654 177.617C50.063 176.319 52.9852 175.022 55.9075 173.724ZM33.3413 147.287C28.6332 160.587 29.7696 173.562 32.0425 186.7C32.5295 186.051 32.8542 185.24 32.8542 184.591C32.8542 178.266 33.3413 172.102 35.4518 166.101C36.2635 163.83 37.5623 161.884 38.374 159.776C38.6987 158.802 39.1857 157.505 38.6987 156.694C37.2376 153.45 35.2894 150.531 33.3413 147.287ZM40.4845 232.114C40.6469 231.952 40.8092 231.789 40.9716 231.627C40.3222 226.761 37.7246 222.544 34.9647 218.327C32.3672 218.976 29.7696 219.625 27.3344 220.274C27.4968 224.977 29.932 230.978 32.6919 233.249C33.1789 232.925 33.5036 232.763 34.153 232.438C35.9388 236.006 36.1012 240.223 40.3222 242.332C39.0234 237.79 37.0752 233.573 37.2376 229.032C37.5623 228.87 37.7246 228.708 38.0493 228.545C38.8611 229.681 39.6728 230.978 40.4845 232.114ZM32.6919 198.864C33.0166 199.026 33.1789 199.189 33.5036 199.351C34.3153 198.864 35.2894 198.54 36.1012 198.053C39.0234 196.593 41.9456 195.134 44.7055 193.512C45.3549 193.025 46.329 192.052 46.329 191.403C46.0043 188.159 45.3549 185.078 44.7055 181.509C41.7833 183.131 39.1857 184.429 36.5882 185.889C33.1789 187.673 30.9061 190.106 32.6919 194.323C32.6919 194.485 32.8542 194.647 32.8542 194.809C33.3413 194.809 33.9907 194.647 34.64 194.485C33.666 196.107 33.1789 197.404 32.6919 198.864ZM135.457 355.218C135.295 355.218 135.133 355.218 134.808 355.381C134.646 357.651 134.483 359.922 134.321 362.03C133.996 366.572 133.672 371.113 133.672 375.655C133.672 376.628 134.159 377.925 134.808 378.25C136.918 379.709 143.088 378.25 145.036 375.979C141.789 369.167 138.542 362.193 135.457 355.218ZM64.1871 70.245C63.0507 71.3803 62.239 72.3535 61.2649 73.3267C61.9143 76.2461 62.5637 79.1656 63.3754 81.9229C65.1612 87.924 67.1094 93.9252 69.0575 99.9263C69.8693 102.197 71.4928 103.819 74.2526 104.954C73.7656 103.17 73.4409 102.035 73.2786 100.899C72.1421 90.3569 67.2717 80.7876 64.1871 70.245ZM67.1094 111.118C67.2717 111.118 67.4341 110.955 67.5964 110.955C67.5964 110.469 67.7588 109.982 67.5964 109.496C66.947 107.063 65.973 104.792 65.3236 102.359C64.1871 97.98 63.0507 93.6008 61.7519 89.2216C59.9661 83.0582 57.8556 76.8949 55.7451 70.8938C55.5828 70.245 54.6087 69.7584 53.9593 69.2718C53.797 69.434 53.6346 69.5962 53.3099 69.7584C54.1216 72.5157 54.9334 75.273 55.7451 78.0302C57.0439 81.9229 58.6674 85.4911 59.4791 89.3838C60.9402 96.1959 62.8884 102.846 65.4859 109.334C66.1353 109.82 66.7847 110.469 67.1094 111.118ZM48.9265 66.1902C49.9006 69.5962 50.8747 72.84 52.0111 76.0839C52.9852 79.3278 54.284 82.4095 55.2581 85.6533C57.2062 92.3033 58.992 98.9532 60.7779 105.441C61.2649 106.901 62.0766 108.036 63.8625 108.685C62.8884 105.603 61.9143 103.008 61.1026 100.413C58.8297 93.763 58.1803 86.6265 55.4204 79.9766C53.9593 76.7327 53.3099 73.1644 52.3358 69.7584C51.8488 68.2986 51.0371 66.6767 48.9265 66.1902ZM54.9334 62.1353C51.1994 59.3781 47.4654 56.4585 43.4068 53.5391C42.2703 54.6744 41.1339 55.8098 39.9975 57.1073C45.0302 61 49.4136 65.217 54.9334 67.9743C54.9334 65.8657 54.9334 64.2438 54.9334 62.1353ZM127.827 188.159C127.989 188.159 128.314 188.159 128.476 188.159C130.1 183.78 131.723 179.401 133.347 174.535C129.126 175.022 125.392 175.346 121.333 175.833C123.606 180.212 125.717 184.105 127.827 188.159ZM113.703 407.282C113.703 408.742 113.703 409.877 113.703 410.851C114.839 411.824 115.976 412.797 117.112 413.932C120.521 409.715 125.067 412.148 129.288 411.499C129.288 409.877 129.288 408.58 129.288 406.796C123.931 407.931 119.06 409.391 113.703 407.282ZM79.4477 109.009C79.7724 109.009 80.0971 108.847 80.2595 108.847C80.0971 107.874 80.0971 106.901 79.9348 105.927C79.123 102.521 78.3113 99.1154 77.4996 95.7093C77.0125 93.763 76.5255 91.6545 75.8761 89.7082C75.2267 87.4375 74.0903 85.0045 73.7656 82.7338C73.2786 79.3278 71.8174 76.4083 70.194 73.4889C69.8693 72.8401 69.2199 72.1913 68.7329 71.7047C70.3563 78.0303 72.6292 84.1936 74.415 90.3569C76.5255 96.5203 77.8243 102.846 79.4477 109.009ZM36.9129 166.75C35.2894 172.751 34.4777 178.428 35.1271 184.429C36.1012 180.05 37.2376 175.833 38.2117 171.454C38.374 171.454 38.5364 171.454 38.8611 171.454C39.1857 172.264 39.5104 173.075 39.8351 173.886C41.6209 172.751 41.7833 170.48 40.4845 166.75C39.5104 166.912 38.5364 166.912 36.9129 166.75ZM95.033 399.011C97.1435 400.47 98.767 401.606 100.553 402.903C102.501 402.417 104.287 402.092 106.56 401.606C106.397 400.146 106.235 398.686 106.073 397.551C102.176 397.551 98.767 397.551 95.1954 397.551C95.1954 398.037 95.033 398.524 95.033 399.011ZM57.6933 173.075C59.4791 172.102 60.7779 171.129 62.239 170.643C65.1612 169.669 65.4859 167.399 65.6483 164.804C63.2131 164.641 60.7779 164.479 58.1803 164.317C58.018 167.237 57.8556 169.832 57.6933 173.075ZM113.216 174.697C116.463 174.373 119.547 174.049 122.957 173.724C122.632 171.778 122.47 170.48 122.307 169.021C119.06 169.183 116.138 169.345 113.216 169.669C113.216 171.291 113.216 172.913 113.216 174.697ZM74.2526 76.5705C74.0903 76.7327 73.7656 76.8949 73.6033 77.0571C75.0644 81.9229 76.5255 86.6265 77.9866 91.4923C79.4477 96.1959 79.2854 101.386 81.7206 106.252C82.0453 105.441 82.5323 104.792 82.37 104.468C80.4218 96.5203 78.3113 88.5728 76.2008 80.7876C76.0385 79.1656 75.0644 77.8681 74.2526 76.5705ZM104.124 172.751C102.339 173.562 101.202 174.049 99.9034 174.535C99.9034 174.697 100.066 174.86 100.066 175.184C103.15 175.184 106.235 175.184 109.32 175.184C111.268 175.184 111.917 174.211 111.917 172.427C111.917 170.643 110.943 169.832 108.995 169.832C106.722 169.832 105.099 171.129 104.124 172.751ZM124.255 413.446C124.093 413.283 123.768 413.121 123.606 412.959C123.119 413.284 122.632 413.608 122.307 414.095C120.034 417.501 117.924 421.069 115.651 424.475C115.164 425.286 114.19 426.097 113.378 426.583C112.242 427.07 110.781 427.394 109.644 426.908C108.183 426.421 108.995 424.799 109.157 423.664C109.157 423.664 108.995 423.502 108.995 423.34C107.858 424.637 107.371 426.259 108.345 427.557C109.32 428.854 110.943 429.016 112.404 428.53C113.378 428.205 114.515 427.719 115.002 426.908C117.924 423.502 120.684 419.933 123.281 416.527C123.768 415.716 123.931 414.419 124.255 413.446ZM126.528 173.724C129.288 173.238 131.886 172.913 134.808 172.589C134.321 170.805 133.996 169.507 133.672 168.047C131.074 168.372 128.801 168.534 126.204 168.858C126.204 170.48 126.366 171.778 126.528 173.724ZM25.3863 219.138C28.6332 218.327 31.5554 217.679 34.8024 216.868C33.9907 215.408 33.3413 214.273 32.6919 212.975C29.6073 214.11 26.5227 215.246 23.4381 216.381C24.0875 217.354 24.5745 218.003 25.3863 219.138ZM91.4614 64.7304C91.6237 64.8926 91.6237 65.0548 91.7861 65.217C92.2731 64.8926 92.5978 64.7304 93.0849 64.406C95.8448 62.4597 98.4423 60.3512 101.202 58.5671C105.261 55.972 109.32 53.3769 113.378 50.7818C113.865 50.4574 114.19 49.8086 114.515 49.322C114.352 49.1598 114.19 48.9977 114.028 48.8355C105.586 53.3769 98.28 58.567 91.4614 64.7304ZM77.9866 8.12498C78.149 8.28718 78.149 8.4494 78.3113 8.61159C81.8829 7.96282 85.4546 7.47621 89.0262 6.50305C91.6237 5.85428 93.7343 4.23237 96.0071 1.96166C93.4096 1.63728 91.4614 1.79947 89.8379 3.5836C89.0262 4.55675 87.7274 5.04334 86.4287 5.36773C84.6428 5.85431 82.857 6.01647 81.0712 6.50305C79.9348 6.82744 78.9607 7.47621 77.9866 8.12498ZM56.3945 63.2707C56.0698 66.8389 57.3686 69.9206 59.6414 71.8669C61.5896 71.056 62.8884 69.434 62.239 68.7852C61.5896 68.7852 60.9402 68.7852 60.1285 68.7852C60.4532 67.9743 60.6155 67.3255 60.9402 66.8389C60.2908 66.3524 59.6414 65.8658 59.1544 65.3792C59.6414 64.8926 59.9661 64.5682 60.7779 63.9194C58.992 63.595 57.8556 63.4329 56.3945 63.2707ZM89.6756 195.62C89.6756 190.592 89.6756 185.889 89.6756 180.699C88.2145 181.672 87.078 182.32 86.104 182.969C87.2404 187.186 88.3768 191.241 89.6756 195.62ZM129.126 193.674C131.561 187.673 134.97 181.996 135.133 175.346C133.022 181.509 129.938 187.348 129.126 193.674ZM126.691 192.376C126.853 192.376 127.015 192.214 127.178 192.214C127.178 191.565 127.34 190.917 127.015 190.43C124.58 185.726 122.145 181.185 119.71 176.482C119.547 176.157 118.898 176.319 117.924 175.995C121.171 181.834 123.931 187.186 126.691 192.376ZM116.625 49.6464C116.787 49.4843 116.95 49.4842 117.112 49.322C116.787 48.0245 116.463 46.5648 115.813 45.4294C115.164 44.1319 114.028 43.1587 112.891 42.0233C112.079 41.2124 111.917 39.4283 109.807 39.5904C112.079 43.1587 113.703 46.8892 116.625 49.6464ZM117.437 441.667C114.515 436.315 105.099 433.233 103.15 436.964C106.073 435.18 108.67 436.153 111.105 437.613C113.216 438.91 115.164 440.208 117.437 441.667ZM99.0917 403.39C96.1695 403.228 93.2472 409.553 94.7083 412.473C95.1954 410.851 95.3577 409.066 96.0071 407.445C96.6565 405.985 97.9553 404.849 99.0917 403.39ZM127.34 424.151C127.665 424.151 127.989 423.988 128.314 423.988C127.827 422.366 127.178 420.907 127.015 419.285C126.691 417.501 126.528 415.716 126.366 414.095C126.204 414.095 125.879 414.094 125.717 414.257C125.23 417.663 126.204 420.907 127.34 424.151ZM90.9744 414.419C90.1626 410.526 88.3768 409.066 85.1299 408.904C87.078 410.526 88.8639 412.31 90.9744 414.419ZM67.9211 69.434C68.2458 66.5146 67.4341 63.9194 66.1353 63.4329C65.973 63.4329 65.6483 63.7572 65.1612 64.0816C65.8106 64.406 66.1353 64.7304 66.7847 65.217C66.2977 65.5414 65.973 65.8658 65.6483 66.1902C66.1353 66.6767 66.46 67.1633 66.947 67.6499C66.46 67.9743 65.973 68.2987 65.3236 68.6231C66.46 68.9475 67.1094 69.1096 67.9211 69.434ZM67.5964 164.804C67.4341 165.615 67.1094 166.588 66.6223 168.047C68.7329 166.912 70.3563 166.101 71.8174 165.128C71.8174 164.966 71.6551 164.804 71.6551 164.641C70.3563 164.804 69.0575 164.804 67.5964 164.804ZM107.534 411.337C105.261 411.013 102.176 411.824 101.202 413.121C105.748 412.959 106.884 412.635 107.534 411.337ZM87.7274 153.937C87.2404 152.315 86.7533 151.017 86.2663 149.72C86.104 149.72 85.9416 149.72 85.9416 149.882C85.7793 151.828 85.6169 153.774 85.2922 156.37C86.2663 155.396 86.9157 154.748 87.7274 153.937ZM71.9798 105.765C71.8174 105.765 71.4927 105.927 71.3304 105.927C71.8174 107.874 72.3045 109.82 72.7915 111.766C72.9539 111.766 73.1162 111.604 73.2786 111.604C72.6292 109.82 73.4409 107.387 71.9798 105.765ZM111.755 31.9674C111.592 31.9674 111.43 31.9674 111.105 32.1296C111.592 33.9137 112.079 35.6979 112.566 37.8064C113.865 35.2113 112.891 33.4271 111.755 31.9674ZM124.742 169.021C124.418 169.021 124.255 169.021 123.931 169.021C124.093 170.48 124.255 171.94 124.255 173.238C124.418 173.238 124.742 173.238 124.905 173.238C124.905 171.778 124.742 170.48 124.742 169.021ZM74.7397 111.604C75.0644 111.604 75.3891 111.604 75.5514 111.604C75.2267 110.145 74.902 108.685 74.5773 107.387C74.415 107.387 74.2526 107.387 74.0903 107.549C74.415 108.847 74.5773 110.307 74.7397 111.604ZM75.8761 411.662C75.7138 411.824 75.5514 411.824 75.2267 411.986C75.5514 412.959 75.8761 413.932 76.3632 414.905C76.5255 414.905 76.6878 414.743 76.8502 414.743C76.5255 413.77 76.2008 412.797 75.8761 411.662ZM63.2131 64.7304C63.0507 64.7304 62.726 64.7304 62.5637 64.7304C62.5637 65.3792 62.726 65.8658 62.726 66.5145C62.8884 66.5145 63.2131 66.5145 63.3754 66.5145C63.3754 65.8658 63.3754 65.3792 63.2131 64.7304ZM74.2526 39.2661C74.0903 39.1039 73.9279 39.1039 73.6033 38.9417C73.4409 39.4283 73.2786 39.7527 73.2786 40.2393C73.4409 40.2393 73.6033 40.4014 73.7656 40.4014C73.9279 40.077 74.0903 39.5905 74.2526 39.2661ZM39.9975 176.806C40.1598 176.806 40.3222 176.806 40.4845 176.806C40.4845 176.481 40.4845 176.157 40.3222 175.833C40.1598 175.833 39.9975 175.833 39.9975 175.833C39.9975 176.157 39.9975 176.481 39.9975 176.806ZM109.969 34.8869C110.131 35.2112 110.131 35.049 109.969 34.8869C110.131 35.049 110.131 35.2112 109.969 34.8869ZM111.105 37.6442L110.943 37.8064H111.105V37.6442Z" fill="#201B20"/>
<path d="M76.1999 246.386C76.3622 256.118 76.0375 265.849 75.7128 275.581C75.3881 275.581 75.0635 275.581 74.7388 275.581C74.5764 274.446 74.4141 273.31 74.4141 272.337C74.5764 266.336 74.7388 260.335 74.9011 254.172C74.9011 252.225 74.9011 250.279 75.0635 248.333C75.0635 247.684 75.2258 246.873 75.3881 246.224C75.7128 246.386 75.8752 246.386 76.1999 246.386Z" fill="#201B20"/>
<path d="M44.8672 272.5C44.3802 270.391 44.2178 267.958 43.2437 266.012C42.432 264.066 40.8085 262.282 39.5098 260.498C44.0555 261.471 46.8154 267.958 44.8672 272.5Z" fill="#201B20"/>
<path d="M45.3543 260.011C43.7308 256.442 42.2697 253.198 40.8086 249.955C43.5685 250.928 46.4907 256.767 45.3543 260.011Z" fill="#201B20"/>
<path d="M81.3962 286.935C82.695 290.989 83.9938 294.558 85.2925 298.45C82.695 297.153 80.4221 290.341 81.3962 286.935Z" fill="#201B20"/>
<path d="M87.7274 290.179C85.7793 289.044 84.8052 287.422 85.1299 284.827C86.2663 286.449 87.2404 288.071 88.3768 289.692C88.0521 289.855 87.8898 290.017 87.7274 290.179Z" fill="#201B20"/>
<path d="M66.2978 42.1852C65.6484 41.6987 64.999 41.2121 64.3496 40.5633C64.512 40.4011 64.6743 40.0767 64.8366 39.9146C65.486 40.4011 66.2978 40.8877 66.9472 41.3743C66.7848 41.6987 66.4601 41.8609 66.2978 42.1852Z" fill="#201B20"/>
<path d="M92.1101 34.4002C91.9477 33.427 91.623 32.6161 91.623 31.8051C91.623 30.8319 91.7854 29.6966 92.2724 29.0478C92.5971 28.5612 94.2206 28.2369 94.5453 28.5612C95.1947 29.21 95.6817 30.3454 95.5194 31.3185C95.357 32.9405 94.0583 34.0758 92.1101 34.4002ZM94.2206 30.1832C94.0583 30.021 93.8959 29.8588 93.7336 29.6966C93.4089 30.021 93.0842 30.3453 92.5971 30.6697C92.7595 30.8319 92.9218 30.9942 93.0842 31.1563C93.4089 30.832 93.8959 30.5076 94.2206 30.1832Z" fill="#201B20"/>
<path d="M82.6953 47.3753C83.3447 46.24 83.9941 45.1046 84.6435 43.9692C84.9682 44.1314 85.1305 44.2936 85.4552 44.4558C84.8058 45.5911 84.1564 46.7265 83.6694 48.0241C83.1824 47.8619 83.02 47.6997 82.6953 47.3753Z" fill="#201B20"/>
<path d="M45.3555 26.1281C48.9271 24.1818 52.3364 22.0733 54.6092 18.1807C54.9339 20.2892 54.6092 21.4245 52.4987 23.3708C50.5506 24.9927 48.4401 26.7769 45.3555 26.1281Z" fill="#201B20"/>
<path d="M58.6675 17.5317C57.3687 20.6134 56.2323 23.6951 54.7712 27.1011C54.1218 26.2902 53.6347 25.6414 53.7971 25.317C55.0959 22.7219 56.3946 20.1268 57.8558 17.5317C57.6934 17.5317 58.0181 17.6939 58.6675 17.5317Z" fill="#201B20"/>
<path d="M42.5957 24.6685C45.0309 22.5599 47.3038 21.749 50.0637 20.938C49.0896 23.0465 45.8426 24.6685 42.5957 24.6685Z" fill="#201B20"/>
<path d="M64.1875 8.125C66.6227 8.61158 68.5709 9.09815 70.8437 9.58473C68.2462 11.3689 65.4863 10.8823 64.1875 8.125Z" fill="#201B20"/>
<path d="M65.8105 85.1666C65.8105 84.5178 65.8105 83.8691 65.8105 83.0581C67.1093 84.1935 67.1093 84.1934 65.8105 85.1666Z" fill="#201B20"/>
<path d="M69.0569 97.1684C69.0569 96.6818 69.0569 96.033 68.8945 95.5464C69.2192 95.5464 69.5439 95.5465 69.7063 95.3843C69.8686 95.8709 69.8686 96.5196 70.031 97.0062C69.8686 97.1684 69.3816 97.1684 69.0569 97.1684Z" fill="#201B20"/>
<path d="M108.02 171.94C108.02 172.264 108.02 172.589 108.02 172.913C108.02 172.913 107.696 172.913 107.371 172.913C107.371 172.589 107.371 172.264 107.371 171.94C107.533 171.94 107.696 171.94 108.02 171.94Z" fill="#201B20"/>
</svg>
