<svg width="251" height="451" viewBox="0 0 251 451" fill="none" xmlns="http://www.w3.org/2000/svg" class="drawing">
<path d="M88.4341 52.6338C88.0948 51.7881 87.9252 50.9424 87.586 50.0966C85.5507 45.5296 86.3988 41.47 88.7733 37.2413C91.3174 33.0126 95.2184 30.4754 99.1193 27.9381C102.681 25.5701 106.412 23.5403 109.974 21.1722C111.501 20.1573 112.688 18.635 113.875 17.2818C116.08 14.7446 118.115 11.8691 120.49 9.50098C123.373 6.62545 126.426 6.28713 130.157 8.31692C130.666 7.64032 131.345 6.96375 132.023 6.11801C134.906 2.22759 138.807 0.536106 143.556 0.197809C144.404 0.197809 145.083 0.197809 145.931 0.197809C153.733 -0.647934 158.142 4.42653 162.213 9.67013C163.57 11.5308 164.079 14.068 164.588 16.4361C166.114 24.0478 168.997 31.152 174.086 37.0722C177.647 41.1317 181.548 45.0221 185.449 48.7434C190.029 53.3104 190.029 60.2455 185.28 64.6434C182.396 67.3498 179.343 69.7178 176.29 72.2551C177.647 73.27 179.343 74.454 181.039 75.638C185.28 78.6827 188.841 82.4039 190.537 87.6475C191.046 89.339 191.555 91.0305 191.725 92.722C192.233 103.209 191.725 113.696 190.029 124.184C188.502 133.148 185.11 141.268 180.361 149.048C177.817 152.939 174.594 155.984 170.524 158.013C167.301 159.536 163.57 159.705 160.008 159.367C157.634 159.028 155.259 158.521 152.885 158.013C151.867 157.844 150.849 157.506 149.323 157.168C149.493 161.058 148.475 164.61 149.493 168.331C150.341 171.376 150.68 174.59 150.849 177.804C151.019 179.495 151.358 180.679 152.376 182.032C155.259 185.585 158.312 189.137 160.856 192.858C167.301 201.823 172.389 211.464 176.46 221.613C179.174 228.379 181.718 235.314 184.262 242.08C184.601 243.095 184.94 244.279 185.619 244.956C187.993 247.831 186.636 250.199 185.11 252.737C184.94 253.075 184.262 253.413 184.262 253.92C183.414 257.303 182.057 260.179 179.174 262.378C178.665 262.716 178.835 264.069 178.835 265.084C178.835 265.592 179.343 265.93 179.513 266.438C182.905 272.696 186.636 278.955 189.011 285.72C192.403 295.362 196.643 304.665 199.696 314.476C204.445 328.684 207.498 343.4 209.703 358.285C211.738 372.832 216.148 386.533 222.423 399.726C223.271 401.587 224.968 403.11 225.985 404.632C227.342 404.801 228.529 405.308 229.547 405.139C233.618 404.632 236.84 406.831 239.893 408.861C240.571 409.368 241.25 410.214 241.419 411.059C242.098 413.766 243.624 415.457 245.829 416.98C247.186 417.995 248.713 419.009 249.73 420.532C250.409 421.547 250.409 423.407 250.069 424.591C249.73 426.114 248.034 426.114 246.677 426.114C241.759 425.945 237.518 423.915 232.939 421.547C231.243 422.392 229.547 422.223 228.19 420.532C227.851 420.193 227.172 419.686 226.664 419.686C223.78 419.855 221.575 418.164 219.031 416.98C217.335 416.134 215.639 415.457 213.943 414.612C211.06 413.258 209.025 410.89 209.025 407.507C209.025 401.925 206.311 397.866 202.58 393.976C199.018 390.254 196.134 385.687 192.912 381.628C191.555 379.767 190.368 377.906 188.841 376.384C182.735 370.126 178.326 362.852 173.577 355.748C168.658 348.475 165.775 340.017 163.061 331.729C160.008 322.256 156.786 312.784 153.563 303.481C152.885 301.62 151.697 300.098 150.51 298.576C148.644 295.869 146.44 293.332 144.404 290.457C142.369 292.656 139.316 292.655 136.433 292.825C135.415 292.825 134.228 293.501 133.21 294.009C131.175 295.193 129.309 296.546 127.104 298.068C127.444 300.267 127.613 302.804 128.122 305.173C130.497 317.182 126.935 327.838 120.659 337.987C114.723 347.46 108.787 356.763 103.02 366.235C101.155 369.28 98.9497 372.324 98.7801 376.046C98.7801 376.722 98.7801 377.399 98.7801 378.245C101.155 378.752 102.851 379.936 104.038 382.135C105.056 383.827 106.921 385.011 107.939 386.702C108.956 388.563 109.805 390.762 110.144 392.791C110.483 394.652 108.617 396.174 106.412 396.005C102.511 395.498 99.1193 393.975 96.5752 391.1C96.236 390.762 96.0664 389.916 95.7272 389.916C92.1654 389.916 91.9958 386.533 90.639 384.503C89.1125 382.304 87.2468 380.105 86.2292 377.568C85.5508 376.046 86.0596 374.016 86.3988 372.155C87.4164 367.25 88.6037 362.345 89.4517 357.27C89.9605 354.226 89.9605 351.012 90.2997 347.967C90.8086 343.738 91.6566 339.51 93.8615 335.619C96.0664 331.729 96.0664 327.5 95.3879 323.441C94.2007 315.829 93.6919 308.217 94.0311 300.436C94.0311 299.76 94.0311 299.083 94.0311 298.407C94.0311 298.237 93.8615 298.068 93.5223 297.73C91.6566 298.576 90.4693 299.929 90.2997 302.297C89.7909 310.924 89.6213 319.55 87.7556 328.177C87.586 329.022 87.586 329.868 87.586 330.883C87.7556 342.554 86.0596 354.226 84.8723 365.897C84.0243 374.185 83.5155 382.642 82.837 390.931C82.4978 395.329 81.4802 399.727 81.141 404.294C80.4625 411.398 79.9537 418.671 79.4449 425.775C79.2753 427.636 80.2929 428.989 81.8194 430.173C85.3811 432.88 88.7733 435.586 92.1654 438.462C94.2007 440.153 94.3703 440.999 93.8615 443.874C90.639 444.889 87.4164 443.874 84.1939 443.367C82.3282 443.028 80.8018 442.183 78.9361 441.506C75.8832 440.491 72.8302 439.138 71.8126 435.755C69.6077 437.277 66.894 436.263 66.5548 433.894C66.2156 432.034 66.046 430.004 65.7067 428.143C64.3499 418.671 62.993 409.03 61.6362 399.557C60.2793 389.578 59.6009 379.429 59.2617 369.28C59.0921 364.374 58.0744 359.3 57.0568 354.395C56.2087 350.335 54.8519 346.445 53.4951 341.878C49.2549 350.673 43.6578 357.609 38.5696 365.051C36.8736 367.588 35.3471 370.126 33.9903 372.832C32.1246 376.215 32.6334 380.105 35.1775 383.15C36.0255 384.165 37.0432 385.18 38.0608 386.026C39.4177 387.379 39.5873 387.717 39.4177 390.254C37.8912 391.607 35.8559 391.607 34.3295 390.593C31.2765 388.732 28.2237 386.702 24.6619 384.334C21.7786 384.503 20.4217 383.319 20.7609 379.429C20.9305 377.061 21.4394 374.862 21.9482 372.494C23.4746 365.389 24.6619 358.116 26.6972 351.181C28.2236 345.768 30.5981 340.694 32.803 335.45C34.4991 331.56 34.3295 327.5 33.8207 323.271C32.9726 323.102 32.2942 322.933 31.4462 322.764C21.1002 321.242 13.9767 315.66 10.2453 305.68C8.71886 301.79 7.87081 297.899 8.21002 293.67C8.71884 284.536 9.05805 275.402 9.73647 266.268C10.2453 258.318 10.5845 250.538 11.7718 242.757C13.9767 228.041 15.8423 213.156 21.9482 199.286C20.2521 196.072 18.5561 193.027 17.0296 189.644C11.9414 178.48 6.85318 167.316 4.13947 155.307C3.12183 150.909 2.78262 146.511 1.76498 142.113C0.068913 133.656 -0.270322 125.199 0.577713 116.572C0.916927 113.02 1.42573 109.468 1.93455 105.916C2.10415 104.901 2.613 104.055 3.12182 103.209C4.30906 101.349 5.49632 99.6571 6.68357 97.7964C9.39728 94.0752 11.9414 90.3539 13.807 86.1252C15.6727 82.2348 18.5561 78.6827 21.1002 75.2997C22.1178 73.9465 22.457 72.7625 21.7786 71.2402C20.9305 69.2104 20.2521 67.1806 19.4041 65.32C19.0649 64.4742 18.2168 63.7976 17.5384 63.2902C12.959 60.4146 10.5845 56.186 9.39729 50.9424C8.04044 44.3456 9.05808 37.9179 11.9414 31.6594C9.05808 29.6297 7.19239 27.0924 5.83554 23.8786C4.13947 20.1573 4.47866 16.4361 6.34434 12.8839C9.22765 7.30204 16.3511 4.08822 22.457 5.27226C27.0364 6.11801 29.9197 9.33184 30.2589 13.8988C30.2589 14.7446 30.4285 15.5903 30.4285 16.0978C33.3118 16.0978 36.0255 15.9286 38.7393 16.0978C45.0147 16.6052 49.0853 20.4956 52.647 25.2318C55.0215 28.4456 56.0391 32.1669 56.2087 36.2264C56.2087 38.9328 56.3784 41.47 56.7176 44.0073C56.8872 45.0221 57.396 46.037 58.244 46.7136C59.7705 48.0668 61.4666 49.2508 62.993 50.604C65.1979 52.4647 65.1979 53.8178 62.993 55.5093C61.297 56.8625 59.2617 57.8774 60.6185 60.9221C69.0989 56.6934 77.9184 51.7881 88.4341 52.6338ZM79.1057 200.131C78.9361 200.3 78.7665 200.47 78.5969 200.639C77.4096 201.315 76.392 202.161 75.2047 202.669C72.1518 204.022 71.1342 206.728 70.9646 209.773C70.795 213.832 76.392 218.568 80.9714 217.892C92.335 216.37 96.0664 209.604 93.1831 199.624C91.8262 195.226 88.2645 193.704 84.3635 195.564C82.6674 196.41 81.4802 198.101 79.9537 199.286C79.4449 199.793 79.2753 199.962 79.1057 200.131ZM92.5047 240.389C93.0135 240.558 93.3527 240.727 93.8615 240.896C97.084 242.249 99.9673 241.742 102.511 239.205C103.868 239.035 104.377 238.19 104.377 237.006C104.547 236.837 104.547 236.498 104.377 236.837C104.377 236.498 104.377 236.667 104.377 237.006C103.699 237.682 103.19 238.528 102.511 239.205C99.6281 240.389 96.9144 241.573 93.6919 240.896C93.3527 240.896 93.0135 240.727 92.5047 240.389C92.1654 240.22 91.6566 240.05 91.3174 239.881C90.2997 238.19 88.6037 236.498 88.2645 234.807C87.4165 230.578 91.487 225.504 95.3879 225.165C102.172 224.658 105.395 227.703 105.056 233.284C105.056 232.777 105.225 232.27 105.225 231.931C106.073 227.364 105.225 225.842 100.985 224.827C100.646 224.658 100.137 224.658 99.7977 224.658C93.5223 222.797 89.9605 224.489 87.586 230.409C85.8899 234.638 87.0772 237.851 91.1478 240.05C91.8262 240.05 92.1654 240.22 92.5047 240.389ZM134.906 195.564C134.737 195.903 134.567 196.241 134.398 196.748C134.398 196.241 134.737 195.903 134.906 195.564C135.076 195.057 135.246 194.719 135.415 194.211C136.263 193.196 136.942 192.181 137.79 191.336C138.468 190.659 139.316 190.152 140.673 189.306C140.843 191.674 140.843 193.196 141.012 194.719C141.86 194.211 142.199 193.704 142.369 193.027C143.387 189.982 144.065 186.769 147.118 184.908C147.457 184.739 147.627 184.231 147.627 183.893C148.814 178.819 149.662 173.575 147.457 168.501C146.44 166.132 144.913 164.103 142.539 163.257C140.673 163.595 139.825 164.61 139.316 166.302C138.638 169.177 136.772 171.207 134.058 172.56C132.532 173.406 130.836 174.59 129.818 175.943C128.122 178.142 126.935 180.679 125.578 183.216C127.274 182.371 128.97 181.525 130.666 180.848C132.871 180.003 134.228 181.187 133.549 183.555C133.21 184.908 132.532 186.092 131.853 187.276C130.497 189.813 128.97 192.35 127.104 195.564C130.497 194.38 131.005 189.813 135.585 190.828C135.585 192.012 135.585 193.196 135.585 194.38C135.246 194.719 135.076 195.057 134.906 195.564ZM128.292 79.5284C128.292 80.205 128.292 80.8816 128.292 82.0657C125.239 81.0508 124.391 82.7423 124.051 84.772C123.543 87.3093 123.034 89.8465 122.695 92.5529C122.525 93.7369 122.355 95.0901 124.391 95.9359C127.104 91.7071 128.292 86.9709 130.327 82.5731C129.649 81.389 128.97 80.5433 128.292 79.5284ZM83.8547 185.415C83.8547 187.445 85.5508 187.783 87.4165 188.968C87.4165 183.216 87.4165 178.142 87.4165 172.56C86.738 172.222 85.7204 171.714 84.8723 171.207C84.3635 174.59 83.8547 177.635 83.5155 180.679C83.3459 182.371 83.6851 183.893 83.8547 185.415ZM19.7433 9.83924C22.7962 13.2222 21.9482 17.6201 22.6266 21.8488C23.1354 20.4956 23.4746 18.9733 23.6443 17.6201C23.8139 16.2669 23.8139 14.7446 23.8139 13.3914C23.9835 13.3914 24.3227 13.3914 24.4923 13.3914C24.6619 14.4063 25.0011 15.5903 25.0011 16.6052C25.1707 17.7892 25.0011 18.8041 25.0011 19.9882C25.1707 19.9882 25.5099 20.1573 25.6795 20.1573C26.1883 19.3116 27.0364 18.635 27.3756 17.7892C29.2413 13.0531 26.0187 7.8095 20.9305 7.13291C19.7433 6.96376 18.3864 6.96376 17.1992 7.13291C13.4678 7.4712 7.36198 11.5307 7.19237 15.252C9.05805 15.4212 11.2629 14.068 13.1286 16.2669C6.85316 16.9435 6.00515 17.451 6.85319 20.4956C8.71886 18.4658 10.9237 17.7893 13.4678 18.9733C14.6551 19.4807 14.9943 20.4956 14.3159 21.8488C11.0933 18.8041 8.71886 19.4807 7.70122 23.8786C10.0757 28.6148 11.0933 29.2913 13.807 28.4456C14.4855 25.2318 14.4855 25.2318 11.9414 24.5552C11.7718 25.0626 11.6021 25.7392 11.2629 26.585C9.73646 25.5701 9.56686 24.7243 10.4149 23.5403C11.4325 22.3562 12.7894 22.5254 16.0119 24.5552C17.0296 24.0477 18.2168 23.7095 19.4041 23.202C20.5913 20.4956 20.7609 18.9733 20.4217 14.2371C20.2521 11.869 19.5737 11.1924 17.1992 11.0233C15.6727 10.8542 14.1463 11.0233 12.7894 11.0233C14.8247 8.99352 17.3688 9.83924 19.7433 9.83924ZM32.803 383.827C29.5805 380.105 29.7501 375.877 31.955 371.817C34.4991 367.25 37.8912 363.021 40.6049 358.623C44.3363 352.365 49.4245 346.952 51.6294 339.848C52.3078 337.649 52.3078 335.788 50.951 334.097C49.2549 332.067 47.5588 330.037 45.3539 328.684C42.6402 326.824 39.4177 326.147 35.5167 326.316C36.3648 333.082 32.803 338.156 30.7677 343.908C29.5805 347.29 28.054 350.673 27.206 354.056C25.8492 359.469 24.8315 364.882 23.8139 370.295C23.4747 371.648 22.9658 373.339 23.4746 374.523C25.1707 378.921 27.8844 382.643 32.803 383.827ZM90.2997 439.307C87.0772 436.77 84.0243 433.894 80.6322 431.526C78.2577 430.004 77.24 427.974 77.4096 425.437C77.5792 422.562 77.9185 419.855 78.0881 416.98C78.5969 412.244 78.9361 407.507 79.4449 402.771C79.9537 398.373 80.8018 393.975 81.141 389.408C81.6498 382.643 81.8194 375.877 82.4978 369.111C83.5155 358.454 85.2116 347.798 85.5508 337.142C85.89 329.699 86.9076 322.426 87.586 315.152C88.0948 311.093 88.0948 306.864 88.4341 302.804C88.2644 302.635 88.0949 302.466 87.9253 302.466C77.0704 311.938 65.7067 320.227 51.1205 322.426C51.2901 323.948 51.4598 325.132 51.6294 326.147C52.9862 332.236 54.0039 338.326 55.8696 344.246C58.7529 353.718 61.6362 363.19 61.1274 373.339C60.7882 379.26 61.6362 385.349 62.3146 391.438C62.6538 395.667 63.5019 399.727 64.1803 403.786C65.1979 410.721 66.2156 417.656 67.2332 424.591C67.4028 425.437 67.9116 426.114 68.4205 426.79C69.6077 428.313 70.9646 429.497 71.9822 431.019C73.8479 433.556 76.0528 435.586 78.9361 436.601C82.4979 437.785 86.3988 438.462 90.2997 439.307ZM138.977 192.689C136.094 195.226 136.094 200.131 131.514 201.484C130.497 198.102 133.041 195.733 133.38 192.689C130.666 194.549 129.14 198.778 124.391 197.256C125.917 191.843 130.327 188.122 131.345 182.54C129.309 183.386 127.613 184.401 125.917 185.415C124.391 186.261 123.034 186.769 121.338 185.246C122.864 181.863 126.426 179.833 127.274 175.943C120.659 176.451 114.384 177.127 108.108 177.296C101.833 177.465 95.3879 176.62 89.2821 173.406C89.1125 179.326 88.9429 184.739 88.9429 189.982C88.9429 190.659 89.2821 191.336 89.7909 191.843C91.8262 194.38 94.0311 196.748 95.7272 199.286C97.9321 202.499 100.476 205.544 101.663 209.265C104.547 218.061 106.921 227.195 109.296 236.16C110.144 239.543 110.653 242.926 111.161 246.478C111.84 251.045 112.179 255.443 112.857 260.01C112.857 260.686 113.197 261.363 113.027 262.04C112.179 265.423 111.67 268.975 110.313 272.189C107.26 279.124 104.208 285.89 99.2889 291.641C99.1193 291.81 99.1193 292.148 99.1193 292.486C100.307 293.501 101.324 292.994 102.172 292.148C103.529 290.795 104.886 290.626 106.752 291.302C107.769 291.641 109.126 291.81 109.805 291.302C111.84 289.949 113.875 290.118 116.08 291.641C118.115 289.442 120.659 288.596 123.543 289.273C123.712 289.273 124.052 289.103 124.391 289.103C126.087 288.596 127.783 288.089 130.327 287.243C131.345 285.89 133.549 285.89 135.924 285.551C138.129 285.213 140.164 283.691 142.369 282.676C142.539 282.676 142.708 282.676 142.878 282.507C145.592 281.153 148.475 279.8 151.189 278.278L151.358 278.109C153.563 275.572 156.107 273.373 159.33 272.189C159.669 272.019 160.008 271.681 160.178 271.512C162.043 269.313 163.909 267.114 165.775 265.084C166.453 264.408 167.301 264.069 168.149 263.562C168.828 263.055 169.676 262.716 170.185 262.04C171.372 260.687 172.22 259.164 173.237 257.811C173.916 257.304 173.746 256.289 174.255 255.95C177.138 253.751 178.835 250.707 181.379 248.339C182.057 247.662 183.244 247.493 184.092 247.155C182.566 242.588 181.209 238.19 179.343 233.961C175.951 225.842 172.559 217.554 168.658 209.773C165.605 203.853 161.874 198.102 158.142 192.689C155.938 189.475 153.054 186.599 150.341 183.555C149.323 185.077 148.984 186.43 147.966 187.107C145.252 188.968 144.913 191.674 144.235 194.211C150.849 201.315 157.803 207.912 162.892 216.2C158.821 213.832 156.786 209.434 153.563 206.221C150.171 202.838 147.118 199.286 144.065 196.072C142.539 196.748 141.521 197.256 139.825 197.932C139.147 195.395 139.147 194.042 138.977 192.689ZM71.1342 312.108C70.6254 311.262 70.2861 310.924 69.9469 310.585C64.6891 303.143 66.894 293.163 75.0351 288.765C79.4449 286.397 84.0243 286.228 88.6037 287.581C90.4693 288.258 92.335 288.934 94.3703 289.611C94.5399 289.611 94.7095 289.442 94.8791 289.442C92.8439 286.566 93.8615 283.691 94.5399 280.646C89.9605 278.785 85.7204 276.417 86.5684 270.666C87.4165 265.084 91.9958 263.562 96.236 263.055C97.7624 259.502 98.7801 255.95 100.815 253.244C102.851 250.538 105.904 248.846 108.617 246.478C107.43 245.632 106.073 245.294 105.395 244.279C104.547 243.433 104.207 242.08 103.699 240.896C103.359 241.065 103.02 241.234 102.681 241.404C97.5929 244.617 91.9958 243.941 87.7556 239.712C83.5155 235.483 84.5331 227.364 89.6213 224.15C92.8438 222.121 96.236 222.121 99.6281 222.797C100.815 223.136 102.003 223.305 103.699 223.643C103.19 221.613 102.681 220.091 102.342 218.399C97.9321 219.583 94.7095 218.23 92.5047 214.678C91.6566 215.355 90.9782 216.031 90.2997 216.539C84.5331 220.767 78.5969 220.937 73.1694 217.215C69.4381 214.678 68.2509 211.803 69.4381 207.405C69.6077 206.897 69.6077 206.39 69.6077 205.544C68.0813 206.221 67.0636 206.897 66.046 207.405C65.0283 212.648 62.6538 213.494 57.2264 210.788C53.6647 211.633 50.1029 212.479 46.3716 213.325C42.4706 220.598 36.3647 223.305 28.2236 221.275C25.5099 226.349 21.1002 226.349 16.1816 225.334C15.8424 227.872 15.3335 230.071 14.9943 232.946C21.4394 227.703 27.8844 227.533 34.3295 231.085C40.2657 234.299 42.1314 240.389 39.2481 246.478C36.5343 252.229 32.4638 256.289 25.8491 257.134C25.8491 264.069 21.2697 266.268 14.9943 267.622C19.9129 270.835 20.9305 275.064 19.2345 279.8C17.708 284.198 15.3335 288.258 10.0757 289.273C10.2453 293.67 9.22766 298.237 11.6022 302.635C12.7894 302.297 13.9767 301.959 15.1639 301.62C15.1639 294.347 18.7256 289.442 24.8315 286.566C30.9373 283.691 37.2128 284.706 43.149 287.581C47.3892 284.536 53.1558 284.706 57.0568 287.75C57.9048 288.427 58.7529 289.442 59.0921 290.457C60.9578 295.869 57.7352 301.282 52.1382 302.466C50.6117 302.804 49.0853 302.974 47.3892 303.143C42.9794 312.784 34.3295 312.953 25.5099 312.784C25.0011 314.476 24.4923 316.167 23.9834 317.859C30.0893 321.242 36.3648 321.072 42.8098 320.903C42.301 311.431 46.202 309.401 52.647 306.695C58.0745 304.327 62.993 306.864 68.4205 313.63C69.0989 313.123 69.9469 312.615 71.1342 312.108ZM84.5331 104.393C84.8723 108.453 85.7204 112.512 85.5508 116.741C85.5508 118.94 85.8899 120.462 87.586 121.816C88.6037 122.492 89.6213 123.338 90.8086 124.014C96.7448 127.567 102.851 130.611 108.448 134.502C116.589 139.914 124.9 144.82 133.719 149.387C142.369 153.785 151.358 156.998 161.195 158.013C166.453 158.521 170.863 156.998 174.594 153.277C179.513 148.71 182.227 142.79 184.601 136.87C175.612 121.816 164.927 120.462 155.938 120.462C154.242 123.169 157.973 125.875 156.277 128.581C154.92 126.721 154.072 124.184 152.206 123.169C148.305 120.801 144.065 118.602 139.825 117.418C128.801 114.542 117.606 112.174 106.412 109.637C98.9497 107.776 91.3174 107.607 84.5331 104.393ZM28.5628 148.203C28.2236 148.372 27.8844 148.372 27.5452 148.541C24.4923 147.188 23.8139 143.636 21.7786 141.268C16.6904 142.621 12.4502 147.188 11.9414 152.262C11.7718 153.615 11.7718 155.138 12.2806 156.322C14.8247 161.904 17.1992 167.316 20.0825 172.56C23.1354 177.973 26.5276 183.216 30.2589 188.291C33.8207 193.027 38.4001 196.917 43.9971 199.286C47.898 200.977 51.799 200.977 54.8519 197.594C57.2264 194.888 59.9401 192.35 61.297 189.137C64.3499 182.709 66.7244 176.112 69.2685 169.515C70.6254 165.963 71.3038 162.242 72.6606 158.69C75.3743 151.417 78.4273 144.312 81.3106 137.039C82.1586 134.84 83.3459 132.472 83.5155 130.104C83.8547 125.875 83.6851 121.646 83.6851 117.418C79.9537 116.064 76.5616 114.711 72.9999 113.358C72.8303 114.204 72.6606 114.88 72.491 115.388C71.9822 120.462 70.6254 125.199 68.4205 129.596C65.3675 135.855 62.3146 142.282 59.4313 148.541C56.8872 154.123 54.1735 159.705 51.799 165.287C50.2725 168.839 49.0853 172.391 47.7284 175.943C47.5588 176.451 47.2196 177.127 47.05 177.635C46.8804 177.635 46.5412 177.635 46.3716 177.635C45.0147 173.744 43.3187 169.854 42.301 165.963C41.1138 161.565 39.9265 157.337 37.3824 153.615C35.5167 151.078 33.3119 148.541 31.4462 146.004C30.4285 144.651 29.7501 143.128 28.7325 141.606C28.9021 144.312 28.7325 146.342 28.5628 148.203ZM141.012 154.461C121.338 145.665 104.207 133.318 85.8899 122.83C85.8899 123.676 85.7204 124.522 85.7204 125.199C85.7204 129.596 85.89 133.994 85.7204 138.392C85.3812 147.695 85.0419 156.998 84.5331 166.302C84.3635 168.162 85.0419 169.515 87.2468 169.854C88.6037 164.272 88.2645 158.521 89.6213 152.939C89.9605 152.939 90.2998 152.939 90.639 153.108C90.1302 159.197 89.6213 165.118 89.2821 171.038C98.9497 177.296 117.267 175.436 128.801 172.898C129.818 167.317 130.836 161.735 131.853 155.984C132.193 155.984 132.532 156.153 133.041 156.153C132.362 161.227 131.684 166.302 130.836 171.714C134.737 170.53 137.281 168.67 138.299 165.118C139.147 161.904 139.995 158.352 141.012 154.461ZM155.598 117.756C158.821 118.263 161.704 118.771 164.588 119.109C171.372 119.955 176.63 123.169 181.039 128.243C182.566 130.104 184.092 131.964 185.788 134.163C186.636 129.935 187.654 126.213 188.163 122.492C189.689 112.851 190.198 103.04 189.689 93.3986C189.52 91.538 189.181 89.5082 188.502 87.8167C185.619 80.7125 179.852 76.6529 173.407 73.4391C172.729 73.1008 171.881 73.1008 171.202 73.2699C168.828 73.7774 166.453 74.2848 164.927 74.6231C162.383 77.6678 160.517 80.7125 157.973 82.7422C155.259 84.9412 152.037 86.2944 148.305 88.3242C148.475 91.1997 148.814 94.7518 149.153 98.1348C149.153 98.6422 149.153 99.3188 148.984 99.8263C147.457 103.717 144.744 106.761 141.691 109.468C140.673 110.483 139.316 111.328 138.299 112.343C138.299 112.512 138.468 112.512 138.468 112.682C137.45 112.851 136.263 113.02 134.906 113.358C141.351 116.065 147.288 118.433 153.733 121.139C153.902 107.607 153.563 94.2443 161.874 82.7422C156.616 93.906 154.75 105.746 155.598 117.756ZM57.5656 63.4593C57.396 60.9221 57.396 58.7231 57.2264 57.2008C59.0921 55.6785 60.6185 54.6636 62.3146 53.3104C60.2793 51.6189 58.5833 49.9275 56.7176 48.5743C55.0215 47.3902 54.3431 45.8679 54.5127 43.8381C54.5127 43.1615 54.5127 42.4849 54.3431 41.6392C53.4951 41.1317 52.647 40.4551 51.6294 39.9477C50.1029 40.6243 48.5764 41.3009 47.05 41.8083C45.6931 42.3158 44.6755 44.1764 42.6402 43.1615C44.3363 39.6094 49.0853 37.5796 53.6646 38.2562C53.6646 37.2413 53.6646 36.0573 53.6646 34.8732C51.2901 35.0424 49.2549 35.3807 47.3892 35.5498C47.3892 35.2115 47.3892 35.0424 47.2196 34.7041C49.2549 34.1966 51.1206 33.8584 53.1558 33.3509C53.1558 33.1818 53.1558 33.1818 53.1558 33.0126C52.3078 33.0126 51.2902 32.8434 50.4421 32.8434C50.4421 32.6743 50.4421 32.5052 50.2725 32.336C51.2901 31.9977 52.3078 31.4902 53.4951 30.9828C53.3255 30.3062 53.1558 29.7988 52.8166 29.2913C52.647 29.1222 52.4774 28.953 51.9686 28.6147C47.2196 34.5349 40.4353 35.8881 33.4814 36.3956C33.4814 37.5796 33.6511 38.4254 33.6511 39.2711C33.4814 43.8381 33.4815 48.4051 33.1423 52.9721C32.9726 54.8327 32.4638 56.8625 30.2589 58.2157C28.3932 56.5242 26.5275 54.8327 24.8315 53.1413C23.4746 51.7881 21.7786 51.4498 20.7609 52.4647C19.5737 53.4796 19.5737 55.3402 20.7609 56.6934C21.2697 57.37 22.1178 57.7083 22.7962 58.2157C23.305 58.554 23.9835 58.7232 25.1707 59.2306C24.1531 61.7678 23.1354 63.9668 22.1178 66.1657C25.1707 76.3146 28.2237 86.4635 31.4462 96.7816C35.856 97.6273 40.2657 98.6422 44.8451 99.4879C47.5588 91.538 47.5588 83.588 48.7461 75.8071C46.0323 76.4837 45.5235 79.6976 42.9794 79.8668C42.8098 79.6976 42.6402 79.3593 42.4706 79.1901C43.9971 77.4986 45.6931 75.8072 47.3892 73.9466C44.5059 73.27 41.7922 74.2848 39.2481 72.7625C40.4353 72.0859 41.6226 71.9167 42.8098 71.7476C46.7108 71.4093 50.6118 71.2402 54.3431 70.5636C57.7352 70.0561 58.4137 68.7029 57.5656 65.1508C56.2088 64.3051 54.0039 65.4891 52.9862 62.7827C54.3431 63.121 55.8696 63.2902 57.5656 63.4593ZM67.742 59.3998C74.5263 71.2402 74.8655 76.9912 69.9469 88.155C72.1518 89.6774 74.5263 91.1997 76.7312 92.722C78.4273 91.8763 79.9537 91.1997 81.4802 90.5231C81.6498 90.8614 81.8194 91.0305 81.989 91.3688C80.9714 92.2146 79.9537 93.0603 78.7665 94.0752C81.8194 97.7965 83.3459 102.871 88.6037 104.393C93.1831 105.746 97.9321 106.592 102.511 106.931C102.172 104.393 102.003 102.025 101.833 99.8263C101.663 97.6273 101.663 95.4284 101.494 93.2295C101.494 92.5529 101.663 91.7071 101.833 91.0305C102.003 90.3539 102.342 89.8465 102.511 89.1699C102.851 87.6476 103.19 85.9561 103.699 84.4337C104.207 82.7422 104.716 81.0508 105.225 79.5284C101.155 73.6082 100.137 67.1806 101.155 60.5838C98.1016 58.8923 95.2184 57.37 92.335 55.8476C91.6566 55.5093 90.8085 55.3402 90.1301 55.0019C81.8194 52.803 74.8655 56.3551 67.742 59.3998ZM27.3756 139.914C27.7148 139.745 28.054 139.745 28.3932 139.576C32.6334 142.113 33.4815 147.695 37.2128 150.74C38.0608 146.85 34.3295 143.805 35.1775 139.745C40.4353 140.76 42.301 146.511 47.7284 147.526C47.2196 146.68 46.8804 146.173 46.5412 145.665C44.5059 142.959 42.4706 140.422 40.4353 137.716C39.7569 136.701 38.7393 135.686 39.9265 134.163C41.6226 135.517 42.9794 137.039 44.6755 138.054C46.3716 139.238 47.898 140.76 50.4421 140.591C48.4068 138.054 46.7108 135.855 44.8451 133.487C43.149 131.288 40.7746 129.596 39.9265 126.044C43.6579 127.059 46.202 129.935 49.7637 129.258C47.7284 126.383 46.0324 123.676 43.9971 121.139C42.301 118.771 40.4353 116.572 37.7216 115.219C35.1775 114.035 32.803 112.174 30.7677 110.821C31.7854 97.9656 27.206 87.1401 23.305 75.8071C22.9658 75.9763 22.6266 75.9763 22.6266 76.1455C12.6198 87.1401 9.73646 99.9954 15.5031 114.035C17.0296 117.756 18.2168 121.308 18.2168 125.199C18.2168 126.044 18.3864 126.721 18.3864 127.567C18.556 132.81 21.9482 136.531 24.3227 140.76C25.1707 142.283 26.1884 143.805 27.206 145.496C27.3756 145.327 27.5452 145.327 27.7148 145.158C27.3756 143.636 27.3756 141.775 27.3756 139.914ZM133.041 14.2371C133.041 14.4063 133.041 14.4063 133.041 14.5754C132.023 14.5754 131.005 14.7446 130.157 14.5754C127.104 13.8988 125.748 15.7595 124.221 17.7892C121.677 21.3414 120.151 25.4009 119.303 29.7988C117.098 41.6392 121.677 49.0817 130.836 54.4945C133.041 55.6785 136.094 56.0168 138.638 55.6785C141.351 55.5093 144.065 54.1562 146.609 53.1413C149.493 51.9572 152.376 50.6041 153.563 47.7285C154.92 44.1764 156.107 40.4551 156.786 36.5647C157.803 31.3211 157.803 25.9084 156.107 20.6648C155.598 18.8042 154.75 17.451 152.715 17.1127C146.1 16.0978 139.486 15.0829 133.041 14.2371ZM50.7814 26.4158C46.8804 20.1573 41.1138 17.4509 33.9903 17.6201C32.2942 17.6201 30.2589 18.2967 29.2413 19.4807C26.8668 22.3563 23.8138 23.8786 20.5913 25.2318C19.7433 25.5701 18.7256 26.0775 18.0472 26.585C12.6198 31.9977 10.0757 38.5945 10.4149 46.3753C10.9237 53.8179 13.9767 59.7381 21.1002 63.4593C21.609 62.4444 22.1178 61.4296 22.7962 60.4147C18.2168 57.8774 17.708 56.8625 18.0472 52.1264C17.0296 51.6189 15.1639 52.803 14.8247 50.604C18.8952 49.42 22.7962 48.2359 26.6972 47.0519C26.8668 47.2211 26.8668 47.5594 27.0364 47.7285C26.0188 48.5743 24.8315 49.2509 23.6443 50.2658C25.8491 52.2956 27.8844 54.3253 30.2589 56.6934C32.2942 49.7583 32.1246 43.4998 31.4462 36.903C29.5805 36.3956 28.2236 35.719 28.3932 33.52C34.3295 35.8881 48.2373 33.1818 50.7814 26.4158ZM202.24 370.126C202.41 370.126 202.58 369.956 202.749 369.956C202.749 369.618 202.749 369.28 202.749 368.941C201.053 361.499 199.527 353.887 197.661 346.445C196.134 339.848 194.269 333.251 192.742 326.654C191.216 320.227 190.198 313.63 187.993 307.371C183.923 295.024 176.799 284.367 170.185 273.203C168.828 274.726 167.301 276.248 165.944 277.77C168.489 283.014 170.693 288.427 173.746 293.332C178.156 300.267 180.7 308.048 184.092 315.491C186.976 321.918 189.011 328.515 190.707 335.45C192.573 343.062 194.608 350.673 196.982 358.285C198.509 362.345 200.544 366.235 202.24 370.126ZM103.529 59.9072C103.19 61.0912 102.681 61.937 102.681 62.7827C102.342 69.2104 103.359 75.2997 108.448 80.0359C113.706 84.9412 123.373 83.588 126.765 77.4986C127.783 75.638 128.122 73.1008 128.631 71.071C122.016 69.0412 121.168 68.5338 117.946 61.7678C113.197 61.2604 108.448 60.5838 103.529 59.9072ZM184.262 249.015C182.227 249.184 180.87 249.692 180.191 251.552C179.683 252.737 178.495 253.582 177.647 254.428C176.969 255.105 175.612 255.612 175.612 256.289C175.442 258.318 174.425 259.502 172.729 260.179C172.22 260.348 172.22 261.194 171.881 261.532C170.863 262.547 170.015 263.9 168.828 264.408C167.132 265.253 166.284 266.268 165.436 267.791C164.927 268.806 163.909 269.482 163.231 270.159C162.891 270.497 162.383 271.005 161.874 271.343C160.856 272.189 159.839 273.034 158.821 273.711C158.312 274.049 157.634 274.387 157.125 274.895C155.259 276.586 153.394 278.109 151.528 279.8C151.019 280.139 150.341 280.308 149.662 280.646C146.27 281.999 143.387 284.536 139.486 285.044C139.316 285.044 138.977 285.382 138.807 285.551C137.62 286.904 136.263 287.243 134.567 287.243C133.549 287.243 132.362 287.412 131.514 288.089C130.157 289.273 128.631 289.273 126.935 289.611C124.391 290.287 121.847 290.964 119.133 290.795C118.963 290.795 118.794 290.964 118.624 290.964C116.589 292.994 114.214 293.332 112.009 291.641C108.448 293.332 108.448 293.332 103.699 292.148C102.003 294.178 99.7977 294.685 97.2536 293.84C96.9144 293.67 96.236 294.347 95.3879 294.854C98.2713 296.884 100.646 296.546 103.19 295.7C104.716 295.193 106.412 294.685 107.939 295.193C111.331 296.208 114.384 296.038 117.606 294.854C119.303 294.178 121.677 293.67 123.203 294.347C126.256 295.7 128.292 294.516 130.327 292.825C132.193 291.133 134.228 290.287 136.772 290.457C139.316 290.626 141.351 289.78 142.878 287.75C144.574 285.72 146.779 284.706 149.493 284.536C152.206 284.198 154.581 283.014 155.938 280.477C156.955 278.447 158.651 277.263 160.856 276.756C164.418 275.91 166.962 274.049 168.489 270.666C168.997 269.482 170.354 268.636 171.711 267.96C173.237 267.114 174.594 266.268 175.103 264.577C175.782 261.871 177.817 260.179 179.343 258.149C181.887 255.781 182.905 252.229 184.262 249.015ZM161.704 74.6231C155.429 73.9465 149.832 72.255 146.948 65.8274C142.199 70.2253 136.433 70.7327 130.666 70.9019C127.613 77.4986 131.175 82.4039 136.772 85.1103C143.726 88.3241 150.171 85.7869 156.107 81.8965C158.821 80.3742 160.856 78.0061 161.704 74.6231ZM32.1246 286.904C21.9482 286.904 15.3335 295.024 17.5384 304.496C18.0472 306.526 19.0649 307.879 20.9305 308.894C25.6795 311.6 30.5981 311.431 35.6864 310.416C40.605 309.401 43.8275 306.526 45.6931 301.959C47.7284 297.053 46.3716 292.656 41.9618 289.611C39.0785 287.412 35.6863 286.904 32.1246 286.904ZM72.3214 97.4582C71.4734 96.2741 70.795 95.5975 70.2861 94.921C68.5901 92.0454 66.894 89.1699 65.0283 86.4635C63.6715 84.4337 61.8058 82.7422 59.2617 81.8965C60.9578 85.4486 62.993 88.6625 64.8587 92.2146C66.7244 95.5975 68.5901 98.9805 69.0989 102.871C65.1979 101.349 65.3675 96.4433 61.6362 94.4135C61.6362 94.9209 61.6362 95.2592 61.8058 95.4284C62.8234 97.7965 64.0107 99.9954 64.6891 102.533C65.7067 106.761 68.4204 109.299 72.3214 110.99C75.8831 112.512 79.2753 114.711 83.3458 115.05C83.8547 106.085 80.9714 95.4284 70.1165 90.8614C70.9646 92.8912 72.8302 94.4135 72.3214 97.4582ZM67.9117 86.971C74.0175 80.8816 71.643 63.6285 64.8587 60.7529C63.1626 61.7678 61.297 62.9519 59.4313 64.1359C59.4313 64.9817 59.2617 65.6583 59.2617 66.3349C59.0921 70.0561 58.244 71.2402 54.6823 72.2551C53.3254 72.5934 52.1382 73.1008 50.7814 73.6082C56.3784 78.6827 64.0107 80.3742 67.9117 86.971ZM144.065 55.8476C136.602 59.5689 130.327 57.0317 124.56 52.6338C123.373 54.8328 122.186 57.0317 120.829 59.0615C119.642 60.9221 119.642 62.6136 120.829 64.4742C122.695 67.3498 125.239 68.8721 128.631 69.0412C134.058 69.2104 139.316 69.3795 144.065 65.9966C145.422 65.1508 146.44 64.1359 145.931 62.4444C145.422 60.4146 144.744 58.3849 144.065 55.8476ZM96.236 366.743C96.4056 366.912 96.5752 366.912 96.9144 367.081C97.5928 366.404 98.2713 365.728 98.7801 365.051C100.815 362.006 102.851 359.131 104.547 355.917C109.805 346.276 115.062 336.803 120.151 327.162C121.677 324.286 123.373 321.242 123.034 317.859C122.695 312.277 122.186 306.864 121.677 301.282C121.507 299.591 120.829 298.068 120.32 296.208C118.624 296.884 117.437 297.392 115.91 298.068C116.589 300.775 117.098 303.143 117.606 305.68C119.133 312.277 119.133 318.874 116.589 325.132C115.571 327.5 114.554 330.037 113.366 332.405C108.448 342.385 103.359 352.196 98.4409 362.176C97.5929 363.529 96.9144 365.051 96.236 366.743ZM12.6198 252.229C22.2874 259.333 36.1951 254.259 38.4 242.926C38.7392 241.234 38.2304 239.035 37.552 237.344C36.0255 233.792 32.803 232.27 29.5805 231.085C22.457 228.379 14.4855 232.946 13.4678 240.389C12.959 244.279 12.959 248.169 12.6198 252.229ZM83.6851 188.46C82.1586 190.152 80.9714 192.181 79.2753 193.534C76.9008 195.226 74.0175 196.41 71.643 198.102C65.8763 202.161 59.7705 205.037 52.8166 206.39C47.898 207.405 42.9794 208.42 38.0608 207.405C32.6334 206.39 27.3756 204.867 23.305 200.47C22.9658 200.977 22.7962 201.315 22.6266 201.654C22.457 202.161 22.2874 202.499 22.2874 203.176C26.3579 208.927 32.4638 210.788 38.7393 211.464C44.8451 212.141 50.951 211.464 56.8872 209.265C60.1097 208.081 63.1626 206.728 66.3852 205.544C73.1694 203.007 78.5969 198.778 83.3458 193.534C83.8547 193.027 84.3635 192.35 84.7027 191.674C85.5508 190.152 85.2115 189.306 83.6851 188.46ZM125.748 111.667C126.765 109.637 128.292 108.96 130.327 108.791C132.023 108.622 133.38 107.1 135.246 106.085C136.433 105.07 137.79 103.717 139.147 102.533C139.825 100.841 140.334 98.9805 140.843 97.289C140.673 95.7667 141.182 94.2443 141.182 92.722C141.182 91.1997 140.843 89.5082 140.503 87.9859C140.503 87.8167 139.486 87.6476 138.638 87.4784C138.129 89.0008 137.79 90.5231 137.281 92.0454C136.263 94.7518 137.111 97.6273 135.246 100.334C134.058 102.025 133.041 103.378 131.005 103.548C129.309 106.931 125.917 107.945 123.034 108.115C120.151 108.284 117.098 106.254 114.723 105.408C113.875 103.209 113.197 101.856 112.688 100.334C112.179 98.6422 111.331 96.7816 111.84 95.2592C112.349 93.0603 111.84 90.8614 112.349 88.6624C112.688 87.4784 112.857 86.2944 113.197 85.1103C113.197 84.772 113.366 84.6029 113.536 84.0955C112.688 83.9263 111.84 83.7571 110.653 83.588C110.483 84.6029 110.144 85.6178 110.144 86.4635C109.974 88.155 109.974 89.8465 109.974 91.7071H109.805C109.805 94.921 109.805 97.9656 109.805 100.672C110.483 102.194 110.653 103.378 111.331 104.393C112.349 106.085 113.366 108.284 114.893 108.96C118.115 110.483 122.016 110.99 125.748 111.667ZM160.856 48.4051C160.687 48.236 160.517 48.0668 160.347 47.8977C159.839 48.0668 159.16 48.236 158.821 48.5743C157.294 50.9424 155.429 53.3104 154.411 56.0168C153.224 59.0615 154.92 61.4296 158.142 61.937C165.605 62.9519 172.729 61.5987 179.683 59.5689C181.379 59.0615 182.227 57.7083 182.227 55.6785C179.513 54.4944 176.799 54.4944 174.086 54.8327C170.354 55.171 166.792 55.6785 163.061 56.0168C159.669 56.3551 158.143 53.987 159.499 50.9424C160.008 49.9275 160.347 49.2509 160.856 48.4051ZM79.9537 306.357C78.2576 302.974 76.5616 300.098 75.2047 297.053C74.5263 295.531 75.0351 294.178 76.5616 293.163C78.4272 291.979 80.4625 291.641 82.837 291.302C86.9076 290.626 89.9605 292.994 93.6919 294.178C94.0311 293.67 94.3703 293.163 95.2183 292.148C91.8262 290.964 88.7733 289.611 85.5508 288.934C80.8018 287.919 76.5616 289.442 72.8303 292.656C68.0813 296.884 67.4028 307.202 73.1694 310.924C74.0175 310.416 75.0351 309.909 76.0528 309.232C77.5792 308.048 78.9361 307.033 79.9537 306.357ZM239.893 419.686C240.232 417.825 240.571 416.641 240.911 415.288C240.571 414.781 240.063 414.442 240.063 413.935C240.063 409.875 236.331 408.86 233.957 407.846C231.243 406.492 227.512 407 223.95 406.831C224.289 410.721 224.459 414.104 224.628 416.98C226.833 417.995 228.699 418.84 230.734 419.855C233.618 419.686 236.84 419.686 239.893 419.686ZM107.26 51.2806C108.448 49.5891 107.769 48.5743 106.582 47.5594C104.547 46.037 103.699 43.6689 104.377 41.3009C104.716 39.6094 105.734 38.0871 106.752 36.7339C108.108 34.8733 109.805 33.1818 111.331 31.4903C107.769 32.8435 104.716 34.7041 101.663 36.5647C99.4585 37.9179 97.5929 39.4402 96.5752 41.9775C95.2184 45.1913 96.236 47.8977 99.2889 49.5891C101.663 51.1115 104.377 51.7881 107.26 51.2806ZM136.094 86.971C135.754 86.971 135.246 86.8018 134.906 86.8018C134.567 88.155 133.719 89.5082 133.889 90.8614C134.058 94.0752 131.345 96.105 130.497 98.8113L130.327 98.9805C129.14 99.8263 128.122 100.672 127.104 101.518C125.578 102.025 124.221 102.702 122.864 103.209C122.186 103.378 121.338 103.209 120.659 102.871C119.472 102.194 118.455 101.179 117.098 99.9954C117.606 96.2741 114.214 92.0454 117.606 88.155C117.267 87.1401 116.758 85.9561 116.25 84.4337C115.232 85.7869 114.384 86.8018 113.706 87.6475C113.875 87.6475 114.045 87.6476 114.214 87.8167C114.045 90.8614 113.875 93.9061 113.706 97.289C114.893 99.8263 115.402 103.717 118.624 105.408C120.151 105.916 121.677 106.254 122.864 106.761C124.56 106.085 126.087 105.408 127.613 104.732L127.444 104.562C129.14 103.547 130.666 102.363 132.532 101.349C133.21 100.165 133.889 98.6422 134.567 97.289H134.398C135.076 93.5678 135.585 90.1848 136.094 86.971ZM108.956 269.651C105.904 269.821 104.547 267.622 103.699 265.93C102.851 264.069 103.02 261.532 102.851 259.164C102.851 258.995 103.02 258.657 103.19 258.657C105.395 257.811 106.412 254.597 109.805 255.95C109.635 253.582 109.465 251.552 109.296 249.354C102.511 252.06 98.6105 257.98 99.2889 264.408C99.7978 269.144 102.851 272.696 107.43 273.542C107.769 272.358 108.278 271.174 108.956 269.651ZM136.602 110.99C137.959 109.975 138.977 109.129 139.995 108.284C141.182 107.269 142.539 106.423 143.556 105.07C145.083 103.04 146.1 100.672 146.948 99.4879C146.779 95.0901 146.609 91.8763 146.44 88.155C145.592 88.155 144.574 88.3242 143.556 88.3242C143.217 90.6923 143.047 93.0603 142.878 95.2592C143.047 96.4433 143.217 97.6273 142.878 98.8113C142.539 100.165 142.03 101.518 141.521 102.702C141.351 103.378 141.012 104.224 140.503 104.393C138.977 105.07 137.79 106.085 136.942 107.607C136.772 108.115 136.094 108.284 135.415 108.453C133.21 109.299 130.836 109.975 128.461 110.821C128.292 110.821 128.292 111.328 127.952 111.836C129.649 112.174 131.175 112.682 132.023 112.851C133.889 112.005 135.415 111.498 136.602 110.99ZM97.084 227.026C91.9958 226.518 90.2998 230.578 89.7909 233.623C89.4517 236.329 92.5046 239.035 95.7272 239.205C100.137 239.374 102.851 236.837 103.02 232.27C103.19 228.717 101.494 227.195 97.084 227.026ZM132.023 83.9263C131.345 85.4486 130.666 86.4635 130.327 87.6475C129.309 90.1848 128.292 92.722 127.274 95.2592C126.596 96.7816 125.408 98.1348 123.373 97.6273C121.507 97.1199 121.168 95.5975 121.338 93.9061C121.677 90.6922 122.016 87.6476 122.355 84.0955C121.168 84.4338 119.981 84.772 118.285 85.2795C120.659 87.6476 119.642 89.5082 118.454 90.6922C118.794 93.7369 119.133 96.2741 119.472 98.6422C120.659 99.4879 121.677 100.334 122.695 101.01C123.882 100.672 125.239 100.165 126.256 99.8263C127.444 98.8114 128.631 97.9656 129.649 97.289C130.666 95.2592 131.514 93.5678 132.532 91.7071C130.327 89.3391 134.398 86.971 132.023 83.9263ZM108.617 89.0008C108.448 88.8316 108.278 88.8316 108.108 88.6624C108.278 86.8018 108.448 84.772 108.787 82.7422C108.278 82.4039 107.6 81.8965 106.412 81.0508C105.904 83.4188 105.395 85.4487 104.886 87.4784C104.716 87.4784 104.716 87.4784 104.547 87.4784C104.207 89.0008 103.868 90.6922 103.699 92.2146C103.868 94.4135 104.716 96.7816 104.208 98.8113C103.359 102.025 104.716 104.562 105.225 107.438C106.921 107.776 108.448 108.115 109.974 108.453C109.465 106.93 108.957 105.746 108.278 104.055C106.752 103.548 106.582 102.194 107.091 100.165C107.6 98.1348 107.769 95.9358 107.26 93.9061C107.091 91.8763 107.6 90.5231 108.617 89.0008ZM62.4842 316.844C62.3146 314.307 61.8058 313.123 60.1097 311.939C57.0568 309.909 54.1735 311.093 51.2902 312.277C48.9157 313.292 47.7284 315.152 47.3892 317.689C47.2196 318.535 47.3892 319.55 47.5588 320.734C48.9157 320.396 49.7637 320.227 50.6117 319.719C51.4598 319.212 52.1382 318.535 52.9862 317.859C53.3254 317.182 53.495 316.167 53.8343 315.491C55.3607 315.491 56.548 315.491 57.7352 315.491C59.2617 317.859 59.7705 318.028 62.4842 316.844ZM24.6619 208.42C21.7786 212.648 25.3403 217.384 28.5628 219.245C33.8207 221.951 41.6226 219.414 43.9971 213.325C43.6579 213.156 43.4883 213.156 43.3187 212.987C40.2657 212.31 38.4001 214.509 36.5344 216.2C34.4991 218.061 32.1246 218.399 29.5805 218.399C29.0717 216.877 28.3932 215.693 28.2236 214.34C27.8844 212.987 27.8844 211.464 27.7148 209.773C26.6972 209.434 25.6795 208.927 24.6619 208.42ZM50.951 105.577C51.9686 105.577 52.8166 105.746 53.6646 105.746C55.0215 105.746 56.2088 105.746 56.548 104.055C56.8872 102.533 56.2088 101.518 54.6823 100.841C48.9157 98.1348 42.9794 101.856 42.8098 108.284C42.8098 110.483 43.8275 112.005 45.6931 112.343C47.898 112.682 49.7637 111.667 50.2725 109.299C50.7813 108.115 50.7814 107.1 50.951 105.577ZM103.529 384.672C103.02 383.827 102.172 382.642 101.324 381.628C100.985 381.12 100.476 380.782 99.9673 380.613C98.2713 380.274 96.4056 379.936 94.2007 379.598C94.0311 382.135 94.0311 384.503 93.8615 387.548C96.7448 387.04 97.5928 389.239 98.7801 390.762C100.476 390.423 102.003 390.254 103.19 390.085C103.19 388.224 103.359 386.702 103.529 384.672ZM155.259 14.2371C153.054 8.65521 149.323 5.61056 145.931 6.11801C141.691 6.7946 138.638 9.67013 138.468 13.0531C139.655 13.2223 140.673 13.3914 141.86 13.5605C145.252 9.16267 146.609 9.33181 155.259 14.2371ZM64.6891 315.66C66.7244 314.983 65.7068 313.799 65.1979 313.122C62.9931 310.247 60.4489 307.879 56.548 308.048C52.8166 308.217 49.5941 309.57 46.7108 312.108C44.1667 314.476 43.4883 318.197 44.8451 320.396C45.6931 318.197 46.202 315.321 47.5588 313.122C49.0853 310.585 52.1382 310.078 55.0215 309.57C60.1097 308.725 62.4842 310.416 64.6891 315.66ZM54.1735 78.1753C53.8343 78.3444 53.4951 78.5136 53.1558 78.8518C55.1911 82.5731 57.2264 86.2944 59.2617 89.8465C60.4489 91.8763 60.4489 91.8763 63.5019 92.3837C59.4313 88.155 58.7529 81.7274 54.1735 78.1753ZM11.2629 268.975C12.2806 269.82 13.1286 270.328 13.807 270.835C16.6903 272.696 17.5384 275.572 16.86 278.785C16.3512 281.661 14.4855 283.691 12.111 285.213C11.4325 285.72 10.7541 286.228 10.0757 286.735C10.7541 287.243 11.0933 287.243 11.4325 287.243C15.3335 285.72 19.0649 278.785 18.2168 274.557C17.8776 271.343 14.9943 268.975 11.2629 268.975ZM11.4325 271.174C10.2453 274.218 12.959 275.741 13.1286 277.77C13.807 280.308 9.56688 280.815 10.7541 284.029C13.6374 282.338 15.3335 280.139 15.5031 276.925C15.6727 274.049 13.9766 272.527 11.4325 271.174ZM97.2536 289.949C97.5928 289.611 97.7624 289.442 97.7624 289.273C97.7624 288.765 97.5929 288.089 97.4232 287.581C96.236 282.168 98.7801 278.278 104.208 277.263C104.886 277.094 105.395 276.586 106.243 276.079C102.851 274.726 99.7978 275.741 97.5929 278.616C95.0488 281.999 94.8791 286.228 97.2536 289.949ZM76.7312 297.053C79.4449 296.884 80.1233 293.501 83.5155 294.347C86.0596 295.024 88.2645 295.193 89.7909 297.73C91.1478 297.053 92.1654 296.546 91.3174 294.854C89.7909 294.178 88.2644 293.501 86.738 293.163C85.0419 292.825 83.3458 292.656 81.6498 292.994C80.1233 293.332 78.5969 294.178 77.24 295.024C76.7312 295.024 76.9008 296.208 76.7312 297.053ZM104.377 279.293C99.9674 279.462 98.1017 282.845 99.9673 287.581C101.324 284.706 102.681 282.168 104.377 279.293ZM107.6 257.473C106.412 258.318 105.395 259.164 104.208 260.179C104.547 260.856 105.056 261.532 105.395 262.209C106.243 261.532 106.921 261.025 107.769 260.517C108.617 261.025 109.296 261.532 110.313 262.209C110.313 260.517 110.313 259.333 110.313 258.149C109.126 257.98 108.278 257.811 107.6 257.473ZM77.9185 299.421C78.5969 301.451 80.2929 300.605 80.8017 299.929C82.6674 297.73 85.0419 297.899 87.9253 298.407C85.89 295.869 83.5155 296.546 81.6498 296.208C80.2929 297.222 79.2753 298.237 77.9185 299.421ZM86.2292 301.113C83.1763 299.083 82.3282 301.79 80.6322 302.804C81.6498 302.804 82.6674 302.974 83.8547 302.974C84.5331 302.466 85.3811 301.79 86.2292 301.113ZM108.278 263.224C106.921 263.9 106.073 264.408 105.056 264.746C105.056 264.915 105.056 265.084 105.056 265.423C106.582 265.761 107.939 265.93 110.144 266.268C109.296 265.084 108.787 264.239 108.278 263.224ZM35.0079 215.186C34.3295 214.678 33.6511 214.171 33.1423 213.663C31.955 214.001 31.2765 214.171 29.9197 214.509C31.7854 215.524 32.9726 217.384 35.0079 215.186ZM23.305 207.574C22.457 206.559 21.9482 205.882 21.1002 205.037C20.9305 206.39 20.7609 207.066 20.4217 208.081C21.4394 207.743 22.1178 207.743 23.305 207.574ZM87.2468 191.505C87.0772 191.674 86.738 191.674 86.5684 191.843C86.3988 192.35 86.3988 192.858 86.0596 193.534C86.9076 193.365 87.586 193.365 88.4341 193.196C87.9252 192.35 87.586 192.012 87.2468 191.505ZM107.091 236.16C106.921 236.16 106.752 236.16 106.582 236.16C106.412 237.006 106.243 237.682 106.073 238.528C106.752 238.528 106.921 238.359 107.091 238.021C107.091 237.344 107.091 236.667 107.091 236.16ZM30.2589 210.957C30.0893 211.295 30.0893 211.464 29.9197 211.803C30.5981 211.972 31.1069 212.141 31.7854 212.31C31.7854 212.141 31.955 211.803 31.955 211.633C31.2766 211.295 30.7677 211.126 30.2589 210.957ZM36.704 213.156C36.704 213.325 36.704 213.494 36.704 213.663C37.0432 213.663 37.2128 213.494 37.552 213.494C37.552 213.325 37.552 213.325 37.552 213.156C37.2128 213.156 37.0432 213.156 36.704 213.156Z" fill="#201B20"/>
<path d="M166.113 361.161C165.943 361.161 165.943 361.161 165.943 361.33V361.161C165.943 360.991 165.943 360.991 166.113 361.161Z" fill="#201B20"/>
<path d="M56.0394 256.458C52.9865 247.662 54.5129 243.095 60.6187 241.234C66.3854 239.543 69.7775 241.742 71.8128 249.184C75.0353 249.692 77.9187 250.706 80.4628 253.075C84.1941 256.458 85.3813 260.517 84.1941 265.253C81.8196 275.064 69.2687 280.477 60.4491 275.233C54.6825 271.85 52.4776 265.93 54.8521 259.671C55.1913 258.487 55.7002 257.472 56.0394 256.458ZM68.5903 275.064C73.3393 275.064 77.0706 273.203 80.1235 269.313C83.0068 265.761 83.8549 261.701 81.8196 257.642C79.6147 253.413 76.053 251.214 71.1344 251.045C67.5726 251.045 64.3501 251.721 61.1276 253.751C56.3786 256.796 54.0041 264.238 56.8874 269.144C59.6011 273.542 63.6717 275.064 68.5903 275.064Z" fill="#201B20"/>
<path d="M28.3917 266.607C27.7133 258.487 35.0064 254.766 41.2818 254.766C46.5396 254.766 51.9671 260.686 51.6278 268.298C51.4582 275.064 47.0484 279.462 39.4161 278.954C32.2926 278.447 28.2221 274.726 28.3917 266.607ZM40.6034 277.263C46.37 277.432 50.1013 273.88 50.271 267.96C50.271 261.701 45.8612 256.458 40.9426 256.458C34.4975 256.458 30.0877 260.517 30.0877 267.452C30.0877 273.203 33.4799 277.094 40.6034 277.263Z" fill="#201B20"/>
<path d="M72.1499 227.533C71.9803 235.145 69.2666 238.359 59.9382 239.035C53.8324 239.543 49.4226 234.299 49.0834 228.379C48.7442 220.598 52.9843 215.862 59.9382 215.862C67.0617 215.693 71.9803 220.429 72.1499 227.533ZM65.5352 219.414C60.447 215.185 52.6451 217.722 51.2883 224.15C51.1187 224.996 50.9491 225.672 50.7795 226.518C49.5922 231.593 54.1716 238.189 59.7686 237.682C61.8039 237.513 63.8392 237.005 65.7048 236.498C69.7754 235.314 70.2843 231.931 70.4539 228.548C70.6235 225.165 70.2842 221.782 66.7225 219.921C66.5529 219.414 66.044 219.414 65.5352 219.414Z" fill="#201B20"/>
<path d="M66.0462 277.432C68.4207 277.432 70.6256 279.293 70.6256 281.492C70.6256 284.198 68.7599 286.228 66.0462 286.228C63.6717 286.228 61.4668 284.198 61.4668 281.83C61.4668 279.462 63.5021 277.432 66.0462 277.432Z" fill="#201B20"/>
<path d="M26.3581 274.218C28.9022 274.218 30.4286 275.91 30.4286 278.447C30.4286 281.153 28.9022 282.676 26.0189 282.676C23.3051 282.676 21.4395 281.153 21.4395 278.785C21.4395 276.417 23.6444 274.218 26.3581 274.218Z" fill="#201B20"/>
<path d="M80.8016 239.035C83.1761 239.035 85.381 240.896 85.381 243.095C85.381 245.294 83.685 247.154 81.4801 247.154C79.1056 247.154 77.0703 245.463 77.0703 243.095C77.2399 240.558 78.5967 239.035 80.8016 239.035Z" fill="#201B20"/>
<path d="M45.6919 227.026C45.6919 229.055 43.9959 230.578 41.6214 230.578C39.2469 230.578 37.5508 229.225 37.5508 227.026C37.5508 224.827 39.4165 222.797 41.4518 222.797C43.6567 222.797 45.6919 224.827 45.6919 227.026Z" fill="#201B20"/>
<path d="M83.3461 276.417C82.3285 279.462 79.7844 281.999 76.2227 283.014C78.0883 279.631 80.802 278.108 83.3461 276.417Z" fill="#201B20"/>
<path d="M43.6568 246.14C43.148 242.588 44.5048 239.881 45.6921 237.006C46.8793 239.205 45.8617 243.772 43.6568 246.14Z" fill="#201B20"/>
<path d="M88.0951 250.03C89.9608 251.553 91.8265 252.906 94.201 254.597C91.148 255.274 88.6039 253.413 87.7559 250.538C87.7559 250.369 87.9255 250.199 88.0951 250.03Z" fill="#201B20"/>
<path d="M50.1024 244.11C50.6112 246.647 51.2897 248.846 51.7985 251.722C49.0848 249.523 48.4063 246.647 50.1024 244.11Z" fill="#201B20"/>
<path d="M50.4417 280.984C49.9329 278.785 50.4417 277.263 52.3074 274.556C53.1554 276.586 52.477 278.785 50.4417 280.984Z" fill="#201B20"/>
<path d="M79.1047 233.792C77.0694 231.762 76.2214 229.225 75.543 226.518C75.7126 226.349 75.8822 226.349 76.2214 226.18C77.5782 228.548 78.7655 230.916 80.1223 233.284C79.6135 233.454 79.2743 233.623 79.1047 233.792Z" fill="#201B20"/>
<path d="M93.1836 247.662C95.2189 247.831 97.4238 248.169 100.137 248.507C97.5934 250.537 95.2189 250.199 93.1836 247.662Z" fill="#201B20"/>
<path d="M64.5188 294.178C64.3492 296.376 64.0099 298.406 63.8403 300.605C63.5011 300.605 63.1619 300.605 62.8227 300.436C61.9747 298.237 62.4835 296.038 63.5011 294.008C63.8403 294.008 64.1795 294.178 64.5188 294.178Z" fill="#201B20"/>
<path d="M82.6672 225.672C81.1408 224.996 79.6144 224.319 78.0879 223.812C78.2575 223.473 78.2575 223.304 78.4271 222.966C80.2927 222.628 81.8192 223.135 83.1761 224.657C82.8369 224.996 82.6672 225.334 82.6672 225.672Z" fill="#201B20"/>
<path d="M91.3175 284.029C88.7734 283.86 87.9254 283.183 88.2646 280.308C89.6215 281.492 90.8087 282.506 91.8263 283.521C91.6567 283.691 91.4871 283.86 91.3175 284.029Z" fill="#201B20"/>
<path d="M57.9038 282.845C55.3597 281.999 54.8509 281.154 55.5294 278.447C56.7166 279.8 57.7342 280.985 57.9038 282.845Z" fill="#201B20"/>
<path d="M17.5381 288.935C16.6901 290.288 15.842 291.472 14.8244 293.163C13.9763 290.626 14.6548 289.611 17.5381 288.935Z" fill="#201B20"/>
<path d="M49.7635 214.509C49.9331 217.046 49.085 218.23 46.8801 218.738C46.7105 216.539 48.237 215.862 49.7635 214.509Z" fill="#201B20"/>
<path d="M31.6162 224.658C32.6339 225.503 33.6515 226.349 34.6692 227.364C32.2947 228.21 31.9555 228.041 31.1074 225.165C31.277 224.996 31.4466 224.827 31.6162 224.658Z" fill="#201B20"/>
<path d="M69.6073 421.715C68.0808 419.178 67.7416 416.133 67.4023 413.258C67.572 413.258 67.9112 413.089 68.0808 413.089C68.9288 415.964 69.6073 418.671 70.4553 421.546C70.1161 421.546 69.9465 421.715 69.6073 421.715Z" fill="#201B20"/>
<path d="M43.317 62.6132C41.9601 59.9069 40.7729 57.0314 39.416 54.4941C41.9601 54.4941 44.3346 58.5537 43.317 62.6132Z" fill="#201B20"/>
<path d="M49.4236 49.5892C47.0491 48.4052 46.8795 46.7137 48.5756 44.0073C50.9501 45.1914 51.1197 47.052 49.4236 49.5892Z" fill="#201B20"/>
<path d="M33.8194 56.5239C36.1939 58.5537 37.0419 61.0909 37.2115 64.1356C37.0419 64.3048 36.7027 64.3048 36.5331 64.4739C35.5155 61.9367 34.3282 59.3995 33.3105 56.8622C33.4802 56.6931 33.6498 56.5239 33.8194 56.5239Z" fill="#201B20"/>
<path d="M49.9313 60.7529C49.9313 62.1061 50.1009 63.6285 50.1009 64.9816C48.4049 63.6285 48.9137 62.2753 49.2529 60.7529C49.5921 60.7529 49.7617 60.7529 49.9313 60.7529Z" fill="#201B20"/>
<path d="M51.1191 51.6187C53.1544 52.6335 52.9848 54.1559 53.1544 55.6782C52.8152 55.6782 52.6456 55.8474 52.3064 55.8474C51.9672 54.4942 51.4584 53.141 51.1191 51.6187Z" fill="#201B20"/>
<path d="M20.5898 53.8176C23.3036 52.8027 23.3036 52.8028 24.3212 55.34C22.9644 54.8326 21.9467 54.4942 20.5898 53.8176Z" fill="#201B20"/>
<path d="M55.53 50.4351C56.2084 51.1117 56.7172 51.9574 57.5653 52.8032C55.3604 53.3106 54.8516 52.2957 54.8516 50.7734C55.1908 50.7734 55.3604 50.6042 55.53 50.4351Z" fill="#201B20"/>
<path d="M43.1493 50.2658C42.3012 50.7732 41.4532 51.1115 40.4355 51.7881C40.7748 49.9275 40.7748 49.9275 43.1493 50.2658Z" fill="#201B20"/>
<path d="M41.791 47.3896C42.6391 47.3896 43.3175 47.3896 44.1656 47.3896C44.1656 47.5588 44.1656 47.8971 44.1656 48.0662C43.3175 48.0662 42.6391 48.0662 41.791 48.0662C41.791 47.8971 41.791 47.5588 41.791 47.3896Z" fill="#201B20"/>
<path d="M21.7774 122.999C22.7951 126.213 23.8127 129.427 24.6608 132.64C24.3215 132.81 23.9823 132.81 23.6431 132.979C22.2862 129.765 20.9294 126.72 20.7598 123.168C21.099 123.168 21.4382 123.168 21.7774 122.999Z" fill="#201B20"/>
<path d="M24.4922 119.278C27.0363 120.801 29.0716 122.661 29.75 125.537C27.3755 124.014 25.5098 121.985 24.4922 119.278Z" fill="#201B20"/>
<path d="M27.8848 116.741C30.0897 117.249 32.1249 117.925 34.8387 118.602C32.6338 120.124 29.7504 119.278 27.8848 116.741Z" fill="#201B20"/>
<path d="M131.514 40.1171C132.531 38.4256 133.549 37.0724 134.567 35.7192C134.906 35.8884 135.245 36.0575 135.415 36.2267C134.906 37.2416 134.567 38.4256 133.888 39.7788C135.415 39.7788 136.941 39.7788 138.807 39.7788C138.468 38.4256 138.128 37.4107 137.959 36.3958C139.146 35.5501 139.824 36.2267 139.994 37.2416C140.503 38.7639 140.503 40.2862 138.976 41.132C136.602 42.4851 134.397 42.1469 131.514 40.1171Z" fill="#201B20"/>
<path d="M134.566 29.6294C132.191 26.4156 128.799 29.4603 125.916 28.1071C127.782 25.9082 131.513 24.8932 133.718 25.9081C134.905 26.5847 135.414 27.7688 134.566 29.6294Z" fill="#201B20"/>
<path d="M149.154 28.4452C147.797 28.6144 146.779 28.9527 145.931 28.7836C144.405 28.6144 142.709 28.4453 140.674 28.107C140.165 27.0921 141.522 26.5846 142.37 26.0772C144.405 25.2314 146.949 26.0772 149.154 28.4452Z" fill="#201B20"/>
<path d="M145.592 20.3266C141.691 19.8191 137.96 19.1425 134.059 18.6351C137.281 16.9436 142.709 17.6202 145.592 20.3266Z" fill="#201B20"/>
<path d="M142.707 22.5252C139.654 23.2018 137.11 22.8636 134.227 22.0178C136.601 20.4955 139.993 20.6646 142.707 22.5252Z" fill="#201B20"/>
<path d="M132.023 47.5596C134.398 47.7287 136.603 47.8978 138.808 48.067C136.942 50.0968 134.398 49.9276 132.023 47.5596Z" fill="#201B20"/>
<path d="M121.846 39.9478C124.39 41.3009 125.068 42.9924 124.22 46.2062C123.542 44.3456 122.863 42.3158 121.846 39.9478Z" fill="#201B20"/>
<path d="M133.21 31.3212C132.192 31.9977 131.683 32.6743 131.005 32.6743C130.496 32.6743 129.987 31.8286 129.479 31.3212C129.987 30.8137 130.496 29.968 131.175 29.7988C131.683 29.7988 132.362 30.6446 133.21 31.3212Z" fill="#201B20"/>
<path d="M143.894 34.7041C143.046 33.6892 142.198 33.0126 142.368 32.5052C142.537 31.8286 143.216 31.3211 143.724 30.6445C144.233 31.152 145.081 31.4903 145.081 31.9977C145.081 32.8434 144.403 33.52 143.894 34.7041Z" fill="#201B20"/>
<path d="M147.795 43.1611C147.286 44.176 146.777 45.1909 146.099 46.7133C145.251 44.3452 145.251 44.176 147.795 43.1611Z" fill="#201B20"/>
<path d="M125.748 33.3508C124.56 33.3508 123.543 33.3508 122.355 33.3508C122.355 33.1817 122.355 32.8434 122.355 32.6742C123.543 32.5051 124.56 32.5051 125.748 32.3359C125.748 32.6742 125.748 33.0125 125.748 33.3508Z" fill="#201B20"/>
<path d="M151.528 31.4898C150.51 31.659 149.492 31.8281 148.475 32.1664C149.323 30.6441 150.34 30.6441 151.528 30.8133C151.358 30.9824 151.528 31.1516 151.528 31.4898Z" fill="#201B20"/>
<path d="M149.492 32.8433C150.34 33.0124 151.188 33.0124 152.036 33.1816C152.036 33.5199 152.036 33.689 152.036 34.0273C151.188 34.0273 150.34 34.0273 149.492 34.0273C149.492 33.5199 149.492 33.1816 149.492 32.8433Z" fill="#201B20"/>
<path d="M148.644 35.3804C149.662 35.5495 150.679 35.8878 152.036 36.2261C150.171 37.9176 149.323 36.9027 148.475 36.057C148.475 35.7187 148.475 35.5495 148.644 35.3804Z" fill="#201B20"/>
<path d="M126.085 34.8731C125.407 35.2114 124.728 35.7188 124.05 36.0571C123.88 35.8879 123.711 35.5497 123.541 35.3805C124.219 34.8731 124.898 34.5348 125.576 34.0273C125.746 34.3656 125.916 34.5348 126.085 34.8731Z" fill="#201B20"/>
<path d="M123.372 29.7988C124.22 29.968 124.899 30.3063 125.747 30.4754C125.747 30.6446 125.577 30.9828 125.577 31.152C124.729 30.9828 123.881 30.8137 123.033 30.4754C123.203 30.1371 123.203 29.968 123.372 29.7988Z" fill="#201B20"/>
<path d="M134.736 44.6835C134.906 44.176 135.245 43.6686 135.415 43.1611C135.584 43.1611 135.754 43.3303 135.924 43.3303C135.754 43.8377 135.584 44.3452 135.415 45.0218C135.245 44.8526 134.906 44.6835 134.736 44.6835Z" fill="#201B20"/>
<path d="M137.62 43.4995C137.79 44.007 137.79 44.3452 137.96 44.8527C137.79 44.8527 137.62 44.8527 137.451 45.0218C137.451 44.5144 137.281 44.1761 137.281 43.6686C137.281 43.6686 137.451 43.6687 137.62 43.4995Z" fill="#201B20"/>
<path d="M26.5267 374.862C26.3571 373.17 26.1875 371.479 26.1875 369.787C26.3571 369.787 26.6963 369.787 26.8659 369.787C27.714 371.479 28.2228 373.001 27.3747 374.862C27.0355 374.862 26.6963 374.862 26.5267 374.862Z" fill="#201B20"/>
<path d="M45.3539 27.4307C41.453 32.5051 30.7678 33.0126 27.7148 28.2764C33.8207 31.9977 39.5873 30.137 45.3539 27.4307Z" fill="#201B20"/>
<path d="M45.1827 22.187C43.8259 26.4157 35.6848 28.9529 32.123 26.2466C36.872 25.7391 41.4514 25.4008 45.1827 22.187Z" fill="#201B20"/>
<path d="M12.1094 45.1907C17.028 45.6981 19.7417 42.146 22.7946 39.2705C22.625 42.6535 20.5897 44.3449 18.0456 45.529C16.0103 46.3747 13.9751 47.5588 12.1094 45.1907Z" fill="#201B20"/>
<path d="M19.7422 47.0519C25.1696 42.3157 25.1696 42.3157 25.6784 37.5796C27.2049 38.7636 27.3745 40.4551 26.1873 43.3306C25 45.8679 22.4559 47.3902 19.7422 47.0519Z" fill="#201B20"/>
<path d="M21.9462 35.2114C22.1158 38.5944 18.2148 42.1466 13.9746 41.8083C16.6883 39.6093 19.402 37.4104 21.9462 35.2114Z" fill="#201B20"/>
<path d="M14.9941 35.5497C16.8598 32.6742 19.2343 31.8284 21.6088 31.1519C20.0823 33.1816 18.3863 35.0423 14.9941 35.5497Z" fill="#201B20"/>
<path d="M34.8379 21.8486C36.1947 21.172 37.5516 20.4954 39.0781 19.8188C39.0781 22.1869 37.7212 23.0326 34.8379 21.8486Z" fill="#201B20"/>
<path d="M29.5801 20.834C30.5977 19.9882 31.785 19.1425 32.9722 17.9585C32.9722 20.834 32.2938 21.3414 29.5801 20.834Z" fill="#201B20"/>
<path d="M22.9664 27.092C21.9487 27.5995 21.1007 28.1069 20.083 28.6144C19.9134 28.2761 19.7438 27.9378 19.5742 27.5995C20.5919 27.092 21.4399 26.5846 22.4575 26.0771C22.6271 26.5846 22.7967 26.9229 22.9664 27.092Z" fill="#201B20"/>
<path d="M111.84 66.8418C113.536 69.379 115.91 71.0705 119.303 71.9163C115.91 73.7769 112.009 70.9014 111.84 66.8418Z" fill="#201B20"/>
<path d="M118.116 77.8373C114.724 79.1905 111.84 78.0065 110.992 74.6235C112.179 75.3001 113.367 75.9767 114.554 76.315C115.741 76.6533 117.098 76.8225 118.285 76.9916C118.116 77.3299 118.116 77.6682 118.116 77.8373Z" fill="#201B20"/>
<path d="M134.906 77.3296C137.62 78.5136 140.164 79.8668 142.708 81.0508C139.994 83.0806 135.245 80.7126 134.906 77.3296Z" fill="#201B20"/>
<path d="M147.796 72.7622C146.439 76.1452 143.725 77.1601 139.994 76.1452C142.538 74.9611 144.913 73.9462 147.796 72.7622Z" fill="#201B20"/>
<path d="M32.4619 287.581C34.6668 288.258 37.0413 288.765 39.4158 289.611C41.1119 290.287 42.1295 295.024 41.1119 296.715C39.0766 300.098 36.0237 302.635 34.3276 306.356C33.8188 307.371 31.2747 308.386 30.7659 308.048C28.9002 306.695 27.3737 304.834 26.0169 302.804C25.3385 301.79 25.1688 300.267 24.8296 298.914C23.6424 295.362 25.8473 289.78 29.0698 288.088C29.9178 287.75 31.1051 287.75 32.4619 287.581ZM36.5325 299.252C36.1933 297.899 35.8541 296.715 35.3453 295.193C33.4796 294.685 31.4443 294.009 29.409 293.501C29.5786 293.84 29.7483 294.178 29.7483 294.516C28.561 295.362 27.5434 296.377 26.0169 297.392C26.1865 298.237 26.5257 299.252 26.8649 299.929C29.0698 299.083 31.1051 298.407 32.8012 297.899C34.3276 298.407 34.3276 300.775 36.5325 299.252ZM38.5678 291.133C35.6845 290.287 32.9708 289.611 29.9178 288.765C29.9178 291.133 26.5257 290.626 27.0345 293.332C27.8826 292.656 28.561 292.148 28.9002 291.979C30.7659 292.148 32.2923 292.148 34.3276 292.148C35.6845 293.67 37.2109 295.362 38.7374 297.223C40.9423 295.362 39.0766 293.332 38.5678 291.133ZM27.713 302.804C28.9002 304.327 28.9002 304.327 33.31 305.173C33.6492 304.158 34.158 303.143 34.6669 302.128C33.8188 301.451 32.9708 300.775 32.1227 300.098C31.2747 300.267 30.4267 300.267 29.7483 300.436C29.0698 301.282 28.561 301.959 27.713 302.804Z" fill="#201B20"/>
<path d="M127.783 65.9963C127.444 63.6283 126.935 61.2602 126.596 59.0612C126.935 59.0612 127.274 58.8921 127.613 58.8921C128.122 61.2602 128.461 63.4591 128.97 65.8272C128.461 65.8272 128.122 65.8272 127.783 65.9963Z" fill="#201B20"/>
<path d="M135.244 63.7977C135.753 62.4445 136.262 60.9222 136.94 59.0615C137.788 61.5988 137.449 62.9519 135.753 64.136C135.583 63.9668 135.414 63.9669 135.244 63.7977Z" fill="#201B20"/>
<path d="M23.983 234.468C25.0006 234.13 25.8487 233.623 26.6967 233.623C27.3751 233.623 28.5624 233.961 28.732 234.299C29.0712 236.16 30.7672 236.16 31.6153 236.498C32.6329 238.528 33.481 240.05 34.1594 241.573C34.329 242.08 34.329 242.926 34.1594 243.433C33.9898 243.941 33.3114 244.617 33.481 244.955C34.329 249.015 31.2761 249.353 28.9016 250.199C26.3575 251.214 23.6438 252.06 21.0997 253.075C19.7428 253.582 18.8948 253.075 18.5556 251.552C17.8772 249.523 17.0291 247.493 16.3507 245.294C16.0114 244.11 16.1811 242.926 16.1811 241.742C16.1811 241.065 16.5203 240.388 16.3507 239.881C16.1811 238.359 16.3507 237.175 18.2163 236.667C18.7252 236.498 19.0644 235.991 19.4036 235.652C20.9301 233.284 21.0997 233.284 23.983 234.468ZM30.4281 238.528C29.0712 237.513 27.8839 236.667 26.8663 235.821C25.1702 235.821 23.3046 235.821 21.2693 235.821C20.0821 237.175 18.7252 238.528 17.5379 240.05C17.7075 240.219 17.8771 240.388 18.0467 240.388C18.8948 239.712 19.7428 239.204 20.2516 238.697C21.9477 239.204 23.3046 239.712 24.3222 239.881C25.8487 240.896 27.0359 241.573 28.0536 242.249C28.2232 244.11 28.3928 246.14 28.5624 248.169C29.7496 247.831 30.5977 247.493 31.4457 247.324C31.7849 245.463 32.1241 243.941 32.2937 242.757C31.4457 241.234 30.9369 239.881 30.4281 238.528ZM20.5908 241.065C19.0644 242.08 18.0468 242.926 17.0291 243.771C17.1987 244.279 17.5379 244.955 17.5379 244.955C20.5909 246.478 23.3046 247.831 26.3575 249.353C26.0183 247.324 25.6791 245.632 25.3399 243.941C23.6438 242.757 22.1173 241.911 20.5908 241.065ZM22.4565 249.861C21.2693 249.015 20.2517 248.338 18.7252 247.324C19.234 249.861 20.9301 249.692 22.4565 249.861Z" fill="#201B20"/>
<path d="M17.3689 15.2518C16.6905 14.9135 16.0121 14.5752 15.1641 14.0677C16.8601 13.0528 17.8778 13.3912 18.5562 14.5752C19.5738 16.2667 19.4042 18.9731 17.8778 20.6646C17.5386 18.8039 17.3689 17.1124 17.3689 15.2518Z" fill="#201B20"/>
<path d="M19.7422 9.83899C21.2686 8.4858 22.9647 8.82412 25 11.0231C22.9647 12.0379 21.6079 9.83899 19.7422 9.83899Z" fill="#201B20"/>
<path d="M79.1059 200.131C79.2755 199.962 79.4451 199.793 79.6147 199.454C79.9539 199.454 80.2932 199.624 80.4628 199.454C83.0069 196.579 86.2294 198.101 89.2823 198.27C89.9607 198.27 90.8088 198.778 91.148 199.285C91.8264 200.469 92.5048 201.823 92.844 203.176C93.0136 204.021 93.0137 205.206 92.5049 205.882C91.3176 207.912 92.5048 210.957 89.4519 212.31C87.247 213.325 85.5509 214.847 83.5157 216.2C83.0068 216.538 82.3284 216.708 81.65 217.046C80.4627 214.847 78.4275 213.155 78.7667 210.449C78.7667 209.942 78.0883 209.434 77.9187 208.927C77.7491 208.081 77.4098 207.066 77.5794 206.22C77.749 204.36 78.2579 202.499 78.5971 200.639C78.5971 200.469 78.9363 200.3 79.1059 200.131ZM82.8372 204.698C81.65 205.375 80.2932 206.22 78.9363 207.066C78.9363 208.588 79.9539 208.758 81.1412 208.419C81.8196 208.081 82.3284 207.574 83.0069 207.066C84.0245 206.39 85.2117 206.051 86.0598 207.066C87.0774 208.081 88.0951 209.265 89.1127 210.449C91.148 209.265 89.2823 207.574 89.7911 206.39C89.4519 206.728 89.1127 206.897 88.7735 207.235C88.0951 206.22 87.4167 205.206 86.5686 204.021C85.551 204.191 84.1941 204.36 82.8372 204.698ZM91.3176 204.191C90.6392 202.668 90.1304 201.315 89.7911 200.3C87.7559 199.962 86.0598 199.624 84.3637 199.116C83.0068 199.962 81.65 200.808 80.1235 201.823C80.1235 202.499 80.2931 203.176 80.2931 203.683C82.3284 203.176 84.3637 202.837 86.0598 202.161C88.6039 200.977 88.7735 205.036 91.3176 204.191ZM85.8902 212.986C86.0598 211.971 86.0598 210.957 86.2294 210.449C85.551 209.434 84.8725 208.758 84.3637 208.081C83.0068 208.927 81.8196 209.942 80.6324 210.618C80.9716 213.663 82.6676 214.34 85.8902 212.986Z" fill="#201B20"/>
<path d="M231.072 412.074C231.242 411.397 231.412 410.721 231.581 409.875C232.26 409.875 232.938 409.875 233.956 409.875C233.616 410.552 233.277 411.059 233.108 411.566C233.956 412.074 234.804 412.751 236.16 413.596C233.447 414.442 232.429 412.581 231.072 412.074Z" fill="#201B20"/>
<path d="M231.073 411.905C231.751 413.258 232.26 414.442 232.938 415.795C230.394 414.95 229.885 413.089 229.207 410.552C230.055 411.398 230.564 411.736 231.073 411.905C231.073 411.905 231.073 412.074 231.073 411.905Z" fill="#201B20"/>
<path d="M227.511 414.442C227.172 412.92 226.663 411.397 226.324 409.875C226.663 409.706 227.003 409.706 227.342 409.537C227.851 411.059 228.19 412.581 228.699 413.935C228.359 414.273 227.851 414.273 227.511 414.442Z" fill="#201B20"/>
<path d="M99.9657 233.284C99.4569 234.468 98.7784 235.822 98.1 237.175C96.9127 237.175 95.7255 237.175 94.3686 237.175C94.3686 236.329 94.1991 235.653 94.1991 234.976C93.5206 234.638 93.0118 234.13 91.9941 233.623C93.351 232.1 94.5383 230.916 95.8951 229.394C97.4216 230.578 98.6088 231.931 99.9657 233.284Z" fill="#201B20"/>
<path d="M46.88 102.533C50.1025 100.841 51.629 101.01 54.3427 103.04C52.9859 105.239 50.7809 103.717 48.9153 104.562C48.7457 105.746 48.7457 106.931 48.4065 108.115C48.0673 108.791 47.0496 109.129 46.3712 109.637C46.032 108.791 45.3535 107.945 45.3535 107.269C45.6927 105.577 46.3711 104.055 46.88 102.533Z" fill="#201B20"/>
<path d="M96.4044 381.966C96.4044 383.15 96.4044 384.165 96.4044 385.349C96.2348 385.349 95.8956 385.349 95.726 385.349C95.5563 384.165 95.5563 383.15 95.3867 381.966C95.7259 381.966 96.0652 381.966 96.4044 381.966Z" fill="#201B20"/>
<path d="M98.2715 381.966C99.1195 382.304 99.9675 382.473 101.155 382.812C99.6283 384.165 99.6283 384.165 98.2715 381.966Z" fill="#201B20"/>
<path d="M99.2878 387.378C99.1182 386.871 98.779 386.363 98.6094 386.025C98.779 385.856 98.9486 385.856 99.1182 385.687C99.4574 386.194 99.627 386.532 99.9663 387.04C99.7967 387.04 99.6271 387.209 99.2878 387.378Z" fill="#201B20"/>
<path d="M125.747 86.9706C125.408 86.4632 124.899 85.9557 125.069 85.6174C125.238 85.11 125.917 84.9408 126.426 84.6025C126.765 85.11 127.104 85.4483 127.104 85.9557C127.104 86.4632 126.765 86.9706 126.426 87.4781C126.256 87.3089 126.086 87.1398 125.747 86.9706Z" fill="#201B20"/>
<path d="M125.409 89.508C125.409 90.1846 125.409 90.8612 125.239 91.5378C124.731 91.3687 124.222 91.3687 123.713 91.1995C123.882 90.5229 124.052 89.8463 124.391 89.3389C124.731 89.3389 125.07 89.508 125.409 89.508Z" fill="#201B20"/>
<path d="M77.2408 254.766C77.4104 259.84 72.6614 263.224 73.0006 267.96C72.6614 268.298 72.6614 268.467 72.4917 268.636C68.93 271.343 68.93 271.343 65.5379 268.298C64.3506 267.283 63.1634 265.93 62.3153 264.577C60.6193 261.87 61.9761 258.995 61.6369 256.119C61.6369 255.95 61.8065 255.612 62.1457 255.443C64.0114 254.089 65.7075 252.736 67.4035 251.552C70.6261 252.567 73.679 253.582 77.2408 254.766ZM67.0644 253.92C65.8771 254.935 64.5202 256.119 63.1634 257.134C63.1634 257.303 63.1634 257.642 63.1634 257.811C65.5379 255.95 66.8947 257.472 68.2516 258.995C68.2516 258.826 68.4212 258.487 68.4212 258.318C70.4565 258.656 72.4918 258.826 74.5271 259.164C74.8663 258.149 75.2055 257.303 75.3751 256.627C74.1878 255.95 73.0006 255.273 71.9829 254.766V254.935C70.4565 254.597 68.93 254.259 67.0644 253.92ZM65.5379 258.826C64.6898 260.179 63.8418 261.363 62.9938 262.547C63.5026 263.393 64.181 264.407 64.6898 265.253C66.8947 264.746 68.93 264.238 70.9653 263.731C71.1349 263.9 71.1349 264.069 71.3045 264.238C71.8134 263.393 72.4918 262.378 72.831 261.532C71.6437 261.024 70.6261 260.686 69.6085 260.179C68.93 260.348 68.082 260.686 67.2339 260.855C66.5555 260.179 66.0467 259.502 65.5379 258.826ZM67.4035 266.945C67.4035 267.114 67.4036 267.452 67.5732 267.621C68.7604 267.452 69.778 267.452 70.9653 267.283C70.9653 266.945 70.7957 266.606 70.7957 266.268C69.6084 266.437 68.5908 266.606 67.4035 266.945Z" fill="#201B20"/>
<path d="M40.4355 276.248C34.6689 276.079 30.9375 272.865 31.1071 267.622C31.4463 262.547 34.16 257.473 39.5875 257.811C45.5237 258.149 48.7462 261.194 48.7462 266.945C48.5766 273.034 45.6933 276.248 40.4355 276.248ZM40.2659 274.387C44.6757 274.557 47.0501 271.85 47.0501 266.607C47.0501 262.378 44.1668 259.502 39.5875 259.333C35.6865 259.164 32.8032 262.547 32.6336 267.114C32.6336 271.681 35.3473 274.218 40.2659 274.387Z" fill="#201B20"/>
<path d="M65.5361 219.414C69.4371 223.304 70.2851 227.195 68.4194 231.762C66.893 235.145 64.0097 236.667 60.6175 236.836C57.2254 237.005 54.1724 235.483 52.8156 232.269C51.2891 228.717 51.6284 225.165 53.8332 221.951C56.0381 218.906 59.4303 218.399 62.992 218.906C63.84 219.075 64.6881 219.245 65.5361 219.414ZM53.8332 227.871C53.6636 231.931 56.3774 234.975 60.1087 234.975C63.3313 234.975 67.4018 232.946 67.4018 227.195C67.4018 222.966 65.1969 220.429 61.1264 220.598C55.5293 220.767 53.8332 222.966 53.8332 227.871Z" fill="#201B20"/>
<path d="M43.1489 264.239C42.9793 265.761 42.8097 267.283 42.4705 268.806C41.4528 269.313 40.2656 269.651 38.9087 270.328C37.8911 269.144 37.043 267.96 36.0254 266.776C37.043 265.423 37.8911 264.239 38.9087 262.716C40.2656 263.224 41.6224 263.731 43.1489 264.239Z" fill="#201B20"/>
<path d="M55.6992 227.703C56.5473 226.349 57.0561 225.334 57.9041 224.15C59.6002 224.658 61.1267 225.165 62.8227 225.842C62.6531 227.195 62.3139 228.717 61.9747 230.071C60.7874 230.409 59.6002 230.747 58.4129 231.085C57.5649 229.901 56.7169 228.887 55.6992 227.703Z" fill="#201B20"/>
</svg>
