<svg width="175" height="450" viewBox="0 0 175 450" fill="none" xmlns="http://www.w3.org/2000/svg" class="drawing">
<path id="Vector" d="M175.001 288.361C171.593 293.301 168.015 298.07 163.244 301.476C158.984 304.542 154.383 307.097 149.271 308.8C148.93 308.97 148.419 309.141 148.419 309.141C148.419 314.591 148.589 319.871 148.419 325.151C148.249 333.838 147.737 342.695 147.567 351.382C147.397 355.299 147.397 359.046 147.226 362.964C146.885 372.672 146.374 382.381 146.033 391.919C145.863 395.666 145.863 399.413 145.693 403.16C145.522 407.078 145.181 410.995 145.181 414.743C145.181 417.638 145.522 420.363 145.693 423.259C145.863 427.176 145.352 430.924 142.966 434.16C138.877 439.78 133.935 444.209 127.46 447.275C122.689 449.659 117.747 450 112.465 449.83C111.442 449.83 110.42 449.319 109.398 448.978C106.671 447.956 106.16 445.401 108.205 443.187C110.931 440.291 113.998 437.566 116.384 434.5C118.77 431.264 120.814 427.858 122.518 424.111C124.052 420.874 125.074 417.297 125.926 413.721C126.437 411.847 126.267 409.803 126.097 407.93C125.756 404.182 125.245 400.265 124.904 396.518C124.393 389.875 124.052 383.403 123.029 376.59C122.518 379.145 121.837 381.529 121.325 384.084C119.792 390.045 119.962 396.007 120.133 402.139C120.133 404.182 119.281 405.375 117.236 405.886C111.954 407.078 106.842 408.781 101.389 409.633C97.8104 410.314 93.8912 410.144 90.1424 410.314C88.4385 410.314 86.7345 410.144 85.0305 409.973C82.1337 409.633 80.9409 408.611 80.7705 406.397C80.6001 403.842 82.4745 403.16 84.1785 402.479C87.7569 400.946 91.5056 399.924 95.084 398.391C97.64 397.369 100.026 396.007 102.922 394.644C102.922 392.26 103.093 390.045 103.093 387.831C103.093 385.276 102.411 382.381 103.263 380.167C104.286 377.441 103.434 374.886 103.774 372.332C104.115 369.436 103.434 366.37 103.093 363.475C103.093 363.304 102.922 363.134 102.922 362.964C102.752 357.684 102.752 352.403 102.582 347.123C102.411 344.398 101.9 341.503 101.73 338.777C101.389 333.668 101.048 328.558 100.878 323.618C97.1288 323.959 93.38 323.789 89.8016 324.64C86.0529 325.492 82.6449 324.811 79.2369 323.959C77.3625 323.448 75.9993 322.086 74.6361 320.553C72.2505 317.998 70.7169 315.102 69.8649 311.866C69.3537 309.992 69.1833 308.119 68.5017 306.075C67.9905 308.119 67.1386 310.333 67.1386 312.377C67.1386 316.294 67.6497 320.212 67.8201 323.959C67.9905 330.772 68.1609 337.755 68.1609 344.569C68.1609 346.612 67.3089 348.656 67.4793 350.7C67.9905 355.299 65.2642 359.387 65.0938 363.815C64.9234 366.711 64.753 369.606 64.5826 372.502C64.4122 376.079 64.2418 379.656 63.901 383.232C63.7306 385.276 63.5602 387.491 63.3898 389.534C62.7082 394.474 63.901 399.073 65.605 403.331C66.6274 406.056 69.0129 408.1 70.7169 410.655C72.7617 413.721 75.9993 413.721 79.0665 414.572C80.4297 414.913 81.7929 415.594 81.4521 416.957C81.2817 417.979 80.0889 419.341 79.0665 419.852C73.6137 422.407 68.5017 420.193 63.3898 418.66C62.197 418.319 61.1746 417.127 59.641 416.105C59.641 418.49 59.641 420.704 59.641 423.089C58.2778 423.089 57.2554 423.259 56.4034 423.089C55.8922 422.918 55.2106 422.237 55.0402 421.556C54.6994 420.023 54.6994 418.49 54.3586 416.957C54.0178 415.424 53.1658 413.891 52.6546 412.358C51.973 410.655 51.2914 408.781 50.9506 407.078C50.6098 405.034 50.7802 402.82 50.7802 400.606C50.9506 394.815 49.9282 389.194 47.3722 383.743C45.4979 379.826 44.1347 375.568 42.6011 371.31C40.8971 376.76 39.3635 382.04 37.8299 387.32C36.6371 391.067 35.1035 394.815 33.9107 398.562C32.7179 402.309 31.5251 406.226 30.6731 409.973C29.9915 413.38 29.4803 416.957 29.4803 420.363C29.4803 423.259 30.1619 426.154 32.3771 428.539C33.0587 429.22 33.3995 430.242 33.9107 431.094C35.9555 433.819 38.1707 436.715 40.3859 439.269C41.5787 440.632 43.4531 441.484 44.9867 442.676C46.009 443.357 47.2018 444.039 47.8834 445.061C48.565 445.912 48.7354 447.445 48.565 448.467C48.3946 448.978 47.0314 449.659 46.1794 449.659C35.1035 449.83 25.0499 446.764 17.2116 438.418C17.0412 438.248 17.0412 438.248 16.7004 438.077C16.7004 439.099 16.7004 439.951 16.53 440.802C16.3596 441.654 15.8484 442.506 15.5076 443.357C14.6556 442.506 13.2924 441.824 12.9516 440.802C12.4404 439.099 12.6108 437.226 12.0996 435.522C11.418 433.138 10.7364 430.753 9.37322 428.88C7.49883 425.984 7.83963 423.429 8.52122 420.363C9.37322 416.787 9.88442 413.21 10.7364 409.463C11.2476 407.419 11.7588 405.204 12.0996 403.16C12.0996 402.99 12.0996 402.65 12.0996 402.479C12.4404 398.221 12.7812 393.963 12.9516 389.705C13.2924 384.765 13.4628 379.656 13.8036 374.716C14.1444 371.139 14.4852 367.733 15.1668 364.326C16.1892 358.876 17.2116 353.255 18.5748 347.805C19.4268 343.887 20.4492 339.97 21.4716 336.223C23.6868 328.899 26.0723 321.745 28.4579 314.421C29.8211 310.163 31.0139 305.905 32.0363 301.646C32.5475 299.603 32.2067 297.218 32.3771 295.174C32.7179 291.938 33.0587 288.531 33.3995 285.295C33.5699 282.059 33.5699 278.823 33.7403 275.587C34.2515 269.625 34.7627 263.494 35.2739 257.532C35.4443 255.148 34.9331 252.763 35.1035 250.378C35.4443 247.142 36.2963 243.906 36.8075 240.5C37.1483 238.456 37.3187 236.412 37.4891 234.198C37.4891 228.236 37.6595 222.275 37.4891 216.313C37.4891 214.44 36.1259 212.396 36.2963 210.522C36.4667 206.775 34.9331 203.198 34.7627 199.451C34.4219 193.83 35.6147 188.891 38.3411 183.952C41.2379 178.671 43.2827 173.051 45.6682 167.771C32.7179 153.804 27.0947 136.942 24.7091 119.228C21.642 118.547 18.7452 118.036 16.1892 117.014C12.7812 115.651 10.0548 113.437 9.54362 109.349C8.52122 105.772 6.81723 103.047 4.60204 100.833C2.72765 98.9591 3.40925 96.4042 2.89805 94.19C2.72765 93.679 2.55725 92.8274 2.21645 92.4867C0.00126083 90.4428 -0.509937 89.0802 0.682858 86.355C1.70525 84.3111 2.89805 82.2672 4.43164 80.564C6.47643 78.1794 6.81723 76.4762 5.11324 73.7509C3.40925 71.0257 4.60204 68.1302 6.81723 65.7456C8.69162 63.8721 11.418 62.5095 11.9292 59.6139C12.0996 58.592 11.9292 57.3997 11.7588 56.2074C11.2476 49.2241 12.0996 42.5814 17.5524 37.3013C21.3012 33.7244 25.2203 30.3179 29.6507 27.5927C30.6731 26.9114 31.3547 25.7192 32.0363 24.6972C33.3995 22.3126 35.1035 20.95 37.1483 21.2907C39.7043 21.6313 40.7267 23.1643 40.0451 25.5488C39.8747 26.0598 39.7043 26.5708 39.7043 27.0818C44.9867 28.274 49.2466 31.1696 51.8026 35.7684C53.5066 38.8342 54.529 42.4111 55.5514 45.8176C56.0626 47.8615 57.085 48.8834 59.1298 49.2241C62.197 49.735 63.049 51.0977 61.8562 53.9932C61.0042 55.8668 61.345 57.2294 62.197 58.9326C64.5826 63.3611 62.7082 66.9379 57.937 68.1302C54.529 68.9818 51.121 70.3444 47.713 71.5367C45.1571 72.3883 45.1571 74.4322 46.1794 76.6465C47.713 79.8827 50.269 82.4375 52.9954 84.6518C55.8922 87.0363 59.641 87.7176 62.5378 89.7615C64.753 91.2945 66.6273 93.679 67.8201 96.2339C70.3761 101.003 72.5913 106.113 74.8065 110.712C78.2145 104.921 81.6225 98.7888 85.2009 92.4867C82.4745 92.6571 80.2593 91.6351 78.3849 89.5912C76.3401 87.377 76.8513 84.8221 77.1921 82.4375C75.1473 82.0969 73.2729 82.0969 71.3985 81.4156C67.4793 80.053 64.753 75.4542 65.0938 71.3664C65.4346 67.9599 66.7978 64.894 69.0129 62.3391C70.8873 60.1249 72.4209 57.7403 74.2953 55.3558C75.1473 54.3338 74.9769 53.3119 73.9545 52.6306C73.2729 52.1196 72.5913 51.779 72.0801 51.0977C70.8873 49.9054 69.8649 49.9054 68.3313 50.4164C66.4569 51.0977 65.4346 50.246 65.7754 48.0318C65.9458 46.4989 66.6273 44.7956 66.1162 43.433C65.4346 41.3891 64.2418 39.5155 62.8786 37.9826C59.8114 34.5761 57.7666 30.6586 56.9146 26.2301C56.233 22.8236 57.2554 19.5874 58.4482 16.5216C59.641 12.9447 61.345 9.53823 64.4122 6.98335C69.0129 3.23618 74.1249 0.851628 80.0889 0.340651C80.4297 0.340651 80.6001 0.170326 80.9409 0C81.6225 0 82.1337 0 82.8153 0C83.4969 0 84.3489 0.340651 85.0305 0.170326C92.528 -0.510977 100.026 6.81302 102.411 12.2634C104.797 17.7139 105.308 23.5049 105.99 29.296C106.842 36.109 107.864 42.5814 112.294 48.3724C115.532 52.4603 119.451 55.1855 123.881 57.7403C129.164 60.8062 134.276 63.7017 137.343 69.3225C139.047 72.729 141.433 75.7949 143.137 79.031C146.715 86.0144 148.249 93.5087 148.078 101.003C147.908 113.266 147.226 125.36 146.204 137.623C145.522 147.502 143.989 157.21 142.796 167.6C147.908 175.606 152.338 184.803 155.746 194.512C160.517 208.819 163.925 223.637 166.652 238.456C168.867 250.719 171.082 262.983 173.297 275.416C173.979 279.504 174.49 283.592 175.001 287.68C175.001 288.02 175.001 288.191 175.001 288.361ZM35.9555 104.58C35.7851 104.58 35.7851 104.58 35.9555 104.58C35.7851 104.58 35.7851 104.58 35.9555 104.58ZM69.5241 11.7525C66.7977 12.7744 64.2418 13.7964 61.1746 12.7744C60.8338 13.626 60.6634 14.4777 60.493 15.3293C65.605 16.6919 67.8201 15.8403 69.5241 11.7525ZM72.5913 62.5095C71.9097 63.1908 71.2281 63.7017 70.7169 64.383C68.3313 66.7676 67.4793 70.1741 68.6721 72.729C70.0353 75.6245 72.7617 76.8168 75.8289 76.9871C75.8289 76.9871 75.8289 76.9871 75.9993 76.9871C75.9993 76.9871 75.9993 76.9871 75.8289 76.9871C74.4657 75.1135 72.7617 73.5806 71.9097 71.5367C70.5465 68.4709 71.5689 65.405 72.5913 62.5095C72.5913 62.5095 72.5913 62.3391 72.5913 62.5095ZM40.7267 180.886C42.6011 179.864 44.1347 178.331 46.3498 177.309C53.1658 174.584 59.641 171.007 66.1162 167.771C66.2866 167.771 66.2865 167.6 66.6273 167.26C62.3674 167.43 58.2778 167.771 54.3586 167.941C52.9954 172.029 48.7354 175.435 46.6906 173.902C48.2242 172.029 49.9282 170.326 51.4618 168.452C51.2914 168.282 51.121 167.941 50.9506 167.771C49.0762 168.452 47.0314 169.133 45.1571 169.985C44.6459 171.177 44.1347 172.199 43.7939 173.391C44.4755 173.391 44.8163 173.221 45.8386 173.221C44.6459 174.924 43.7939 176.287 42.7715 177.82C42.2603 178.671 41.5787 179.693 40.7267 180.886ZM35.2739 88.5693C35.1035 88.7396 34.7627 88.7396 34.5923 88.9099C32.2067 90.4428 29.8211 91.8055 27.6059 93.5087C26.0723 94.701 24.0275 95.8933 23.5164 97.4262C22.1532 101.344 21.8124 105.602 24.1979 109.519C27.6059 110.03 33.3995 107.816 35.4443 106.283C33.7403 106.453 31.8659 106.624 29.9915 106.794C29.9915 106.453 29.8211 106.113 29.8211 105.942C33.5699 104.069 37.4891 102.195 41.2379 100.322C41.2379 100.151 41.0675 99.9811 41.0675 99.8107C40.5563 99.8107 40.0451 99.8107 39.3635 99.9811C36.6371 100.662 34.0811 101.514 31.3547 102.195C30.5027 102.366 29.6507 102.025 28.7987 102.025C28.7987 101.855 28.7987 101.514 28.6283 101.344C32.2067 98.7888 35.7851 96.4042 39.5339 93.8494C37.1483 94.3603 34.9331 95.212 32.5475 96.0636C30.3323 96.9152 27.9467 97.5965 25.7315 98.4481C25.3907 97.5965 25.2203 97.2559 25.0499 96.7449C26.0723 96.0636 26.9243 95.5526 27.7763 94.8713C30.3323 92.8274 32.8883 90.7835 35.2739 88.5693C35.2739 88.5693 35.4443 88.5693 35.2739 88.5693ZM80.6001 248.164C83.1561 244.587 87.0753 242.884 90.824 240.84C90.4832 240.67 90.1424 241.011 89.8016 241.011C89.12 241.011 88.6088 241.011 87.9273 240.84C88.0976 240.159 88.2681 239.478 88.6088 238.967C88.7792 238.626 89.2904 238.626 89.8016 238.456C88.6089 232.835 90.6536 228.406 93.8912 224.319C93.2096 222.104 93.8912 221.593 96.2768 222.104C97.8104 221.082 99.344 220.061 100.366 219.55C100.878 216.313 101.218 213.588 101.73 210.863C97.8104 212.907 93.38 213.418 88.9496 211.204C89.12 211.715 89.2904 212.055 89.4608 212.396C89.6312 212.907 89.8016 213.759 89.4608 214.269C88.9496 215.462 88.0977 216.484 87.5865 217.506C89.4608 219.55 89.2904 220.231 87.2457 221.253C87.0753 221.764 87.0753 222.275 86.9049 222.956C90.3128 225.17 85.5417 225.852 86.3937 227.555C86.5641 228.407 86.7345 229.599 86.3937 229.769C84.5193 230.45 85.0305 231.472 85.5417 231.983C86.9049 231.983 87.5865 231.983 88.4385 231.983C88.2681 232.835 88.268 234.027 87.9273 234.198C87.4161 234.538 86.3937 234.198 85.5417 234.027C83.6673 234.879 83.8377 234.709 84.5193 236.923C84.6897 237.434 84.1785 238.285 83.8377 238.967C83.6673 239.307 83.1561 239.478 82.9857 239.989C81.9633 242.544 81.2817 245.439 80.6001 248.164ZM107.012 404.012C103.945 405.034 100.707 406.056 97.64 406.908C95.7656 407.419 93.8912 407.419 92.0168 407.759C91.8464 407.589 91.8464 407.248 91.676 407.078C92.0168 406.737 92.528 406.226 92.8688 406.226C95.2544 405.715 97.8104 405.375 100.196 404.864C102.582 404.353 104.286 403.16 104.286 400.265C104.286 398.732 104.626 397.199 104.626 395.496C101.389 397.199 98.8328 398.732 96.1064 399.924C92.3576 401.457 88.268 402.65 84.5193 404.182C83.6673 404.523 82.9857 405.715 82.3041 406.567C83.1561 407.248 84.1785 408.27 85.0305 408.441C91.5056 409.463 97.9808 408.441 104.456 407.078C108.546 406.226 112.465 404.864 116.384 404.012C118.088 403.671 118.429 402.479 118.429 401.287C118.429 400.095 118.088 398.902 117.918 397.71C117.406 397.71 117.066 397.71 116.725 397.71C116.384 397.71 116.043 397.71 115.702 397.88C112.294 398.902 110.079 401.287 108.716 404.523C108.375 405.204 107.694 405.715 107.012 406.397C106.671 405.715 106.671 405.545 106.671 405.545C106.842 405.034 107.012 404.523 107.012 404.012ZM122.348 177.479C121.666 177.479 120.985 177.65 120.473 177.65C120.303 177.65 119.962 176.798 119.962 176.628C120.303 176.117 120.814 175.776 121.325 175.606C121.837 175.606 122.348 176.117 122.689 176.287C123.881 174.243 124.904 172.199 126.097 169.985C118.77 170.155 111.613 170.326 104.286 170.666C104.626 169.985 104.967 169.644 105.138 169.133C110.761 160.787 116.214 152.441 121.837 143.925C127.971 134.727 133.935 125.53 140.069 116.332C140.41 115.992 140.41 115.31 140.41 114.799C140.24 114.799 140.069 114.629 139.899 114.629C139.729 114.799 139.558 115.14 139.388 115.31C127.46 133.365 115.532 151.249 103.604 169.304C103.263 169.815 103.093 170.666 102.582 171.007C100.707 173.221 100.707 175.095 102.582 177.309C102.752 177.309 102.752 177.139 102.922 177.139C103.604 177.139 104.286 176.968 104.967 176.968C104.967 177.479 105.308 178.331 104.967 178.671C104.456 179.012 103.774 179.182 103.093 179.353C102.752 179.353 102.241 179.182 102.07 179.353C100.366 180.715 98.6624 182.078 97.2992 183.781C96.1064 185.144 96.788 187.017 98.3216 188.039C100.537 189.572 103.093 189.402 105.649 189.232C111.272 189.061 116.214 187.188 120.473 183.441C120.985 182.93 121.666 182.078 121.837 181.397C122.348 180.375 122.348 179.012 122.348 177.479C122.518 177.479 122.348 177.479 122.348 177.479C122.348 177.479 122.518 177.479 122.348 177.479ZM109.227 319.531C111.102 319.02 112.976 318.679 115.021 318.168C113.317 317.316 112.124 316.635 110.931 315.954C108.375 314.421 107.353 312.547 108.205 310.163C108.886 308.289 109.909 306.416 111.102 305.053C114.85 301.136 119.792 299.603 125.074 298.581C131.038 297.559 137.173 297.048 142.285 293.301C145.352 291.086 146.715 288.191 146.033 284.614C145.693 282.74 145.352 280.867 144.67 279.163C143.137 275.927 144.329 273.032 145.352 270.136C146.204 267.581 146.715 264.686 147.056 261.961C147.056 261.109 146.033 259.406 145.181 259.235C142.966 258.895 140.41 258.724 138.365 259.235C133.083 260.768 129.334 264.345 125.926 268.263C125.926 269.285 125.926 270.647 125.415 270.988C124.393 271.499 123.029 271.329 122.177 271.499C120.133 272.18 118.088 273.202 116.043 273.372C113.998 273.543 111.954 272.521 109.909 272.18C108.886 276.609 104.456 281.378 100.026 282.229C96.1064 282.911 93.0392 284.784 89.972 287.339C89.4608 287.85 88.9496 288.361 88.7792 289.042C87.2457 293.471 84.0081 296.537 80.2593 298.921C77.3625 300.795 73.9545 302.157 70.7169 303.69C70.5465 306.416 70.0353 308.119 73.1025 316.124H73.2729C73.6137 315.954 73.9545 315.954 74.2953 315.783C77.7033 314.421 81.2817 314.762 84.3489 316.465C87.0753 317.998 90.824 318.849 90.4832 323.448C93.7208 322.937 96.788 322.426 99.6848 321.915C100.026 320.893 100.707 319.871 101.559 319.701C102.07 319.531 102.922 320.382 104.115 320.893C104.626 320.723 105.649 320.553 106.16 320.382C106.33 319.19 106.16 318.168 106.671 317.487C107.012 316.976 108.205 317.146 108.886 316.976C108.886 317.827 109.057 318.679 109.227 319.531ZM126.097 420.534C128.141 418.66 130.697 418.83 133.083 419.341C137.854 420.193 137.343 424.792 138.536 428.369C139.217 427.347 139.729 426.836 140.069 426.154C142.285 422.407 144.159 418.83 143.818 414.061C143.477 407.93 144.159 401.628 144.329 395.326C144.67 385.617 144.841 375.908 145.181 366.03C145.352 358.876 145.693 351.552 146.033 344.398C146.204 340.31 146.374 336.223 146.545 331.964C146.545 330.431 146.715 328.728 146.715 327.195C146.715 324.47 146.715 321.915 146.715 319.19C146.715 316.294 146.545 313.229 146.545 310.163C137.513 313.058 128.823 315.783 120.473 318.338C120.814 321.915 120.985 324.981 121.325 328.047C121.837 333.157 122.348 338.266 122.689 343.376C123.2 350.53 123.37 357.854 123.881 365.008C124.052 368.414 124.904 371.65 125.245 375.057C125.756 383.403 126.097 391.749 126.437 400.095C126.437 400.435 126.608 400.606 126.608 400.946C126.949 405.545 127.289 410.144 127.289 414.743C127.289 416.957 126.437 418.83 126.097 420.534ZM30.8435 89.7615C32.0363 88.9099 33.3995 88.0583 34.5923 87.377C35.1035 87.0363 35.7851 87.0363 36.4667 87.0363C36.4667 87.7176 36.6371 88.5693 36.4667 89.2506C36.2963 89.7615 35.9555 90.2725 35.4443 90.6132C33.3995 92.3164 31.3547 94.19 29.3099 95.8933C29.3099 95.8933 29.3099 95.8933 29.3099 95.7229C29.6507 95.7229 30.1619 95.5526 30.5027 95.3823C33.0587 94.3603 35.7851 93.3384 38.3411 92.3164C39.0227 92.1461 39.7043 91.8055 40.3859 91.8055C41.5787 91.6351 41.9195 92.6571 41.4083 93.3384C39.7043 95.212 38.0003 96.9152 35.9555 98.4481C34.5923 99.4701 33.0587 99.9811 31.5251 100.833C34.5923 99.9811 37.8299 99.2998 40.8971 98.6185C41.4083 98.4481 42.0899 98.7888 42.6011 98.9591C42.4307 99.6404 42.2603 100.492 41.9195 100.833C40.7267 101.684 39.5339 102.366 38.3411 103.217C38.0003 103.388 37.8299 103.728 37.4891 104.069C37.8299 104.58 38.1707 104.75 38.5115 105.091C38.3411 105.091 38.1707 105.261 38.0003 105.261C39.0227 107.986 39.8747 110.712 40.8971 113.607C40.3859 113.607 40.0451 113.777 39.5339 113.777C38.6819 111.734 37.8299 109.69 36.9779 107.816C33.0587 109.179 29.1395 110.371 24.8795 111.734C25.2203 114.97 25.5611 118.547 26.2427 122.294C27.7763 132.343 30.6731 142.222 35.6147 151.079C38.0003 155.337 40.7267 159.254 43.2827 163.172C43.9643 164.364 44.9867 164.705 46.5202 164.705C50.9506 164.364 55.381 164.194 59.8114 164.023C62.0266 163.853 64.4122 163.683 66.6273 163.512C64.2418 160.787 62.197 158.232 59.9818 155.678C59.641 155.167 59.3002 154.485 58.9594 153.974C57.085 151.59 55.381 149.205 53.5066 146.991C52.3138 145.799 50.6098 145.117 49.417 143.925C47.2018 141.711 45.3275 139.156 43.4531 136.771C42.9419 136.09 42.9419 135.068 42.7715 134.217C43.2827 134.217 43.4531 134.387 43.6235 134.557C44.9867 138.475 48.0538 140.859 51.121 143.414C53.677 145.458 56.4034 147.332 58.4482 149.716C61.1746 152.952 63.2194 156.699 65.9458 160.106C70.2057 165.216 78.5553 168.111 85.3713 165.216C89.2904 163.512 93.7208 162.491 96.4472 158.743C97.64 157.21 99.1736 156.018 100.196 154.485C102.752 150.738 105.138 146.821 107.523 142.903C108.375 141.54 109.568 140.178 110.079 138.645C112.976 130.129 116.043 121.783 120.133 113.948C120.644 112.926 121.155 111.904 121.496 111.052C117.406 109.69 113.487 108.327 109.738 106.964C108.546 109.519 107.523 112.245 105.819 114.629C102.922 118.887 99.6848 122.975 96.6176 127.063C93.38 131.151 90.1424 135.238 86.7345 139.326C85.0305 141.37 83.1561 143.244 81.7929 145.458C80.7705 147.161 80.6001 149.375 79.9185 151.249C79.7481 151.76 79.2369 152.101 78.8961 152.441C78.7257 151.93 78.2145 151.59 78.2145 151.079C78.5553 149.375 79.0665 147.843 79.4073 146.139C79.5777 145.458 79.7481 144.777 79.7481 144.095C78.7257 137.623 77.7033 131.151 76.5105 124.508C75.9993 121.953 75.4881 119.228 74.8065 116.673C73.6137 112.074 72.5913 107.475 70.2057 103.217C69.0129 101.173 68.3313 99.1294 67.3089 97.0855C65.7754 94.0197 63.7306 91.8054 60.6634 90.4428C54.8698 87.7176 49.417 84.1408 42.6011 84.9924C39.7043 85.3331 36.6371 84.4815 33.3995 84.1408C32.5475 86.1847 31.6955 88.0583 30.8435 89.7615C30.8435 89.7615 30.8435 89.9319 30.8435 89.7615ZM37.4891 210.693C37.6595 211.374 37.6595 211.885 37.8299 212.566C38.1707 216.143 39.1931 219.72 39.0227 223.297C38.6819 230.961 38.0003 238.456 37.3187 246.12C36.8075 253.444 35.9555 260.598 35.4443 267.922C34.9331 276.609 34.7627 285.295 34.0811 293.982C33.7403 298.07 33.2291 302.328 32.2067 306.416C30.3323 313.569 27.9467 320.382 25.9019 327.536C24.1979 333.327 22.6644 339.118 21.1308 344.909C19.5972 351.041 18.234 357.173 16.8708 363.304C16.3596 365.859 16.0188 368.584 15.8484 371.139C15.1668 379.485 14.6556 387.661 13.8036 396.007C13.122 402.309 12.0996 408.441 11.2476 414.572C11.0772 415.424 10.7364 416.446 10.9068 417.297C11.2476 418.83 11.7588 420.363 12.6108 421.896C16.0188 428.369 21.3012 433.308 26.5835 438.077C28.6283 439.951 31.8659 440.632 34.7627 441.654C36.1259 442.165 37.8299 441.995 39.7043 442.335C38.8523 440.632 38.5115 439.099 37.4891 438.077C35.9555 436.204 34.4219 434.33 32.5475 432.797C29.4803 430.072 28.4579 426.495 27.9467 422.748C26.9243 416.616 28.2875 410.484 29.8211 404.523C32.0363 396.688 35.1035 389.194 37.6595 381.359C39.1931 376.76 40.2155 372.161 41.5787 367.562C42.6011 363.815 43.6235 360.238 44.4755 356.491C45.1571 353.596 45.4979 350.7 46.009 347.975C46.861 344.569 47.713 341.332 48.565 338.096C48.9058 336.393 49.2466 334.86 49.5874 333.157C50.4394 329.75 51.6322 326.514 52.3138 323.107C52.9954 320.042 53.3362 316.805 54.0178 313.569C54.529 311.355 55.0402 309.141 55.7218 306.927C56.7442 303.52 57.7666 300.114 59.3002 297.048C61.5154 292.449 64.0714 288.02 66.457 283.592C67.8201 280.696 69.0129 277.631 70.2057 274.735C71.2281 272.18 72.5913 269.796 73.4433 267.07C74.8065 262.812 75.8289 258.554 77.0217 254.296C81.1113 239.648 85.0305 225 87.2457 210.011C87.4161 208.649 87.2457 207.286 87.2457 205.924C85.0305 205.924 83.1561 205.924 81.1113 205.924C76.1697 205.753 71.2281 205.242 66.2866 205.413C60.493 205.583 54.6994 206.264 48.9058 206.945C44.8163 207.286 40.8971 207.967 37.4891 210.693ZM101.9 220.401C96.2768 223.126 92.1872 227.044 90.9944 233.346C90.3128 237.093 91.1648 239.478 94.4024 241.181C98.1512 243.055 102.07 242.544 105.649 240.67C108.886 238.967 111.783 236.923 114.68 234.879C118.258 232.494 122.348 231.983 126.608 232.154C128.482 232.154 130.016 233.176 131.038 234.879C132.401 237.263 132.401 239.478 130.527 241.522C126.267 245.609 122.007 249.357 117.747 253.444C115.191 255.829 112.806 258.213 110.59 260.939C109.057 262.642 109.057 267.922 110.079 269.114C112.465 271.84 116.043 272.691 119.11 270.647C121.666 268.944 124.052 267.07 126.267 265.026C129.675 261.961 133.083 259.235 137.513 257.702C140.24 256.851 142.455 255.148 143.989 252.763C145.181 251.06 146.204 249.016 147.226 247.142C148.76 244.076 152.168 241.862 155.065 242.544C158.643 243.225 161.881 242.203 164.948 240.5C162.051 224.659 158.473 208.989 153.02 192.979C151.316 195.023 149.782 196.726 148.249 198.259C146.545 199.962 145.693 202.006 145.352 204.22C145.011 206.264 144.67 208.308 144.159 210.182C142.966 215.291 140.069 218.698 134.787 219.72C132.061 220.231 129.675 219.55 127.119 218.698C123.37 217.506 119.792 217.165 115.873 219.039C113.317 220.231 110.42 220.912 107.694 221.593C105.99 222.104 103.774 221.934 101.9 220.401ZM70.7169 278.823C70.2057 279.334 70.0353 279.504 69.8649 279.845C66.457 286.147 63.049 292.619 59.641 298.921C58.9594 300.114 58.2778 301.306 57.937 302.668C57.085 306.416 56.5738 310.333 55.8922 314.251C55.2106 317.657 54.529 321.064 53.677 324.47C52.3138 329.921 50.9506 335.541 49.5874 340.992C48.3946 346.101 47.3722 351.382 46.1794 356.491C45.3275 360.409 44.1347 364.326 43.1123 368.584C44.8163 373.183 46.5202 378.123 48.7354 383.062C50.7802 388.001 52.1434 392.941 52.6546 398.221C53.1658 398.221 53.677 398.391 54.0178 398.221C56.4034 397.369 58.1074 398.562 59.3002 400.435C60.8338 402.99 62.5378 405.375 63.5602 408.1C65.2642 412.188 69.0129 415.254 72.0801 414.572C70.3761 412.699 68.1609 410.655 66.6273 408.27C63.2194 403.16 60.8338 397.54 61.1746 391.238C61.1746 389.705 61.8562 388.001 62.0266 386.469C62.197 382.721 62.197 378.804 62.5378 374.886C62.7082 370.969 62.7082 366.881 63.7306 362.964C65.605 355.299 66.2865 347.464 66.6273 339.459C66.9681 333.157 66.457 326.855 65.4346 320.553C64.9234 316.805 64.4122 312.547 65.9458 308.63C68.6721 301.987 69.0129 294.833 69.6945 287.68C69.8649 284.955 70.3761 282.229 70.7169 278.823ZM15.1668 70.3444C14.4852 72.5587 14.4852 74.4322 16.0188 76.1355C20.1084 80.564 18.5748 86.0144 14.6556 89.2506C15.5076 86.866 16.7004 84.6518 17.0412 82.2672C17.382 79.542 15.5076 77.4981 13.974 75.7949C11.7588 77.1575 9.88442 78.8607 7.66923 79.7123C5.96523 80.3936 4.94284 81.5859 4.09084 82.7782C3.06845 84.3111 2.21645 86.0144 1.02366 87.888C2.21645 87.888 2.89805 87.888 3.40925 87.888C3.75004 87.377 4.09084 87.0363 4.60204 86.1847C4.94284 89.4209 2.72765 89.0802 0.853257 89.7615C1.53485 90.4428 2.38685 91.1241 3.06845 90.9538C4.43164 90.6132 6.30603 90.4428 6.30603 88.2286C6.30603 87.0363 6.47643 86.0144 6.81723 84.8221C7.15803 83.2892 9.03242 82.0969 10.566 82.6079C8.01002 83.9705 7.66923 86.1847 7.49883 88.9099C7.49883 89.7615 6.30603 90.7835 5.62443 91.4648C5.11324 91.9758 4.26124 92.1461 3.75004 92.3164C3.75004 93.3384 3.92044 94.19 3.92044 95.212C3.92044 97.7668 4.60204 99.9811 6.64683 102.025C8.01002 103.217 8.52122 105.261 9.37322 106.964C10.2252 108.668 10.566 110.712 11.7588 112.245C12.6108 113.437 14.1444 114.459 15.5076 115.14C17.8932 116.503 20.4492 116.843 23.6868 116.673C23.346 114.288 23.346 112.074 22.6644 110.03C21.8124 107.816 20.79 105.602 21.3012 103.217C21.4716 102.195 21.4716 101.003 21.642 99.6404C20.9604 99.8107 20.4492 99.8107 19.938 99.9811C17.8932 101.344 18.0636 103.388 18.7452 105.602C18.234 105.431 17.7228 105.261 17.5524 104.921C16.53 103.388 17.0412 100.492 18.5748 99.2998C20.1084 98.1075 22.3236 97.7668 22.8348 95.3823C22.8348 95.212 23.1756 95.212 23.346 95.0416C27.0947 92.3164 29.9915 89.0802 31.6955 84.8221C32.2067 83.2892 32.7179 81.7562 32.7179 80.2233C32.7179 79.2014 31.8659 78.0091 31.3547 76.9871C28.6283 80.053 25.3907 81.0749 24.3683 79.3717C24.5387 79.2014 24.7091 79.031 25.0499 79.031C28.2875 78.6904 30.1619 76.8168 31.3547 73.9213C32.0363 72.218 32.8883 70.5148 33.9107 69.1522C35.4443 67.1082 35.4443 65.5753 33.7403 63.7017C30.8435 60.4656 30.6731 57.7403 32.8883 53.9932C33.3995 52.9712 34.0811 51.9493 34.4219 50.757C34.7627 49.3944 34.9331 47.8615 33.9107 46.8395C33.2291 48.7131 32.8883 50.5867 32.0363 52.2899C31.1843 54.1635 29.6507 54.8448 28.2875 53.9932C28.6283 53.8229 28.7987 53.8229 28.9691 53.6525C31.3547 52.1196 32.5475 49.0537 31.8659 46.3285C30.8435 41.9001 31.1843 37.8123 35.1035 34.7464C35.9555 34.0651 36.8075 33.2135 37.3187 32.1915C38.3411 30.4883 37.6595 28.9553 35.9555 27.7631C36.4667 27.5927 36.8075 27.4224 37.1483 27.2521C38.3411 26.7411 39.1931 24.5269 38.6819 23.3346C38.1707 22.3126 35.9555 21.8017 35.1035 22.6533C33.0587 24.5269 31.0139 26.5708 31.0139 29.4663C31.0139 34.0651 28.9691 36.7903 24.8795 38.4936C22.1532 39.6858 21.1308 41.5594 21.1308 44.455C21.1308 45.8176 20.9604 47.3505 20.6196 48.7131C20.1084 50.246 18.5748 50.757 17.2116 49.9054C19.5972 49.5647 19.938 47.8615 20.1084 45.9879C20.1084 45.4769 20.1084 44.7956 19.938 44.2846C19.5972 42.5814 19.7676 41.0484 21.3012 39.8562C23.0052 38.6639 24.7091 37.4716 26.4131 36.2793C29.1395 34.5761 30.1619 32.1915 29.4803 29.296C20.4492 32.3618 10.3956 47.3505 13.2924 54.5042C13.8036 53.6525 14.3148 52.6306 14.1444 51.779C13.974 49.735 14.6556 48.3724 15.8484 46.8395C16.53 45.9879 17.0412 44.7956 17.382 43.6033C17.8932 42.0704 18.234 40.3671 18.7452 38.6639C19.086 37.9826 19.7676 37.4716 20.2788 36.9606C19.7676 39.5155 19.2564 41.7297 18.5748 44.1143C18.234 45.3066 17.7228 46.8395 16.8708 47.6911C15.8484 48.7131 15.1668 49.735 15.3372 51.268C15.5076 52.8009 15.3372 54.3338 13.8036 55.3558C13.2924 55.6964 13.122 56.5481 12.9516 57.2294C12.7812 57.7403 12.9516 58.2513 12.9516 58.592C12.4404 61.4875 10.7364 63.7017 8.52122 65.405C5.11324 68.4709 4.77244 71.3664 7.66923 74.9432C10.2252 74.0916 11.2476 72.3883 11.0772 69.8335C11.0772 67.6192 11.9292 66.0863 13.6332 64.894C15.1668 63.8721 16.0188 62.5095 15.678 60.4656C14.6556 55.6964 17.8932 51.4383 22.6644 50.757C22.8348 50.757 23.0052 50.9273 23.5164 51.0977C22.1532 51.9493 21.3012 52.6306 20.1084 53.1416C17.0412 54.5042 16.1892 57.059 16.8708 60.1249C17.5524 62.8501 16.53 64.7237 14.3148 66.0863C12.6108 67.1082 12.27 68.6412 12.6108 70.5148C12.7812 71.3664 12.6108 72.3883 12.0996 73.0696C10.9068 74.4322 9.37322 75.6245 8.01002 76.9871C7.83962 76.6465 7.66923 76.6465 7.49883 76.4762C7.32843 77.1575 7.32843 77.8388 7.15803 78.6904C8.18042 78.0091 9.03242 77.6684 9.71402 77.1575C11.7588 75.7948 13.6332 74.6026 13.6332 71.707C13.6332 70.6851 14.826 69.1522 15.8484 68.4709C18.4044 66.7676 19.2564 65.0643 18.5748 62.1688C17.8932 59.2733 19.2564 55.8668 21.4716 54.5042C22.494 53.8229 23.6868 53.4822 24.8795 52.9712C29.8211 50.757 30.1619 49.735 27.4355 45.1363C26.2427 43.0924 26.4131 40.0265 27.9467 38.8342C27.9467 39.1749 28.1171 39.5155 28.1171 39.6858C27.4355 42.0704 28.2875 43.944 29.8211 45.8176C31.1843 47.5208 30.8435 50.9273 28.9691 52.1196C27.4355 53.1416 25.9019 53.9932 24.1979 54.6745C21.8124 55.6964 20.1084 57.059 19.938 59.7842C19.938 61.1469 20.2788 62.5095 20.2788 63.7017C20.2788 66.7676 18.4044 68.4709 16.0188 69.8335C16.1892 70.1741 16.1892 70.5148 16.3596 71.0257C15.8484 70.8554 15.678 70.6851 15.1668 70.3444ZM103.093 322.767C103.093 323.618 102.922 324.3 102.922 325.151C103.093 330.431 103.434 335.712 103.604 340.992C103.774 345.761 103.945 350.53 104.286 355.299C104.626 361.771 105.308 368.073 105.308 374.546C105.308 379.145 104.797 383.573 104.456 388.172C104.456 389.534 104.456 391.067 104.456 392.6C104.456 392.941 104.626 393.282 104.797 393.622C105.308 394.985 105.99 396.177 106.16 397.54C106.33 399.243 105.819 400.776 105.478 403.16C106.842 402.139 108.034 401.457 109.057 400.606C109.909 399.924 110.59 398.732 111.613 398.221C113.658 397.199 115.873 396.347 118.088 395.496C118.258 393.793 118.258 391.749 118.599 389.875C119.281 384.765 119.962 379.656 122.348 374.886C122.689 374.035 122.859 373.013 122.859 372.161C122.518 367.392 122.007 362.623 121.666 357.854C121.326 353.766 121.496 349.508 121.325 345.42C120.985 341.162 120.474 336.734 120.133 332.475C119.622 328.047 119.281 323.618 118.94 319.19C113.658 320.382 108.546 321.575 103.093 322.767ZM39.1931 28.6147C40.2155 31.8509 38.5115 33.8948 36.2963 35.7684C35.7851 36.2793 35.2739 36.9606 34.7627 37.4716C32.7179 39.6858 32.0363 43.0924 34.7627 45.4769C36.2963 47.0098 36.6371 49.0537 35.9555 51.0977C35.4443 52.4603 34.7627 53.6525 34.0811 55.0151C32.3771 57.7403 32.5475 59.9546 34.7627 62.5095C36.9779 64.894 37.1483 66.9379 35.2739 69.6631C34.7627 70.3444 34.4219 71.0257 33.9107 71.707C32.5475 73.5806 32.7179 75.6245 33.0587 77.8388C33.3995 79.542 33.9107 81.4156 34.4219 83.4595C34.4219 83.4595 34.7627 83.6298 35.1035 83.6298C40.0451 83.9705 44.8163 84.4814 49.5874 84.8221C48.0538 82.6079 46.1794 80.564 44.6459 78.1794C42.7715 74.9432 44.3051 71.0257 47.5426 70.1741C51.4618 68.9818 55.2106 67.6192 59.1298 66.2566C61.8562 65.2347 62.5378 63.0204 61.0042 60.4656C59.3002 60.4656 57.5962 60.4656 55.7218 60.4656C59.3002 57.2294 59.8114 56.3777 60.8338 52.9712C61.1746 51.6086 61.1746 50.9273 59.4706 50.9273C56.7442 50.9273 55.2106 49.5647 54.3586 47.0098C52.9954 42.922 52.4842 38.4936 49.5874 35.0871C46.861 31.5102 43.4531 29.6366 39.1931 28.6147ZM119.622 109.008C122.859 103.047 125.926 97.4262 128.993 91.8055C130.016 89.9319 131.209 88.0583 132.231 86.1847C133.253 84.1408 133.935 81.9266 134.787 79.7123C133.594 81.0749 132.742 82.6079 131.89 83.9705C131.549 84.4814 130.697 84.4814 130.016 84.8221C129.845 84.1408 129.334 83.4595 129.505 82.9485C130.016 81.0749 130.697 79.2014 131.209 77.1575C131.72 75.2839 132.061 73.4103 132.572 71.5367C132.401 71.5367 132.061 71.3664 131.89 71.3664C131.549 72.0477 131.038 72.8993 130.697 73.5806C129.845 75.2839 129.164 76.9871 128.312 78.5201C127.971 79.2014 126.949 79.3717 126.267 79.8827C126.097 79.7123 125.926 79.542 125.756 79.3717C126.778 74.0916 127.63 68.9818 128.653 63.7017C128.482 63.7017 128.141 63.5314 127.971 63.5314C126.267 68.6412 124.904 73.9213 122.177 78.8607C120.814 74.9432 123.881 71.0257 122.177 66.7676C121.837 67.2786 121.666 67.4489 121.666 67.7895C120.303 72.218 118.94 76.6465 117.577 81.0749C117.066 82.9485 116.384 84.8221 115.702 86.6957C115.362 87.377 114.68 87.888 114.169 88.5693C113.998 88.3989 113.828 88.3989 113.487 88.2286C113.658 85.8441 113.658 83.2892 113.828 80.9046C113.658 80.9046 113.487 80.9046 113.317 80.9046C113.146 81.9266 112.976 83.1188 112.635 84.1408C111.954 87.2067 110.42 90.2725 111.442 93.679C112.635 97.7668 113.998 102.025 112.635 106.453C112.635 106.453 112.806 106.624 112.806 106.794C114.85 107.305 117.406 108.157 119.622 109.008ZM128.482 443.017C128.312 442.846 128.141 442.676 127.971 442.506C129.675 440.632 131.549 438.758 133.253 436.715C135.128 434.33 137.684 432.286 136.661 428.709C136.491 427.858 136.661 426.836 136.321 425.984C135.809 424.451 135.298 422.918 134.276 421.556C133.935 421.045 132.572 421.215 131.72 420.874C129.334 420.023 125.756 421.726 124.733 423.94C122.007 430.072 118.429 435.693 113.658 440.462C112.294 441.824 110.761 443.017 109.398 444.379C108.205 445.742 108.546 446.934 109.909 447.615C112.976 449.148 116.384 448.297 119.451 447.956C124.222 447.615 128.312 445.401 132.231 442.676C136.491 439.78 139.729 436.033 142.285 431.605C143.818 428.88 144.159 426.154 144.159 423.259C138.706 429.902 135.98 438.418 128.482 443.017ZM74.1249 14.137C69.8649 17.3732 65.4346 18.2248 60.6634 17.3732C60.1522 17.3732 59.3002 17.8842 59.1298 18.3952C58.6186 20.6094 57.937 22.9939 58.1074 25.2082C58.6186 29.4663 60.493 33.2135 63.5602 36.4497C65.4346 38.4936 67.6497 40.3671 67.6497 43.433C67.6497 45.1363 67.4793 47.0098 67.3089 48.8834C69.6945 47.5208 71.7393 47.8615 73.6137 50.246C74.4657 48.8834 75.1473 47.8615 76.1697 46.4989C77.1921 48.7131 76.1697 49.9054 74.9769 51.0977C75.1473 51.268 75.3177 51.4383 75.4881 51.6086C75.6585 51.779 75.9993 51.779 76.6809 52.1196C80.9409 39.1749 78.5553 26.7411 74.1249 14.137ZM84.1785 180.886C83.6673 181.056 83.1561 181.056 82.6449 181.226C73.1025 184.122 63.3898 186.847 53.8474 189.743C49.2466 191.105 45.8387 193.83 44.6459 198.77C44.4755 199.111 44.3051 199.451 44.1347 199.621C43.1123 201.154 42.0899 202.858 41.0675 204.391C45.8387 203.709 48.9058 200.984 47.5426 198.089C48.3946 197.918 49.7578 197.237 50.0986 197.578C51.8026 199.281 49.5874 200.643 49.2466 202.176C52.1434 202.517 52.9954 202.006 52.6546 199.792C53.5066 199.451 54.529 199.111 55.5514 198.6C55.5514 199.621 55.7218 200.643 55.7218 201.836C56.0626 201.665 56.7442 201.325 57.2554 200.984C59.3002 198.94 61.1746 196.556 64.5826 197.237C64.9234 197.237 65.4346 196.896 65.7754 196.726C64.2418 194.852 64.753 193.149 65.7754 191.616C66.2866 190.935 67.1385 190.424 68.3313 189.572C68.3313 190.765 68.3313 191.276 68.3313 192.127C70.0353 191.105 71.3985 190.083 72.7617 189.232C73.2729 188.891 73.7841 188.891 74.2953 188.891C74.4657 189.402 74.6361 190.083 74.4657 190.594C74.1249 191.446 73.4433 192.298 72.7617 192.979C71.2281 194.341 69.1833 195.534 68.1609 197.067C66.7978 199.111 65.2642 199.621 63.049 199.792C62.197 199.792 61.1746 200.473 60.3226 200.814C60.3226 200.984 60.493 201.154 60.493 201.325C60.6634 201.325 61.0042 201.325 61.1746 201.325C63.3898 201.325 65.605 201.325 67.8201 201.325C68.8425 201.325 70.2057 201.665 70.8873 201.154C72.7617 199.451 74.4657 197.407 76.3401 195.363C75.4881 194.171 76.1697 192.979 77.1921 191.787C77.7033 191.276 77.8737 190.594 78.3849 190.254C79.2369 189.743 80.2593 189.572 81.1113 189.232C80.9409 190.083 80.7705 190.935 80.6001 191.957C80.4297 192.808 79.9185 193.66 79.7481 194.512C79.5777 195.363 79.7481 196.556 79.2369 197.237C78.2145 198.77 76.8513 199.962 75.4881 201.495C79.0665 201.495 82.4745 201.495 85.3713 201.495C89.4608 198.089 87.5865 194.341 86.5641 190.424C85.3713 191.446 84.5193 192.468 83.3265 193.319C82.9857 193.49 82.3041 193.49 81.7929 193.319C81.6225 193.149 81.4521 192.297 81.7929 191.957C82.9857 190.424 84.1785 188.891 85.3713 187.358C85.5417 187.528 85.7121 187.528 85.8825 187.699C85.5417 186.506 85.2009 185.144 84.8601 183.781C84.0081 184.463 83.3265 185.144 82.4745 185.484C81.6225 185.825 80.7705 186.166 79.7481 186.336C78.2145 186.506 77.7033 185.655 78.3849 184.292C80.6001 184.803 84.5193 182.248 84.1785 180.886ZM109.398 191.105C107.182 191.105 104.797 191.276 102.411 191.105C98.6624 190.935 94.4024 189.061 95.7656 183.781C94.5728 183.611 93.5504 183.441 92.3576 183.27C92.1872 183.781 92.1872 184.292 92.0168 184.803C91.5056 189.572 90.9944 194.341 90.4832 199.111C90.1424 202.006 89.8016 204.902 89.2904 207.797C88.9497 209.5 89.8016 210.182 91.1648 210.693C94.0616 211.885 96.788 211.204 99.5144 210.522C104.115 209.33 107.182 204.902 106.501 201.325C105.649 197.067 106.671 193.66 109.398 191.105ZM85.5417 138.304C85.3713 137.623 85.2009 137.112 85.0305 136.601C83.6673 132.343 82.3041 128.085 81.1113 123.656C79.7481 119.058 80.2593 114.629 83.1561 110.712C87.5865 104.58 89.972 97.7668 89.972 89.7615C88.9496 90.9538 87.9273 91.9758 87.2457 93.1681C85.7121 95.5526 84.0081 97.9372 82.6449 100.492C80.6001 104.069 78.7257 107.646 76.8513 111.223C75.9993 112.755 75.6585 114.629 76.5105 116.332C77.0217 117.525 77.3625 118.887 77.5329 120.25C78.5553 126.552 79.7481 132.684 80.7705 138.986C80.9409 140.178 81.1113 141.37 81.2817 142.562C82.6449 141.03 84.0081 139.837 85.5417 138.304ZM45.8386 178.842C39.1931 182.759 37.3187 185.144 35.9555 192.468C35.2739 195.874 35.2739 199.451 36.8075 203.198C38.3411 201.836 39.7043 200.303 40.8971 198.77C42.9419 196.556 45.1571 194.341 47.2018 191.957C47.8834 191.276 48.3946 189.913 48.2242 189.061C47.5426 185.655 46.6906 182.419 45.8386 178.842ZM131.038 174.754C127.63 177.99 127.63 182.248 130.697 185.144C131.549 185.825 131.379 186.506 130.357 187.017C128.312 187.869 126.267 188.721 124.222 189.572C120.814 190.765 117.406 192.127 114.68 194.682C113.487 195.874 112.465 197.237 113.146 198.94C114.51 202.347 114.68 205.242 111.783 208.138C112.465 208.138 112.976 208.138 113.317 207.797C115.532 206.094 116.554 203.709 116.384 200.814C116.214 197.067 117.747 194.512 121.325 192.979C126.097 190.935 130.697 188.721 135.298 186.677C135.639 186.506 135.809 186.166 136.321 185.825C134.617 184.292 131.209 185.144 131.209 182.078C131.209 179.864 131.72 177.82 132.061 175.265C132.061 175.265 131.549 174.924 131.038 174.754ZM153.361 290.575C151.827 294.322 149.612 297.218 146.204 299.092C138.706 303.179 130.527 305.734 122.348 307.608C120.814 307.949 119.451 308.46 118.088 309.311C116.895 309.992 115.873 311.185 116.895 312.547C117.406 313.229 118.77 313.399 119.792 313.74C120.644 309.992 123.37 309.481 125.926 308.8C129.334 307.949 132.742 307.267 136.321 306.416C142.285 304.883 147.737 302.328 151.827 297.559C153.19 296.026 154.042 293.982 155.235 292.108C154.383 291.427 154.042 291.257 153.361 290.575ZM86.3937 246.291C86.0529 247.483 85.5417 248.505 85.5417 249.697C85.3713 250.549 85.5417 251.571 85.8825 252.422C87.7569 255.829 93.2096 257.702 96.9584 256.17C98.8328 255.318 100.707 254.126 102.411 252.763C106.671 249.186 110.59 245.098 115.873 242.714C118.429 241.522 121.155 240.329 124.393 238.967C123.37 238.796 122.859 238.456 122.518 238.626C115.362 240.329 109.057 243.395 104.115 249.016C101.048 252.593 97.1288 254.637 92.3576 254.296C89.12 254.126 87.0753 251.06 88.268 248.164C88.4384 247.483 88.7792 246.972 89.12 246.12C87.7569 246.291 87.0753 246.291 86.3937 246.291ZM115.702 54.8448C114.169 52.9712 112.806 51.268 111.272 49.3944C108.716 55.1855 106.33 60.8062 103.945 66.7676C108.546 64.383 113.487 59.2733 115.702 54.8448ZM81.1113 13.4557C80.9409 13.4557 80.9409 13.626 80.7705 13.626C81.7929 16.3512 82.8153 19.0765 84.0081 21.6313C87.0753 27.5927 88.4385 33.8948 87.5865 40.7078C87.0753 43.7737 86.2233 46.8395 85.2009 50.4164C87.5865 47.5208 89.2904 44.6253 89.8016 41.5594C90.9944 34.0651 88.6088 27.0818 85.2009 20.4391C84.0081 18.0545 82.4745 15.8403 81.1113 13.4557ZM37.1483 208.308C37.3187 208.308 37.3187 208.478 37.4891 208.478C39.8747 207.627 42.0899 206.605 44.4755 206.094C49.7578 205.242 55.2106 204.391 60.6634 204.22C67.9905 203.88 75.4881 204.22 82.8153 204.22C84.3489 204.22 85.8825 204.22 87.4161 204.22C87.4161 204.05 87.4161 203.88 87.5865 203.539C87.0753 203.369 86.5641 203.198 86.0529 203.198C82.4745 203.028 78.8961 203.028 75.4881 203.028C71.7393 202.858 68.1609 202.517 64.4122 202.517C61.345 202.517 58.1074 203.198 55.0402 203.369C49.2466 203.709 43.6235 204.731 38.3411 207.286C37.8299 207.456 37.4891 207.967 37.1483 208.308ZM88.9496 192.468C89.12 192.468 89.12 192.468 89.2904 192.468C89.8016 188.039 90.3128 183.441 90.9944 178.671C89.2904 179.523 87.7569 180.375 86.2233 181.226C87.0753 184.633 87.9273 188.039 88.6088 191.276C88.6088 191.616 88.7792 192.127 88.9496 192.468ZM87.2457 88.9099C82.9857 87.0363 81.7929 84.6518 82.3041 78.8607C80.6001 81.5859 79.5777 84.1408 80.4297 87.0363C81.2817 90.1022 84.8601 91.1241 87.2457 88.9099ZM80.2593 284.103C80.4297 284.273 80.4297 284.444 80.6001 284.614C79.2369 286.317 78.0441 288.191 76.5105 289.724C75.1473 291.086 73.2729 292.279 71.7393 293.471C71.2281 293.812 71.0577 294.663 70.3761 295.685C76.5105 293.471 81.7929 288.702 81.6225 284.444C81.2817 284.444 80.7705 284.273 80.2593 284.103ZM69.8649 165.727C68.3313 164.534 46.861 165.727 45.8386 166.919C53.8474 166.578 61.6858 166.067 69.8649 165.727Z" fill="#201B20"/>
<path id="Vector_2" d="M38.6816 89.0802C39.3632 88.7396 39.8744 88.3989 40.2152 88.3989C41.2376 88.5693 42.4304 88.7396 43.2824 89.4209C48.0536 92.3164 50.9504 96.9152 53.336 101.684C53.5064 102.025 53.336 102.706 53.5064 103.388C52.9952 103.217 52.6544 103.047 52.484 102.877C51.2912 101.003 50.2688 99.1294 48.9056 97.4262C47.0312 95.0416 44.816 92.6571 42.6008 90.4428C41.7488 89.5912 40.3856 89.5912 38.6816 89.0802Z" fill="#201B20"/>
<path id="Vector_3" d="M35.9557 114.118C39.1932 119.398 42.6012 124.678 46.0092 130.129C42.7716 129.958 35.2741 117.695 35.9557 114.118Z" fill="#201B20"/>
<path id="Vector_4" d="M63.3887 106.794C65.9447 107.646 70.7158 120.761 69.1822 124.167C67.1374 118.206 65.2631 112.415 63.3887 106.794Z" fill="#201B20"/>
<path id="Vector_5" d="M50.6089 113.437C50.9497 113.778 51.4608 114.118 51.8016 114.459C54.528 117.525 57.084 120.591 59.8104 123.827C60.1512 124.168 60.1512 124.849 59.9808 125.53C54.8688 122.975 53.1648 117.865 50.0977 113.948C50.2681 113.607 50.4385 113.437 50.6089 113.437Z" fill="#201B20"/>
<path id="Vector_6" d="M61.6858 143.244C58.789 144.266 50.7802 139.326 49.7578 136.431C53.8474 138.645 57.7666 140.859 61.6858 143.244Z" fill="#201B20"/>
<path id="Vector_7" d="M136.661 293.982C135.128 294.833 134.276 295.514 133.253 295.855C133.083 295.855 132.061 294.663 132.061 293.982C132.061 292.619 132.913 291.767 134.276 291.938C134.957 292.278 135.469 292.96 136.661 293.982Z" fill="#201B20"/>
<path id="Vector_8" d="M108.205 302.328C108.205 304.371 107.524 305.053 106.161 304.882C105.649 304.712 104.627 303.86 104.627 303.349C104.627 301.987 105.479 301.135 106.842 301.135C107.694 301.135 108.035 302.157 108.205 302.328Z" fill="#201B20"/>
<path id="Vector_9" d="M115.361 289.383C113.998 290.405 113.316 290.916 112.464 291.597C111.953 290.916 110.931 290.064 111.101 289.553C111.271 288.872 112.123 288.02 112.975 287.68C113.316 287.68 114.168 288.702 115.361 289.383Z" fill="#201B20"/>
<path id="Vector_10" d="M138.024 291.427C137.342 290.235 136.49 289.383 136.661 289.042C137.172 288.191 138.024 287.509 138.706 286.828C139.217 287.339 140.41 288.191 140.239 288.531C139.898 289.383 139.046 290.064 138.024 291.427Z" fill="#201B20"/>
<path id="Vector_11" d="M140.752 277.801C139.388 278.823 138.707 279.504 137.684 279.845C137.344 280.015 136.151 278.482 136.321 278.142C136.832 277.29 137.514 276.609 138.366 276.268C138.707 276.098 139.559 276.949 140.752 277.801Z" fill="#201B20"/>
<path id="Vector_12" d="M121.836 287.68C122.177 288.361 123.029 289.213 122.859 289.553C122.348 290.405 121.325 291.086 120.473 291.768C120.473 291.768 119.11 290.746 119.28 290.405C119.621 289.383 120.303 288.531 120.984 287.68C121.155 287.509 121.496 287.68 121.836 287.68Z" fill="#201B20"/>
<path id="Vector_13" d="M107.863 292.278C108.204 292.789 108.886 293.471 108.886 293.982C109.056 295.344 108.204 296.196 106.841 296.025C106.33 296.025 105.308 295.003 105.478 294.663C105.819 293.811 106.5 292.96 107.182 292.108C107.182 292.278 107.523 292.278 107.863 292.278Z" fill="#201B20"/>
<path id="Vector_14" d="M118.599 294.833C117.406 295.855 116.895 296.707 116.213 296.877C115.872 296.877 114.68 295.685 114.68 295.174C114.68 294.493 115.532 293.471 116.213 293.3C116.554 293.13 117.406 293.982 118.599 294.833Z" fill="#201B20"/>
<path id="Vector_15" d="M117.407 281.718C118.259 282.911 119.111 283.762 118.94 284.273C118.599 284.954 117.747 285.636 117.066 285.976C116.725 286.147 115.362 284.954 115.532 284.614C115.873 283.762 116.555 283.081 117.407 281.718Z" fill="#201B20"/>
<path id="Vector_16" d="M100.876 297.218C101.728 298.41 102.751 299.262 102.58 299.602C102.24 300.454 101.388 301.135 100.706 301.646C100.536 301.817 99.1724 300.624 99.3428 300.284C99.3428 299.262 100.024 298.58 100.876 297.218Z" fill="#201B20"/>
<path id="Vector_17" d="M104.455 308.63C103.773 309.141 102.921 309.822 102.24 309.992C101.728 309.992 101.047 309.141 100.365 308.63C101.047 308.119 101.558 307.097 102.24 306.926C102.751 306.756 103.603 307.437 104.284 307.778C104.284 307.948 104.455 308.289 104.455 308.63Z" fill="#201B20"/>
<path id="Vector_18" d="M124.733 287.68C124.051 286.658 123.199 285.806 123.37 285.636C124.051 284.784 124.903 284.103 125.755 283.592C125.926 283.592 127.118 284.784 126.948 284.954C126.607 285.806 125.755 286.487 124.733 287.68Z" fill="#201B20"/>
<path id="Vector_19" d="M135.808 270.988C136.49 272.01 137.001 272.521 137.001 273.032C137.001 274.394 135.979 275.076 134.616 274.905C134.104 274.905 133.593 274.224 133.082 273.883C133.934 273.032 134.786 272.18 135.808 270.988Z" fill="#201B20"/>
<path id="Vector_20" d="M104.796 290.405C103.603 291.257 102.751 291.938 101.899 292.449C101.899 292.449 100.877 291.597 100.877 291.257C100.877 290.064 101.047 288.702 102.581 288.702C103.092 288.872 103.774 289.553 104.796 290.405Z" fill="#201B20"/>
<path id="Vector_21" d="M96.4477 309.141C97.2996 310.333 98.1516 311.185 98.1516 311.695C98.1516 312.377 97.1292 312.888 96.4477 313.569C95.9365 312.888 95.0845 312.377 94.9141 311.695C94.9141 311.185 95.7661 310.503 96.4477 309.141Z" fill="#201B20"/>
<path id="Vector_22" d="M119.791 278.652C121.154 277.801 121.836 277.12 122.688 276.779C123.029 276.609 124.051 277.971 124.051 278.141C123.54 278.993 122.858 279.674 122.006 280.015C121.665 280.356 120.813 279.504 119.791 278.652Z" fill="#201B20"/>
<path id="Vector_23" d="M113.657 278.823C113.998 279.334 114.85 280.185 114.68 280.356C114.169 281.207 113.317 281.889 112.465 282.57C112.124 282.229 111.272 281.548 111.442 281.378C111.783 280.356 112.465 279.674 112.805 278.652C113.146 278.823 113.487 278.823 113.657 278.823Z" fill="#201B20"/>
<path id="Vector_24" d="M131.549 284.103C132.742 283.251 133.423 282.399 134.105 282.229C134.616 282.229 135.298 283.081 135.809 283.592C135.127 284.273 134.616 285.125 133.934 285.465C133.423 285.636 132.742 284.784 131.549 284.103Z" fill="#201B20"/>
<path id="Vector_25" d="M110.591 295.685C111.443 296.877 112.295 297.559 112.124 298.07C111.954 298.751 111.102 299.603 110.42 299.773C110.08 299.943 108.887 298.751 108.887 298.41C109.057 297.729 109.739 297.048 110.591 295.685Z" fill="#201B20"/>
<path id="Vector_26" d="M96.7874 305.905C96.1058 306.416 95.4242 307.097 94.5722 307.267C94.2314 307.267 93.209 306.075 93.209 305.564C93.3794 304.883 94.2314 304.031 94.7426 303.861C95.2538 303.69 95.9354 304.542 96.617 304.883C96.7874 305.394 96.7874 305.564 96.7874 305.905Z" fill="#201B20"/>
<path id="Vector_27" d="M86.7333 307.608C85.8813 306.415 85.0293 305.734 85.1997 305.393C85.5405 304.542 86.3925 303.861 86.9037 303.179C87.4149 303.69 88.2668 304.201 88.2668 304.712C88.2668 305.564 87.5853 306.245 86.7333 307.608Z" fill="#201B20"/>
<path id="Vector_28" d="M107.011 313.91C105.819 314.591 105.137 315.443 104.626 315.443C104.115 315.443 103.433 314.591 102.922 314.08C103.603 313.399 104.115 312.547 104.796 312.206C105.137 312.036 105.989 312.888 107.011 313.91Z" fill="#201B20"/>
<path id="Vector_29" d="M132.231 288.872C130.868 289.894 130.186 290.575 129.334 290.745C129.164 290.916 127.971 289.723 128.142 289.383C128.482 288.531 128.994 287.679 129.846 287.339C130.016 287.168 131.038 288.02 132.231 288.872Z" fill="#201B20"/>
<path id="Vector_30" d="M127.289 270.817C128.141 272.01 129.164 272.861 128.993 273.202C128.653 273.883 127.801 274.565 127.119 274.905C126.949 275.076 125.756 273.883 125.756 273.543C125.756 272.861 126.437 272.18 127.289 270.817Z" fill="#201B20"/>
<path id="Vector_31" d="M77.533 311.696C76.1698 312.377 75.4882 312.888 74.6362 313.059C74.2954 313.059 73.4434 312.037 73.4434 311.866C73.9546 311.015 74.6362 310.333 75.4882 309.822C75.6586 309.822 76.5106 310.674 77.533 311.696Z" fill="#201B20"/>
<path id="Vector_32" d="M110.419 285.636C109.226 286.658 108.545 287.339 107.693 287.68C107.522 287.68 106.5 286.658 106.5 286.488C107.011 285.636 107.693 284.784 108.374 284.103C108.374 283.933 109.226 284.784 110.419 285.636Z" fill="#201B20"/>
<path id="Vector_33" d="M96.446 290.916C95.2532 291.767 94.5716 292.449 93.7196 292.789C93.3788 292.96 92.186 291.427 92.3564 291.427C92.8676 290.745 93.5492 290.064 94.2308 289.553C94.742 289.383 95.4236 290.064 96.446 290.916Z" fill="#201B20"/>
<path id="Vector_34" d="M127.46 294.323C126.267 295.174 125.756 295.856 125.074 295.856C124.733 295.856 123.711 294.834 123.711 294.493C123.881 293.812 124.563 292.96 125.245 292.619C125.415 292.449 126.267 293.471 127.46 294.323Z" fill="#201B20"/>
<path id="Vector_35" d="M131.889 279.334C130.697 280.185 130.185 280.696 129.333 281.037C129.163 281.037 128.141 280.015 128.141 279.674C128.481 278.823 129.163 278.312 129.674 277.46C130.185 277.971 130.867 278.482 131.889 279.334Z" fill="#201B20"/>
<path id="Vector_36" d="M143.477 265.197C142.795 264.175 142.284 263.664 141.943 263.153C142.795 262.642 143.477 261.961 144.329 261.45C144.499 261.45 145.522 262.301 145.351 262.472C145.011 263.323 144.329 264.005 143.477 265.197Z" fill="#201B20"/>
<path id="Vector_37" d="M90.823 296.196C90.1414 296.537 89.4598 297.218 88.7782 297.388C88.4374 297.388 87.415 296.196 87.5854 296.026C87.9262 295.344 88.6078 294.493 89.2894 294.152C89.6302 293.982 90.3118 294.833 90.9934 295.344C90.823 295.685 90.823 295.855 90.823 296.196Z" fill="#201B20"/>
<path id="Vector_38" d="M88.6094 315.443C89.8022 314.761 90.3134 314.08 90.995 313.91C91.5062 313.91 92.0174 314.761 92.5286 315.272C91.847 315.954 91.3358 316.635 90.6542 316.976C90.3134 317.146 89.6318 316.294 88.6094 315.443Z" fill="#201B20"/>
<path id="Vector_39" d="M97.1289 317.146C98.3217 316.295 98.8329 315.613 99.5145 315.613C100.026 315.613 100.878 316.806 100.878 317.146C100.707 317.828 99.8553 318.509 99.1737 318.849C98.8329 318.679 98.1513 317.828 97.1289 317.146Z" fill="#201B20"/>
<path id="Vector_40" d="M75.4885 306.416C74.9773 306.927 74.2957 307.778 73.6141 307.778C73.103 307.778 72.5918 306.927 71.9102 306.586C72.5918 305.905 73.2733 305.053 74.1253 304.713C74.4661 304.542 75.3181 305.053 75.8293 305.223C75.8293 305.564 75.6589 306.075 75.4885 306.416Z" fill="#201B20"/>
<path id="Vector_41" d="M86.5645 310.504C87.5868 309.652 88.2684 308.971 88.95 308.971C89.2908 308.971 89.9724 309.822 90.3132 310.163C89.6316 310.844 89.1204 311.526 88.4389 312.037C88.2685 312.037 87.4165 311.185 86.5645 310.504Z" fill="#201B20"/>
<path id="Vector_42" d="M136.49 261.62C137.172 262.642 138.024 263.153 137.853 263.664C137.683 264.345 136.831 265.197 136.32 265.197C135.638 265.197 135.127 264.345 134.445 263.834C135.127 263.153 135.638 262.642 136.49 261.62Z" fill="#201B20"/>
<path id="Vector_43" d="M86.7332 299.943C85.37 300.795 84.6884 301.306 83.8364 301.476C83.666 301.476 82.6436 300.284 82.814 300.113C83.3252 299.432 84.0068 298.751 84.6884 298.41C85.0292 298.58 85.7108 299.262 86.7332 299.943Z" fill="#201B20"/>
<path id="Vector_44" d="M144.499 283.422C143.306 284.103 142.795 284.784 141.943 284.954C141.602 284.954 141.091 284.103 140.58 283.592C141.262 283.081 141.943 282.4 142.625 282.059C142.966 281.889 143.647 282.57 144.499 283.422Z" fill="#201B20"/>
<path id="Vector_45" d="M139.557 269.966C138.876 268.944 138.194 268.092 138.364 267.922C138.876 267.241 139.557 266.559 140.409 266.219C140.58 266.219 141.602 267.241 141.602 267.411C141.091 268.263 140.58 268.944 139.557 269.966Z" fill="#201B20"/>
<path id="Vector_46" d="M102.581 285.636C101.388 286.487 100.706 287.169 99.8544 287.509C99.684 287.509 98.832 286.487 98.832 286.487C99.3432 285.636 100.025 284.954 100.706 284.443C100.877 284.273 101.558 284.954 102.581 285.636Z" fill="#201B20"/>
<path id="Vector_47" d="M99.1732 295.174C98.1508 296.026 97.4692 296.537 96.7876 297.048C96.6172 297.048 95.5948 296.026 95.7652 295.685C96.106 295.004 96.6172 294.323 97.2988 293.812C97.4692 293.812 98.1508 294.493 99.1732 295.174Z" fill="#201B20"/>
<path id="Vector_48" d="M108.546 281.037C107.523 281.889 106.842 282.57 106.16 282.74C105.819 282.911 105.308 281.889 104.797 281.378C105.308 280.867 105.819 280.185 106.501 279.845C106.842 279.845 107.523 280.526 108.546 281.037Z" fill="#201B20"/>
<path id="Vector_49" d="M94.2322 300.284C93.2098 301.136 92.6986 301.647 92.017 301.987C91.8466 301.987 90.8242 300.965 90.8242 300.625C91.165 299.943 91.8466 299.262 92.3578 298.921C92.6986 298.921 93.3802 299.603 94.2322 300.284Z" fill="#201B20"/>
<path id="Vector_50" d="M116.043 275.586C117.065 274.905 117.747 274.394 118.258 274.394C118.769 274.394 119.621 275.416 119.621 275.416C119.281 276.097 118.599 276.779 118.088 277.29C117.577 276.779 117.065 276.438 116.043 275.586Z" fill="#201B20"/>
<path id="Vector_51" d="M84.8592 313.058C83.8368 313.91 83.3256 314.591 82.8144 314.591C82.3032 314.591 81.4512 313.74 81.4512 313.058C81.4512 312.547 82.3032 311.696 82.8144 311.696C83.1552 311.696 83.8368 312.377 84.8592 313.058Z" fill="#201B20"/>
<path id="Vector_52" d="M92.0176 319.36C92.8696 318.679 93.5512 317.827 93.892 317.998C94.5736 318.168 95.2552 319.02 95.2552 319.531C95.2552 320.042 94.4032 320.893 93.892 321.063C93.5512 321.063 92.8696 320.212 92.0176 319.36Z" fill="#201B20"/>
<path id="Vector_53" d="M78.5552 305.905C77.8736 305.053 77.192 304.372 77.3624 304.201C77.8736 303.52 78.3848 302.839 79.0664 302.498C79.2368 302.498 80.2592 303.35 80.2592 303.69C79.9184 304.372 79.4072 304.883 78.5552 305.905Z" fill="#201B20"/>
<path id="Vector_54" d="M133.594 267.922C132.572 268.603 131.891 269.284 131.209 269.284C130.868 269.284 130.357 268.433 129.846 268.092C130.357 267.581 130.868 266.9 131.55 266.559C131.89 266.559 132.572 267.24 133.594 267.922Z" fill="#201B20"/>
<path id="Vector_55" d="M82.6438 308.289C81.6214 308.97 81.1102 309.652 80.4286 309.822C80.0878 309.822 79.0654 308.63 79.2358 308.459C79.5766 307.778 80.2582 307.267 80.7694 306.926C81.1102 306.756 81.7918 307.608 82.6438 308.289Z" fill="#201B20"/>
<path id="Vector_56" d="M113.317 276.268C112.295 277.12 111.784 277.631 111.102 278.142C111.102 278.142 110.25 277.29 110.25 277.12C110.591 276.268 111.102 275.587 111.613 274.905C111.954 275.246 112.295 275.587 113.317 276.268Z" fill="#201B20"/>
<path id="Vector_57" d="M98.4921 320.553C98.3217 320.723 98.1513 320.723 97.9809 320.893L97.8105 320.723C97.9809 320.553 98.1513 320.382 98.1513 320.382C98.3217 320.382 98.4921 320.382 98.4921 320.553Z" fill="#201B20"/>
<path id="Vector_58" d="M14.1445 98.4482C18.0637 95.8933 20.7901 92.6571 21.1309 87.888C22.6645 88.5693 22.4941 89.7616 20.2789 94.1901C24.1981 93.5088 29.8213 86.5254 29.6509 82.4376C22.6645 84.6518 22.4941 84.6518 21.6421 82.9486C23.1757 82.7783 24.7093 82.9486 26.2429 82.4376C27.7765 81.9266 28.9693 80.9047 30.8437 79.7124C30.8437 81.586 31.1845 83.1189 30.8437 84.4815C29.1397 89.2506 26.2429 93.1681 21.3013 95.3823C19.9381 96.0636 18.4045 96.234 17.3821 97.7669C16.8709 98.4482 15.5077 98.6185 14.6557 98.9592C14.3149 98.7889 14.1445 98.6185 14.1445 98.4482Z" fill="#201B20"/>
<path id="Vector_59" d="M22.6641 58.4214C24.8793 57.9104 26.4128 58.4214 27.4352 59.784C30.1616 63.3609 31.0136 67.4487 29.8208 71.7068C29.6504 72.0475 29.48 72.3881 29.1392 72.7288C29.1392 67.108 29.9912 61.3169 22.6641 58.4214Z" fill="#201B20"/>
<path id="Vector_60" d="M8.8624 91.1243C8.8624 90.1023 8.52161 88.9101 8.8624 88.0584C9.3736 87.0365 10.396 85.8442 11.4184 85.5036C13.2928 84.9926 14.3152 83.63 14.8264 82.097C15.3376 81.7564 14.656 80.9048 14.3152 79.8828C15.6784 79.8828 16.1896 80.7344 16.1896 81.9267C16.36 83.63 14.3152 86.1849 12.6112 86.5255C11.0776 86.8662 9.7144 87.2068 10.2256 89.421C10.396 89.932 9.544 90.7836 9.0328 91.2946C9.2032 91.2946 9.0328 91.1243 8.8624 91.1243Z" fill="#201B20"/>
<path id="Vector_61" d="M14.484 102.195C14.9952 104.069 15.5064 105.602 15.8472 107.135C16.3584 109.179 17.5511 110.712 19.4255 111.904C19.7663 112.074 19.9367 112.585 20.2775 112.926C19.7663 113.096 19.2551 113.266 18.9143 113.266C15.336 112.074 12.78 105.602 14.484 102.195Z" fill="#201B20"/>
<path id="Vector_62" d="M22.8349 60.9766C23.8573 61.3172 25.2205 61.3172 25.9021 61.9985C26.7541 63.0205 27.7765 64.5534 27.7765 65.7457C27.7765 68.3006 27.0949 70.8554 26.5837 73.5806C26.5837 73.751 26.2429 74.0916 25.5613 74.6026C25.5613 73.751 25.5613 73.24 25.5613 72.729C25.9021 71.0258 26.2429 69.1522 26.5837 67.4489C26.9245 65.0644 25.3909 62.6798 23.0053 61.9985C22.8349 61.9985 22.6645 61.8282 22.4941 61.6579C22.6645 61.4875 22.6645 61.3172 22.8349 60.9766Z" fill="#201B20"/>
<path id="Vector_63" d="M30.502 33.5542C31.1836 33.0433 31.8651 32.7026 32.5467 32.1916C33.9099 30.9994 34.4211 29.8071 34.0803 27.9335C33.9099 26.9115 34.4211 25.5489 34.9323 24.527C35.1027 24.1863 35.9547 24.3567 36.8067 24.6973C34.4211 25.5489 35.2731 27.2522 35.6139 28.4445C36.2955 31.1697 33.9099 33.8949 31.3539 34.2356C30.8428 33.8949 30.6724 33.7246 30.502 33.5542Z" fill="#201B20"/>
<path id="Vector_64" d="M8.00877 94.5307C8.86076 95.8933 9.37196 97.5966 11.2464 96.4043C12.0983 95.8933 13.1207 95.212 13.8023 94.5307C14.4839 94.0197 14.9951 93.3384 15.6767 92.4868C15.8471 92.8275 16.0175 92.9978 15.8471 93.1681C15.5063 95.3824 11.4168 98.6185 9.20156 98.1076C8.51996 97.9372 7.83837 97.2559 7.66797 96.5746C7.66797 96.0637 8.00877 95.212 8.00877 94.5307Z" fill="#201B20"/>
<path id="Vector_65" d="M20.6183 79.3716C19.4255 78.009 18.4031 76.987 17.3807 75.7947C16.3583 74.6024 15.6768 73.4102 16.3583 71.8772C16.6991 71.0256 17.5511 70.3443 18.2327 69.4927C18.4031 69.663 18.5735 69.8333 18.9143 70.0037C18.7439 70.5146 18.5735 71.0256 18.2327 71.3663C17.0399 72.7289 17.3807 73.7508 18.5735 74.9431C19.5959 75.7947 20.2775 76.987 20.9591 78.1793C21.1295 78.5199 20.7887 79.2012 20.6183 79.3716Z" fill="#201B20"/>
<path id="Vector_66" d="M21.4707 76.1356C21.9819 73.4104 23.6859 70.8555 21.6411 68.3006C21.8115 68.1303 21.9819 68.1303 22.1523 67.96C22.6635 68.6413 23.3451 69.3226 23.5155 70.0039C24.1971 72.3884 23.3451 75.284 21.4707 76.1356Z" fill="#201B20"/>
<path id="Vector_67" d="M13.1212 102.366C12.2692 102.366 11.2468 102.876 10.5652 102.536C9.54284 101.855 7.49805 101.855 7.49805 99.981C9.54284 100.662 11.2468 101.173 13.1212 101.684C13.1212 101.855 13.1212 102.195 13.1212 102.366Z" fill="#201B20"/>
<path id="Vector_68" d="M48.9046 47.5209C48.7342 48.3725 48.7342 48.8835 48.3934 49.3945C48.223 49.7351 47.7118 50.0758 47.371 50.4164C47.2007 50.0758 46.6895 49.5648 46.6895 49.2241C47.2007 47.0099 46.8599 44.455 49.5862 43.0924C50.2678 42.7518 50.6086 41.9001 51.1198 41.3892C51.2902 41.5595 51.631 41.5595 51.8014 41.7298C51.4606 42.7518 51.1198 43.6034 50.779 44.7957C51.1198 45.8176 51.631 47.1802 51.9718 48.3725C52.1422 48.8835 51.631 49.5648 51.4606 50.2461C50.9494 49.9054 50.2678 49.7351 49.7566 49.2241C49.5862 48.8835 49.4158 48.3725 48.9046 47.5209ZM50.0974 46.3286C50.0974 46.1583 49.927 45.988 50.0974 46.3286C49.927 45.988 49.927 46.1583 50.0974 46.3286C50.2678 46.8396 50.4382 47.5209 50.6086 48.0319C50.779 48.0319 50.9494 47.8615 50.9494 47.8615C50.6086 47.3506 50.2678 46.8396 50.0974 46.3286Z" fill="#201B20"/>
<path id="Vector_69" d="M44.4746 43.2624C44.4746 41.0482 47.5418 38.323 49.5866 38.834C49.9274 39.0043 50.609 39.345 50.609 39.6856C50.7794 40.0263 50.4386 40.8779 50.0978 41.0482C48.3938 41.8998 46.349 42.5811 44.4746 43.2624Z" fill="#201B20"/>
<path id="Vector_70" d="M69.5238 35.9384C69.8646 36.9603 70.035 37.8119 70.2054 38.8339C67.8198 39.3449 64.923 36.9603 65.2638 34.7461C65.4342 34.2351 66.2862 33.7241 66.7974 33.7241C68.331 33.7241 70.035 33.8944 71.9094 34.0648C72.2502 35.768 70.887 35.768 69.5238 35.9384ZM66.7974 35.0867C66.9678 35.5977 67.3086 35.9384 67.479 36.4493C67.6494 36.4493 67.6494 36.279 67.8198 36.279C67.479 35.9384 67.1382 35.5977 66.7974 35.0867Z" fill="#201B20"/>
<path id="Vector_71" d="M72.2499 28.9552C71.9091 29.2959 71.5683 29.8069 71.2275 29.9772C69.6939 30.6585 68.1603 31.1695 66.4563 31.5101C63.9004 32.0211 63.9004 32.0211 62.7076 33.8947C62.026 32.5321 62.7076 30.1475 64.2412 29.8069C66.7971 29.1256 69.3531 28.7849 71.9091 28.2739C71.9091 28.4443 72.0795 28.7849 72.2499 28.9552Z" fill="#201B20"/>
<path id="Vector_72" d="M85.37 194.171C85.5404 194.171 86.0516 194.341 86.0516 194.341C86.0516 195.704 86.5628 197.407 86.0516 198.429C85.37 199.792 83.666 200.473 82.3028 201.495C82.3028 201.495 81.2804 200.814 81.4508 200.643C82.1324 198.94 81.7916 196.555 84.3476 195.874C84.6884 195.704 84.8588 194.852 85.37 194.171Z" fill="#201B20"/>
<path id="Vector_73" d="M58.447 194.853C58.9582 194.512 59.4694 194.171 60.151 194.001C60.4918 193.831 61.003 194.001 61.3438 194.001C61.3438 194.512 61.3438 195.193 61.1734 195.363C59.4694 196.215 57.9358 196.896 56.2318 197.407C56.0614 197.407 55.2094 196.556 55.3798 196.215C55.891 195.023 56.5726 194.001 57.0838 192.809C57.2542 192.809 57.595 192.809 57.7654 192.979C57.9358 193.49 58.1062 194.171 58.447 194.853Z" fill="#201B20"/>
<path id="Vector_74" d="M49.0762 194.682C50.0986 193.83 50.9506 192.808 51.973 192.127C52.1434 191.957 53.3362 192.638 53.3362 192.979C53.5066 195.023 51.4618 195.874 49.0762 194.682Z" fill="#201B20"/>
<path id="Vector_75" d="M64.9236 188.209C65.4348 189.913 63.7308 191.957 62.1972 191.616C61.8564 191.616 61.5156 191.105 61.5156 190.935C61.5156 190.424 61.686 189.913 62.0268 189.742C62.8788 189.061 63.9012 188.72 64.9236 188.209Z" fill="#201B20"/>
<path id="Vector_76" d="M74.9763 186.336C73.6131 187.017 72.4203 187.699 71.3979 188.21L70.8867 187.188C71.7387 186.506 72.7611 185.995 73.7835 185.484C73.7835 185.484 74.1243 185.825 74.9763 186.336Z" fill="#201B20"/>
<path id="Vector_77" d="M55.3809 190.764C56.5737 190.253 57.7665 189.913 59.3 189.231C59.1296 190.083 59.1296 190.764 58.9592 190.764C57.9368 191.275 56.7441 191.446 55.7217 191.786C55.7217 191.446 55.5513 191.105 55.3809 190.764Z" fill="#201B20"/>
<path id="Vector_78" d="M103.945 170.836C104.626 171.858 105.308 172.369 105.138 172.71C104.967 173.221 104.456 173.902 103.945 174.243C103.774 174.413 102.752 173.562 102.752 173.221C102.752 172.54 103.263 171.858 103.945 170.836Z" fill="#201B20"/>
<path id="Vector_79" d="M113.145 182.078C112.293 182.759 111.782 183.611 111.441 183.441C110.93 183.27 110.589 182.419 110.078 181.908C110.589 181.567 110.93 180.886 111.441 180.715C111.953 180.886 112.464 181.567 113.145 182.078Z" fill="#201B20"/>
<path id="Vector_80" d="M114.168 177.479C113.146 177.99 112.634 178.672 111.953 178.672C111.612 178.672 110.76 177.65 110.93 177.309C111.101 176.798 111.782 176.117 112.294 176.117C112.805 175.946 113.316 176.798 114.168 177.479Z" fill="#201B20"/>
<path id="Vector_81" d="M110.42 186.847C111.102 185.996 111.613 185.485 112.124 184.974C112.465 185.485 113.146 185.996 112.976 186.336C112.806 187.018 112.124 187.358 111.613 187.869C111.442 188.039 110.931 187.358 110.42 186.847Z" fill="#201B20"/>
<path id="Vector_82" d="M113.316 170.836C113.828 171.858 114.509 172.369 114.339 172.71C113.998 173.221 113.487 173.732 112.976 174.073C112.805 174.073 111.953 173.221 111.953 173.051C111.953 172.369 112.464 171.858 113.316 170.836Z" fill="#201B20"/>
<path id="Vector_83" d="M117.407 181.397C116.384 182.078 115.873 182.589 115.362 182.759C115.191 182.759 114.51 182.078 114.51 181.908C114.851 181.226 115.362 180.545 115.873 180.034C115.703 180.205 116.555 180.886 117.407 181.397Z" fill="#201B20"/>
<path id="Vector_84" d="M118.259 170.666C118.94 171.347 119.452 172.029 119.452 172.029C119.111 172.71 118.6 173.221 118.088 173.562C117.918 173.732 116.896 172.88 117.066 172.71C117.066 172.199 117.577 171.688 118.259 170.666Z" fill="#201B20"/>
<path id="Vector_85" d="M107.864 175.435C108.375 176.287 109.057 176.968 108.886 177.138C108.716 177.649 108.034 178.16 107.523 178.671C107.182 178.331 106.33 177.82 106.501 177.649C106.671 176.968 107.182 176.457 107.864 175.435Z" fill="#201B20"/>
<path id="Vector_86" d="M108.716 181.397C108.546 182.078 108.375 182.759 107.864 183.27C107.694 183.44 106.842 183.44 106.501 183.1C106.33 182.929 106.16 182.078 106.33 181.737C106.842 181.226 107.523 180.886 108.034 180.545C108.375 181.056 108.546 181.226 108.716 181.397Z" fill="#201B20"/>
<path id="Vector_87" d="M109.057 186.847C108.205 187.358 107.694 188.039 107.183 188.039C106.842 188.039 106.16 187.188 106.16 186.847C106.331 186.336 106.842 185.655 107.353 185.484C107.694 185.484 108.375 186.166 109.057 186.847Z" fill="#201B20"/>
<path id="Vector_88" d="M103.945 180.886C104.456 181.908 105.138 182.419 104.968 182.759C104.797 183.27 104.286 183.781 103.604 184.122C103.434 184.122 102.582 183.441 102.582 183.27C102.752 182.589 103.264 182.078 103.945 180.886Z" fill="#201B20"/>
<path id="Vector_89" d="M108.205 174.924C107.693 174.073 107.012 173.562 107.012 173.221C107.182 172.71 107.864 172.369 108.205 171.858C108.545 172.199 109.397 172.71 109.397 173.051C109.397 173.562 108.886 174.073 108.205 174.924Z" fill="#201B20"/>
<path id="Vector_90" d="M118.428 182.078C118.598 181.396 118.769 180.545 118.939 179.863C119.109 179.693 119.961 179.523 120.132 179.693C120.473 179.863 120.643 180.715 120.473 180.885C120.132 181.396 119.621 181.907 119.109 182.418C118.769 182.418 118.598 182.248 118.428 182.078Z" fill="#201B20"/>
<path id="Vector_91" d="M119.281 176.627C118.429 177.309 117.917 177.649 117.236 177.99C117.065 177.99 116.213 176.968 116.384 176.798C116.554 176.287 117.236 175.776 117.747 175.605C118.088 175.605 118.599 176.116 119.281 176.627Z" fill="#201B20"/>
<path id="Vector_92" d="M104.625 187.188C103.773 187.699 103.433 188.38 102.921 188.38C102.581 188.38 102.24 187.699 101.729 187.358C102.24 186.847 102.581 186.336 103.092 186.166C103.433 185.825 103.944 186.506 104.625 187.188Z" fill="#201B20"/>
<path id="Vector_93" d="M122.518 170.666C123.029 171.347 123.54 171.858 123.54 172.199C123.199 172.71 122.688 173.221 122.347 173.732C122.007 173.391 121.495 172.88 121.495 172.54C121.325 171.858 122.007 171.518 122.518 170.666Z" fill="#201B20"/>
<path id="Vector_94" d="M99.1725 184.633C99.6837 185.484 100.195 185.995 100.195 186.336C100.025 186.847 99.5133 187.358 99.1725 187.869C98.8317 187.528 98.3205 187.188 98.3205 186.847C98.1501 186.166 98.6613 185.655 99.1725 184.633Z" fill="#201B20"/>
<path id="Vector_95" d="M101.9 183.1C101.048 183.781 100.707 184.292 100.196 184.292C99.8554 184.292 99.1738 183.611 99.1738 183.441C99.3442 182.93 99.8554 182.419 100.196 182.078C100.537 182.078 101.219 182.589 101.9 183.1Z" fill="#201B20"/>
<path id="Vector_96" d="M117.406 184.974C116.724 185.655 116.213 185.996 115.702 186.336C115.361 185.996 114.85 185.485 115.02 185.314C115.191 184.803 115.702 184.292 116.213 184.122C116.213 184.122 116.724 184.633 117.406 184.974Z" fill="#201B20"/>
<path id="Vector_97" d="M85.7109 101.684C84.1773 104.069 82.6437 106.283 80.9397 108.838C79.7469 107.135 82.9845 102.366 85.1997 101.344C85.3701 101.344 85.5405 101.514 85.7109 101.684Z" fill="#201B20"/>
<path id="Vector_98" d="M88.6094 223.808C89.8022 223.127 90.3134 222.445 90.995 222.445C91.3358 222.445 92.1878 223.467 92.1878 223.638C91.847 224.319 91.1654 224.83 90.6542 225.171C90.3134 225.341 89.6318 224.66 88.6094 223.808Z" fill="#201B20"/>
<path id="Vector_99" d="M90.1426 215.291C91.165 214.61 91.6762 213.929 92.3578 213.929C92.6986 213.929 93.5506 214.951 93.5506 214.951C93.2098 215.632 92.5282 216.313 92.017 216.654C91.6762 216.824 90.9946 215.973 90.1426 215.291Z" fill="#201B20"/>
<path id="Vector_100" d="M85.7112 240.159C85.2 239.137 84.5184 238.456 84.6888 238.115C84.8592 237.434 85.5408 236.752 86.2224 236.752C86.5632 236.752 87.5856 237.604 87.5856 237.945C87.2448 238.626 86.5632 239.137 85.7112 240.159Z" fill="#201B20"/>
<path id="Vector_101" d="M88.608 230.11C87.9264 229.258 87.2448 228.747 87.4152 228.406C87.756 227.725 88.4376 227.214 88.9488 226.703C89.46 227.214 90.3119 227.725 90.3119 228.066C90.1415 228.747 89.2896 229.258 88.608 230.11Z" fill="#201B20"/>
<path id="Vector_102" d="M86.223 242.203C85.371 243.054 84.8598 243.565 84.1782 243.736C84.0078 243.736 82.9854 242.884 83.1558 242.543C83.3262 241.862 83.8374 241.351 84.3486 241.01C84.6894 240.84 85.371 241.521 86.223 242.203Z" fill="#201B20"/>
<path id="Vector_103" d="M97.4693 212.907C98.1509 213.758 98.8325 214.44 98.6621 214.61C98.4917 215.291 97.8101 215.802 97.2989 216.313C96.7877 215.973 95.9357 215.462 96.1061 215.121C96.1061 214.44 96.7877 213.929 97.4693 212.907Z" fill="#201B20"/>
<path id="Vector_104" d="M98.4924 219.038C97.2996 219.72 96.7885 220.231 96.1069 220.401C95.7661 220.401 95.2549 219.72 94.9141 219.209C95.4253 218.698 95.9365 218.017 96.4476 217.846C96.7884 217.846 97.47 218.357 98.4924 219.038Z" fill="#201B20"/>
<path id="Vector_105" d="M93.5496 219.379C92.5272 220.061 92.016 220.571 91.5048 220.742C91.164 220.742 90.4824 219.89 90.4824 219.72C90.8232 219.209 91.3344 218.528 91.8456 218.357C92.1864 218.187 92.6976 218.868 93.5496 219.379Z" fill="#201B20"/>
<path id="Vector_106" d="M58.6175 169.303C57.5951 170.155 56.7431 171.007 55.7207 171.858C55.5503 171.688 55.2095 171.347 55.0391 171.177C55.5503 170.325 56.0615 169.474 56.7431 168.792C57.0839 168.452 57.7655 168.452 58.2767 168.452C58.2767 168.792 58.4471 168.963 58.6175 169.303Z" fill="#201B20"/>
</svg>
