<svg width="176" height="450" viewBox="0 0 176 450" fill="none" xmlns="http://www.w3.org/2000/svg" class="drawing">
<path d="M145.057 444.552C140.728 445.55 136.566 446.714 132.238 447.38C124.746 448.378 117.42 449.375 109.929 449.874C102.27 450.373 94.7784 449.375 87.453 447.047C82.625 445.384 81.4595 443.554 82.1255 438.564C78.6293 439.229 75.1331 439.063 71.6369 438.065C67.8078 437.067 64.3116 435.238 61.1483 432.909C57.3192 430.081 53.49 427.088 49.9938 423.761C47.663 421.599 46.1647 418.771 46.8306 415.278C47.8295 410.122 48.4955 404.8 49.3279 399.643C49.4944 398.479 49.4944 397.148 49.4944 395.818C46.6641 395.319 45.8317 393.323 45.1658 390.994C42.169 380.017 40.0047 368.873 37.8404 357.895C35.3431 344.589 32.0134 331.449 29.5161 318.143C27.8512 309.327 26.8523 300.512 25.8534 291.697C24.1885 278.39 22.1907 265.084 20.8588 251.611C20.0264 244.127 19.0275 236.476 20.0264 228.991C20.3594 226.829 21.1918 224.833 22.0242 222.837C22.8567 220.674 24.1885 218.845 25.021 216.683C26.3528 213.522 27.5182 210.196 28.3507 206.869C29.0166 204.042 29.3496 201.214 29.6825 198.386C30.0155 196.39 29.5161 194.062 32.8458 193.896C31.6804 190.07 30.6815 186.744 29.8491 183.251C27.1853 172.938 23.3561 162.959 21.6912 152.314C19.8599 141.003 17.6956 129.527 18.3615 118.05C18.6945 111.064 19.6935 104.078 21.0254 97.259C22.3573 89.9406 26.8523 84.2854 33.0122 80.2935C36.6749 77.7986 41.0036 75.969 44.8328 73.6404C47.4966 71.9771 50.1603 70.3139 52.6576 68.3179C54.8219 66.821 55.6543 64.4923 55.6543 61.9974C55.6543 58.0055 55.3213 54.0137 54.9884 49.8555C54.9884 49.0239 54.156 48.1922 53.6565 47.3606C52.1581 45.032 51.9916 42.5371 53.3235 40.0421C53.823 39.2105 53.9894 38.2125 54.1559 37.3809C54.4889 33.389 54.6554 29.5635 57.1527 26.0706C57.1527 26.0706 57.1527 25.9043 57.3192 25.7379C60.9819 22.4114 64.3116 18.7521 68.1408 15.7582C72.1364 12.7643 77.131 12.9307 81.7926 13.596C86.2877 14.2613 90.6163 15.2592 95.4443 16.2572C95.6108 16.0909 95.9438 15.5919 96.1103 14.9266C97.9417 9.27144 101.937 5.4459 106.599 2.45199C110.928 -0.375582 115.756 -0.209234 120.584 0.28975C126.411 1.12139 131.572 3.78262 136.566 6.6102C141.061 9.10512 145.39 11.9327 150.218 14.7603C147.887 17.5878 144.891 18.5858 142.393 20.2491C139.896 21.7461 137.232 23.0767 134.568 24.4073C135.234 28.3992 136.067 32.391 136.4 36.3829C136.566 40.8738 136.566 45.3646 135.9 49.8555C134.901 56.6749 133.403 63.3281 136.4 69.9812C137.732 72.8088 139.064 75.6364 140.728 78.4639C144.225 84.2854 146.722 90.7722 148.553 97.259C148.886 98.0906 149.219 99.0886 149.885 99.7539C156.045 107.239 157.876 115.888 156.878 125.202C156.212 130.857 155.046 136.346 152.549 141.502C152.05 142.5 152.049 143.831 152.049 145.161C151.55 155.806 150.551 166.451 147.554 176.764C146.389 181.088 144.058 184.581 140.229 187.242C140.562 187.908 140.562 188.573 140.895 189.072C147.055 198.553 150.551 209.031 152.715 219.843C154.713 230.321 155.879 240.966 155.046 251.611C154.547 259.096 154.713 266.581 154.214 274.066C153.714 283.713 152.715 293.193 152.049 302.84C151.55 309.494 151.217 316.147 150.718 322.634C149.885 334.11 148.886 345.587 148.22 357.063C148.054 359.725 146.222 360.723 144.558 362.22C144.391 367.209 144.225 372.199 143.892 377.189C143.392 387.668 142.726 398.313 142.06 408.791C141.894 412.284 141.228 415.611 141.061 419.104C140.895 420.601 140.895 422.43 141.727 423.761C145.39 429.915 145.723 436.901 145.057 444.552ZM103.436 90.9385C103.602 90.7722 103.769 90.6058 103.935 90.2732C104.268 90.1069 104.768 90.2732 105.101 89.9406C108.43 87.4456 111.926 84.9507 115.256 82.4558C115.256 82.4558 115.09 82.1231 115.09 81.9568C111.76 82.9548 106.932 86.614 104.102 90.1069C103.935 90.6059 103.602 90.7722 103.436 90.9385C103.436 91.1049 103.436 91.1049 103.436 90.9385C103.436 90.9385 103.436 91.1049 103.436 90.9385ZM101.604 21.0808C101.771 20.7481 101.937 20.2491 102.104 19.9164C103.269 18.4195 104.768 17.2552 105.766 15.5919C108.264 11.4337 111.926 9.27144 116.588 8.27348C119.918 7.60816 123.247 7.10917 126.577 6.44386C120.75 3.1173 104.601 8.4398 102.104 19.9164C102.104 20.4154 101.937 20.7481 101.604 21.0808C101.438 21.4134 101.604 21.2471 101.604 21.0808C101.604 21.2471 101.604 21.4134 101.604 21.0808ZM81.959 117.884C82.1255 117.052 82.292 116.387 82.4585 115.555C83.4574 112.894 84.4563 110.233 85.4552 107.571C85.6217 107.239 85.7883 106.74 85.9547 106.407C86.4542 105.742 86.7871 104.91 87.2866 104.245C88.9515 101.916 90.6163 99.5876 92.4476 97.259L92.6142 97.0927C92.6142 97.0927 92.6141 97.259 92.4476 97.259C90.6163 99.5876 88.9514 101.75 87.1201 104.078C86.7871 104.91 86.4542 105.575 85.9547 106.407C85.7883 106.74 85.6217 107.239 85.4552 107.571C84.4563 110.233 83.4574 112.894 82.4585 115.555C82.4585 116.387 82.1255 117.218 81.959 117.884C81.959 117.884 81.959 118.05 81.959 117.884ZM116.755 165.952C116.422 166.119 116.089 166.451 115.756 166.618C115.922 166.784 116.089 166.95 116.089 167.117C116.255 166.784 116.588 166.285 116.755 165.952ZM128.242 73.6404C127.077 74.1394 126.078 74.4721 124.912 74.971C124.746 74.971 124.579 74.971 124.746 74.971C124.579 75.1374 124.746 74.971 124.912 74.971C125.911 74.4721 127.077 73.973 128.242 73.6404C129.074 73.4741 129.907 73.3078 130.573 73.1414C132.071 72.9751 133.403 72.8088 134.901 72.6425C134.901 72.3098 134.735 72.1435 134.735 71.8108C133.403 72.3098 131.905 72.6424 130.573 73.1414C129.907 73.3078 129.074 73.4741 128.242 73.6404ZM112.592 72.4761C113.425 72.1435 114.424 71.8108 115.256 71.3118C115.09 71.1455 115.09 70.9792 114.923 70.6465C114.257 71.3118 113.425 71.9771 112.592 72.4761C112.592 72.6424 112.592 72.6425 112.592 72.6425C112.592 72.6425 112.592 72.4761 112.592 72.4761ZM80.2942 126.699C80.7936 124.869 81.1266 122.873 81.6261 121.044V121.21C81.1266 122.873 80.6272 124.869 80.2942 126.699C80.1277 127.198 80.1277 127.531 79.9612 127.863C80.1277 127.863 80.1277 127.863 80.2942 127.863C80.2942 127.531 80.2942 127.032 80.2942 126.699ZM109.762 31.5594C111.427 29.5635 113.258 27.7339 114.923 25.7379C119.918 23.4093 125.079 23.0767 130.406 23.4093C130.739 23.5757 130.906 23.742 131.239 23.9083C131.239 23.742 131.239 23.742 131.405 23.5757C131.072 23.5757 130.739 23.5757 130.406 23.5757C125.745 21.4134 118.752 22.4114 114.923 25.9043C112.759 27.2349 110.262 28.3992 109.762 31.5594C109.596 31.8921 109.429 32.0584 109.263 32.2247C109.429 32.2247 109.429 32.391 109.596 32.391C109.596 32.0584 109.762 31.7257 109.762 31.5594ZM110.428 80.6262C114.257 79.1292 118.086 77.466 121.916 75.969C122.082 75.8027 122.082 75.8027 122.249 75.6363C122.082 75.8027 122.082 75.8027 121.916 75.969C118.086 77.466 114.257 79.1292 110.428 80.6262C109.929 80.7925 109.429 80.9588 108.763 81.1251C108.763 81.2915 108.93 81.4578 108.93 81.6242C109.429 81.1252 109.929 80.7925 110.428 80.6262ZM134.069 130.691C136.067 127.032 136.733 123.04 136.233 118.882C135.567 119.048 135.068 119.048 135.068 119.048C134.735 123.04 134.402 126.865 134.069 130.691C134.069 130.857 134.069 130.857 134.069 131.024C133.903 130.857 133.903 130.857 134.069 130.691ZM144.391 89.7742C144.391 89.9406 144.558 90.1069 144.558 90.1069C144.558 89.9406 144.558 89.9406 144.391 89.7742C142.893 83.2874 139.064 78.4639 133.736 74.1394C137.565 79.6282 141.061 84.6181 144.391 89.7742ZM110.262 75.969C116.255 73.8068 122.249 71.6445 128.242 69.4822C128.242 69.3159 128.076 68.9832 128.076 68.8169C125.578 69.4822 122.914 69.8149 120.417 70.9792C117.087 72.3098 113.758 74.3057 110.262 75.969ZM123.747 136.013C123.247 137.344 122.249 138.508 122.082 139.839C121.749 143.831 121.583 147.823 121.416 151.815C121.416 152.314 121.583 152.979 121.916 153.811C123.913 150.817 124.579 144.163 123.747 136.013C123.747 135.847 123.913 135.681 123.747 135.847C123.747 135.514 123.747 135.847 123.747 136.013ZM129.907 141.17C130.739 138.841 131.738 136.679 132.238 134.184C132.737 131.356 132.904 128.362 133.237 125.368C133.403 123.206 133.902 121.21 132.904 118.882C131.572 121.876 129.907 134.516 129.907 141.17ZM99.9395 97.9243C99.44 98.257 98.9406 98.5896 98.6076 98.9223C92.2811 107.571 87.9525 116.886 87.1201 127.863C87.1201 128.03 86.9536 128.03 86.9536 128.03C86.9536 128.03 86.9536 127.863 87.1201 127.863C87.6195 126.699 88.4519 125.535 88.7849 124.37C90.9492 115.721 93.946 107.239 99.107 99.7539C99.44 99.0886 99.6065 98.4233 99.9395 97.9243C104.768 93.5998 109.762 89.4416 114.59 85.1171C113.258 85.4497 112.259 85.9487 111.26 86.7803C109.096 88.4436 106.932 90.4395 104.768 91.9365C102.603 93.5998 100.938 95.4294 99.9395 97.9243ZM29.0167 216.849C30.3485 215.352 31.6804 213.689 33.0122 212.192C34.1776 210.861 35.3431 209.53 36.5085 208.2C37.008 207.701 37.6739 207.036 38.1734 206.537C36.009 206.038 36.8415 207.534 36.5085 208.366C35.6761 208.366 34.6771 208.366 33.6782 208.366C33.6782 207.202 33.5118 206.37 33.5118 205.539C32.6794 205.372 32.0134 205.372 31.0145 205.206C29.8491 208.2 28.8502 211.194 27.6848 214.021C27.8513 214.021 28.0177 214.021 28.1842 214.021C28.5172 214.853 28.8502 215.851 29.0167 216.849C28.1842 216.849 27.0188 216.184 26.6858 218.346C27.6847 217.68 28.3507 217.182 29.0167 216.849ZM141.561 156.139C139.563 156.638 139.563 158.301 139.397 159.798C138.731 166.119 138.231 172.439 137.565 178.593C137.399 180.922 137.066 183.417 136.899 185.746C139.896 176.099 140.728 166.119 141.561 156.139ZM72.3029 424.426C73.1353 425.424 73.8013 426.256 74.4672 427.254C74.3007 427.42 74.1342 427.587 73.9678 427.753C72.4694 426.589 71.1374 425.424 69.6391 424.26C69.4726 424.426 69.3062 424.593 69.3062 424.593C69.9721 425.923 70.638 427.254 71.3039 428.584C71.1374 428.751 70.971 428.751 70.8045 428.917C69.6391 427.587 68.6402 426.422 67.4748 425.092C67.1418 425.757 67.1418 426.256 67.3083 426.755C67.8078 428.418 68.4737 429.915 68.9732 431.578C76.2986 429.582 77.131 428.917 77.6305 424.593C76.1321 424.094 74.6337 423.428 73.1353 422.763C73.1353 422.929 72.9688 423.096 72.9688 423.262C73.6347 423.927 74.4672 424.426 75.1332 425.092C75.1332 425.258 74.9666 425.258 74.9666 425.424C74.1342 424.925 73.1353 424.593 72.3029 424.426ZM91.7817 290.699C91.7817 290.532 91.7817 290.2 91.7817 290.532C91.6152 290.2 91.7817 290.366 91.7817 290.699C92.1147 292.362 92.2811 294.025 92.7806 295.688C98.4411 311.989 104.268 328.289 110.095 344.589C110.428 345.254 110.761 345.919 110.928 346.585C110.928 345.088 110.761 343.591 110.262 342.26C104.435 325.794 98.774 309.494 92.9471 293.193C92.7806 292.362 92.2812 291.53 91.7817 290.699ZM87.2866 340.264C85.1223 340.431 84.1233 341.928 83.2909 343.425C85.1222 345.587 85.1222 345.587 82.4585 348.082C82.9579 349.08 83.4574 350.244 83.9569 351.408C81.4596 354.402 81.4595 354.402 82.9579 357.23C82.4585 357.895 82.1255 358.727 81.2931 359.891C82.292 359.891 82.958 360.224 83.4575 359.891C84.6229 359.226 85.7883 358.56 86.7872 357.729C87.1201 357.396 87.1201 356.731 87.2866 356.065C87.9525 352.739 88.452 349.579 89.1179 346.086C88.2855 346.086 87.7861 345.919 87.2866 345.919C86.2877 345.919 85.2887 345.42 85.4552 344.256C85.7882 342.926 86.6206 342.759 87.9525 343.092C88.4519 343.258 88.7849 343.258 89.9503 343.425C88.7849 342.094 86.1212 342.593 87.2866 340.264ZM111.593 82.4558C108.763 82.6221 106.765 83.9528 104.934 85.9487C104.102 86.7803 103.436 87.7783 102.437 88.2773C95.6108 92.6018 92.7806 100.419 87.786 106.241C87.4531 106.573 87.4531 107.072 87.2866 107.571C83.9569 114.557 82.6249 122.208 81.2931 129.693C80.4606 134.184 80.1277 138.675 79.6282 143.166C79.7947 143.166 79.9612 143.166 80.2942 143.332C80.6272 142.168 81.2931 141.003 81.4596 139.839C82.1256 134.683 82.625 129.527 83.4575 124.537C84.4564 118.216 86.1212 111.896 89.4509 106.241C94.7784 96.5937 102.437 88.7763 111.593 82.4558ZM75.6326 367.708C76.6315 367.209 77.6305 366.045 78.4629 366.045C81.2931 366.045 81.9591 364.216 82.625 362.053C79.4618 360.224 79.2953 357.562 80.2942 354.402C80.9601 352.739 81.1266 350.909 81.2931 349.08C81.626 346.418 81.7926 343.923 81.959 341.096C81.4596 341.096 80.6272 341.096 79.4618 341.096C78.6293 346.751 77.7969 352.24 76.9645 357.895C76.6315 361.222 76.1321 364.548 75.6326 367.708C75.6326 367.708 75.6326 367.875 75.6326 367.708ZM114.923 28.0665C116.255 27.7338 117.587 27.2349 118.919 26.9022C113.591 31.8921 112.925 32.89 112.592 35.8839C114.59 33.888 116.255 31.5594 118.419 30.0625C120.584 28.5655 123.247 27.2349 126.244 27.5675C124.08 28.8982 121.916 29.7298 119.751 30.8941C117.42 32.0584 115.756 33.7217 115.09 36.3829C117.753 33.5553 120.584 31.0604 124.746 30.8941C122.415 32.3911 120.084 33.888 117.753 35.3849C117.753 35.5513 117.92 35.7176 117.92 35.7176C119.418 35.0523 120.917 34.387 122.415 33.7216C122.582 33.888 122.582 34.2207 122.748 34.387C121.083 35.7176 118.586 36.3829 117.753 39.3768C119.252 38.3789 120.251 37.7136 121.583 36.8819C121.25 38.2125 120.917 39.0442 120.75 39.8758C120.917 40.0421 121.083 40.2084 121.25 40.3748C121.916 39.8758 122.914 39.5431 123.247 38.8778C124.912 35.5513 126.577 32.2247 127.909 28.7318C128.741 26.4032 127.243 24.74 124.746 24.9063C121.25 24.9063 117.587 25.2389 114.923 28.0665C112.592 29.7298 110.927 31.8921 110.428 35.5513C112.093 32.5574 113.591 30.2288 114.923 28.0665ZM34.1777 315.98C37.1744 314.982 37.8404 312.654 37.6739 309.826C37.5074 308.662 37.3409 307.331 37.0079 306.167C36.009 302.674 35.8425 299.348 37.1744 296.021C37.6738 294.857 37.6739 293.36 37.6739 292.029C37.5074 288.869 34.8436 286.873 31.6804 287.206C28.8501 287.538 27.6847 289.867 28.3507 293.36C29.849 293.526 31.8469 293.526 31.0145 296.187C30.3486 296.354 29.5161 296.686 28.6837 297.019C28.8501 297.518 29.0166 297.851 29.1831 298.017C30.6815 298.849 31.181 299.847 29.8491 301.51C29.5161 301.842 29.8491 303.007 30.1821 303.672C30.3486 304.171 31.1809 304.504 31.6804 305.003C31.1809 306.001 30.8479 306.832 30.515 307.664C31.1809 308.329 31.8469 308.828 32.3464 309.494C31.8469 310.824 31.3475 311.822 30.6815 313.153C33.0123 313.153 34.1776 313.818 33.8447 315.98C33.0122 316.313 32.3464 316.646 31.5139 316.812C31.6804 317.477 31.8469 317.976 32.0134 318.974C33.1788 317.644 33.6782 316.812 34.1777 315.98ZM81.959 311.988C82.7915 308.662 83.6239 305.169 84.4563 301.843C81.959 301.344 81.9591 301.344 81.4596 299.348C81.6261 299.181 81.7925 299.015 82.1255 298.682C82.9579 298.849 83.9569 298.849 84.7893 299.015C84.9558 297.684 85.1223 296.686 85.2888 295.522C83.6239 295.189 83.6239 295.189 85.9547 292.362C85.9547 291.863 85.9547 291.198 85.9547 290.532C81.9591 290.033 78.9623 292.196 77.9634 295.855C76.9644 299.68 76.9644 299.68 72.9688 300.179C72.8023 300.179 72.6359 300.346 72.8023 300.346C71.8034 302.175 71.1375 303.838 70.1386 305.335C68.4738 307.664 68.4737 308.163 70.3051 310.492C71.4705 311.989 72.6358 313.818 73.3018 315.481C74.8001 319.473 77.2975 320.471 81.4596 318.309C81.6261 316.313 81.7926 314.151 81.959 311.988ZM54.3225 219.676C46.1647 224.167 38.5064 229.323 33.5118 236.476C35.0102 238.472 36.675 239.636 37.0079 241.299C37.5074 242.962 36.6749 244.958 36.342 246.788C38.5063 247.453 39.8382 246.954 41.1701 244.792C42.169 243.129 43.5009 242.131 45.3322 241.465C47.996 240.467 49.9939 238.305 50.1603 235.478C50.4933 230.488 51.9916 226.33 56.3202 223.169C58.8175 221.506 58.8175 219.51 57.4856 216.849C56.4867 217.681 55.3214 218.678 54.3225 219.676ZM55.9873 329.12C58.6511 329.453 58.8175 329.619 58.3181 332.114C56.6532 333.279 55.9873 331.615 55.1549 331.116C53.1571 331.948 51.1592 332.613 49.1614 333.279C47.1635 333.944 44.9992 334.609 43.3344 335.108C43.1679 337.27 43.5009 339.1 42.8349 340.431C41.836 342.926 42.169 345.088 43.3344 347.25C44.9992 350.909 47.996 352.074 51.4922 350.244C53.49 349.246 55.4878 348.414 57.8186 348.747C59.983 348.913 61.9808 347.416 61.9808 345.587C61.9808 343.092 63.1462 341.262 64.4781 339.266C65.8099 337.104 66.8089 334.775 65.6435 332.281C64.8111 330.118 64.478 328.122 64.9775 325.794C65.477 323.299 64.6445 321.802 62.8132 321.137C61.3148 320.638 59.4835 321.303 58.4846 323.465C57.6522 325.295 56.8198 327.291 55.9873 329.12ZM61.3148 288.37C62.1472 287.206 62.9797 285.875 63.9786 284.711C65.144 283.214 66.1429 281.55 67.4748 280.22C68.9732 278.889 70.971 278.889 72.6359 279.887C74.3007 280.885 75.7991 282.382 75.2996 284.544C74.8002 286.374 74.3007 288.536 73.3018 290.033C71.4704 292.695 71.1374 295.189 72.1364 298.183C75.2996 298.682 75.6326 298.35 76.2985 295.688C76.6315 294.69 76.9645 293.692 77.2975 292.694C78.7958 289.035 80.6272 285.376 81.7926 281.55C83.6239 275.563 80.7936 271.405 74.6336 270.906C72.6358 270.739 70.971 270.407 69.4726 268.91C67.4748 266.914 63.6457 268.078 62.6468 270.739C62.1473 271.903 61.4814 273.068 60.9819 274.398C60.6489 275.895 59.8165 277.725 60.3159 278.723C61.9808 282.049 61.9807 285.043 61.3148 288.37ZM43.8338 332.613C45.6651 332.281 47.33 331.615 49.1614 331.615C52.4911 331.615 53.9895 329.786 55.1549 327.124C55.6544 325.96 56.1538 324.629 56.8198 323.465C58.8176 319.64 60.6489 318.974 64.8111 320.305C66.9754 320.97 69.4726 320.305 70.638 318.475C71.9699 316.479 71.637 314.483 70.1386 312.654C68.9732 311.157 67.8077 309.66 66.3094 307.997C63.9786 308.163 61.9808 308.995 60.6489 311.323C60.1495 312.321 59.4835 313.485 58.4846 313.984C57.1527 314.65 55.6543 314.982 54.1559 314.65C52.4911 314.317 52.1581 312.654 52.1581 311.157C52.1581 310.159 52.4911 309.327 52.6576 308.329C53.6565 304.836 53.6565 301.343 52.8241 297.851C48.329 298.017 47.4965 297.352 47.1635 293.027C46.8306 289.202 44.9993 286.374 42.6685 283.713C41.0036 285.043 39.5052 286.374 37.8404 287.871C39.8382 291.031 39.3388 294.358 38.1734 297.851C37.6739 299.514 37.5074 301.51 37.8404 303.173C38.5063 306.832 40.0046 310.492 38.8392 314.65C40.0046 314.151 40.6706 313.485 41.3365 312.82C42.0025 312.155 42.502 311.323 43.1679 310.492C44.3333 309.327 45.6652 307.83 47.6631 308.828C49.8274 309.826 48.9949 311.822 48.8284 313.652C48.6619 315.98 48.8285 318.143 48.4955 320.471C48.329 322.467 48.3289 324.796 47.4965 326.625C46.8306 328.788 45.1657 330.617 43.8338 332.613C43.8338 332.613 44.0003 332.613 43.8338 332.613ZM84.2899 435.903C90.7828 433.741 97.2757 431.246 103.935 429.582C108.264 428.584 110.761 426.256 112.759 422.597C114.59 419.27 117.087 416.11 119.918 411.952C119.918 404.134 119.252 395.153 117.92 386.004C115.922 390.994 114.257 395.984 112.592 400.974C112.093 402.305 112.259 403.968 112.259 405.465C112.259 407.627 112.759 409.623 112.759 411.785C112.592 417.274 109.929 419.603 104.435 419.27C99.2735 419.104 94.279 418.771 89.1179 418.605C85.9547 418.439 82.7915 417.607 80.1277 415.944C78.6294 414.946 77.4639 413.615 77.7969 411.619C78.1299 409.789 79.4618 408.791 81.1266 408.459C83.1244 407.96 85.1222 407.627 87.1201 407.627C90.4498 407.793 92.6141 405.631 94.9449 403.635C95.6108 403.136 95.7773 401.972 96.1103 400.974C95.1114 400.641 94.279 400.309 93.613 400.309C86.2877 400.142 79.2953 398.645 72.3029 397.148C70.4716 396.649 68.4737 397.148 66.1429 397.148C65.3105 409.124 68.1407 418.937 79.9612 424.094C79.7947 425.092 79.7947 425.757 79.6282 426.256C83.1244 428.751 85.4553 431.578 84.2899 435.903C84.1234 436.236 83.9568 436.568 83.7903 436.735C83.7903 436.735 83.9569 436.735 83.9569 436.901C84.1234 436.568 84.2899 436.236 84.2899 435.903ZM127.077 171.774C128.076 170.443 129.074 169.279 130.073 167.948C132.404 164.622 134.402 160.963 136.899 157.802C139.064 154.975 142.06 152.813 144.225 149.985C148.553 144.663 152.549 139.174 154.047 132.354C155.879 123.373 156.545 114.723 152.549 106.074C151.717 104.411 151.217 102.582 149.386 101.584C149.219 102.083 149.219 102.249 149.219 102.415C149.219 102.748 149.219 102.914 149.219 103.247C149.053 107.072 148.553 110.399 145.39 113.226C141.394 116.886 139.23 121.876 137.232 127.032C134.402 134.017 131.738 141.17 128.908 148.155C127.41 151.815 124.912 154.31 121.083 155.64C119.751 156.139 118.419 156.804 117.42 157.969C115.423 160.297 113.758 162.792 111.926 165.287C112.093 165.453 112.093 165.62 112.259 165.952C114.424 165.287 116.588 164.622 119.418 163.79C117.753 169.944 112.426 172.606 109.263 177.263C114.091 176.93 116.089 172.772 119.918 171.109C117.254 174.768 114.091 177.928 112.093 182.086C112.259 182.253 112.426 182.419 112.592 182.585C116.089 179.092 119.585 175.433 123.081 171.94C122.915 173.105 122.415 174.103 121.749 174.934C121.083 175.932 120.251 176.93 119.418 177.928C118.752 178.76 118.086 179.425 117.42 180.09C117.587 180.257 117.92 180.423 118.086 180.589C120.917 177.429 123.747 174.269 126.577 170.942C126.744 171.109 126.91 171.441 127.077 171.774C126.411 172.606 125.578 173.437 124.912 174.269C125.079 174.435 125.412 174.602 125.578 174.768C126.078 173.604 126.577 172.606 127.077 171.774ZM106.266 77.9649C99.773 74.6384 92.6141 72.8088 85.4552 71.4781C83.7903 71.1455 83.1245 72.3098 82.292 73.4741C81.4596 74.6384 80.4607 75.969 79.2953 76.3016C77.131 76.967 74.8001 77.2996 72.4693 76.9669C65.8099 76.1353 59.1506 74.6384 53.4901 71.1455C47.996 73.973 42.6684 76.6343 37.5074 79.4619C29.3496 84.1191 24.1886 91.1048 22.8567 100.419C22.3572 104.078 22.3572 107.738 22.0242 111.397C21.0253 119.713 21.0253 128.03 22.1907 136.346C22.5237 139.007 23.0232 141.669 23.5227 144.33C24.8545 151.316 26.1864 158.468 27.5182 165.453C27.8512 166.784 28.3507 167.948 28.8501 169.445C36.6749 166.95 44.6663 166.451 52.6576 166.618C50.1603 161.462 47.663 156.638 45.4987 151.648C43.1679 146.658 41.1701 141.669 39.1722 136.512C37.1744 131.356 35.1766 126.034 33.1788 120.878C31.181 115.888 28.3507 111.231 27.8512 105.742C31.0145 110.233 32.3464 115.721 35.1766 120.545C44.6663 119.048 53.9895 118.549 63.6456 119.88C65.8099 115.888 68.1407 111.896 70.3051 108.07C70.638 108.237 70.971 108.403 71.3039 108.569C70.305 110.898 69.4726 113.393 67.9742 115.389C65.144 119.214 64.478 123.04 66.3094 127.364C66.4758 127.863 66.6424 128.196 66.6424 128.695C68.3072 135.348 69.9721 142.001 71.8035 148.654C72.4694 150.983 72.6359 153.644 75.1332 155.307C75.2997 154.642 75.2996 154.143 75.2996 153.811C75.4661 150.484 75.2997 146.991 75.9656 143.831C77.6305 134.184 79.2952 124.703 81.2931 115.222C82.4585 109.401 84.7893 103.912 88.7849 99.5876C91.7817 96.261 95.4443 93.2671 98.774 90.1069C101.937 86.4477 106.765 84.1191 106.266 77.9649ZM116.921 358.228C116.921 360.224 116.755 361.887 116.921 363.55C117.254 366.378 117.753 369.039 118.086 371.867C118.752 377.023 119.252 382.179 119.751 387.335C120.417 394.321 121.583 401.307 121.416 408.126C121.416 412.451 122.082 415.944 124.413 419.27C125.745 421.266 126.91 423.428 128.076 425.424C131.405 425.424 135.234 423.761 139.563 420.601C140.728 400.309 141.727 379.684 142.893 358.893C134.235 357.729 125.911 355.733 116.921 358.228ZM62.9796 121.21C53.8229 120.046 44.9993 120.212 36.0091 122.042C37.008 125.535 37.8404 128.529 39.0058 131.523C43.0014 142.5 48.1625 153.145 53.6565 163.458C54.8219 165.453 55.9873 167.449 57.3192 169.279C59.317 171.94 62.1472 173.604 65.4769 174.435C68.6402 169.113 71.9699 163.79 73.8012 158.301C72.3028 155.474 70.8046 153.145 70.1386 150.65C68.6402 145.66 67.6412 140.338 66.3094 135.348C65.3104 130.691 64.145 126.034 62.9796 121.21ZM92.7806 40.8738C92.6141 44.3667 92.2811 47.5269 93.613 50.8535C94.279 52.3504 94.4454 54.18 94.6119 55.8433C94.9449 58.5046 95.2779 61.1658 95.7773 63.6607C96.1103 65.324 97.4422 66.4883 99.2736 66.6546C101.438 66.9873 103.436 67.1536 105.6 67.3199C109.429 67.8189 113.425 68.8169 117.254 68.6505C122.582 68.4842 127.909 67.6526 133.403 66.9873C133.07 64.9913 132.737 62.9954 132.571 60.9995C131.738 60.6668 131.072 60.3342 130.406 60.0015C127.243 58.3382 124.912 56.3423 125.245 52.1841C125.412 50.6871 124.746 49.0239 124.246 47.3606C119.918 51.8514 118.419 52.3504 116.089 50.3545C116.255 50.1881 116.422 50.0218 116.588 50.0218C120.75 50.1882 123.247 48.0259 123.081 44.034C123.081 43.2024 122.415 41.8717 121.749 41.5391C121.083 41.2064 119.751 41.5391 118.919 42.0381C117.92 42.537 117.254 43.7014 116.422 44.3667C114.59 45.6973 113.425 47.8595 110.595 48.0259C110.428 47.3606 110.095 46.8616 110.262 46.3626C110.262 42.537 109.762 38.7115 108.264 35.0523C106.932 32.2247 108.264 28.8982 110.761 26.9022C111.427 26.4033 112.093 25.7379 112.925 24.9063C107.764 24.0746 102.936 23.4094 97.9416 22.744C94.4454 25.7379 92.4477 31.7257 93.1136 37.3809C94.4455 38.3789 96.7763 38.0462 97.2757 40.5411C95.6109 40.7074 94.279 40.8738 92.7806 40.8738ZM139.73 423.262C136.4 424.593 133.403 426.256 130.24 426.755C126.744 427.42 124.08 428.584 121.749 431.079C119.585 433.242 116.921 434.406 113.924 433.574C112.259 433.075 110.595 432.41 109.096 431.578C107.598 430.58 106.099 430.58 104.435 431.079C99.9395 432.41 95.2779 433.574 90.9493 434.905C88.9515 435.57 86.9536 436.568 85.2888 437.899C82.625 439.895 82.9579 442.556 85.7882 444.219C86.4541 444.718 87.2866 445.217 88.119 445.384C96.4433 447.879 105.1 448.877 113.758 448.045C119.085 447.546 124.413 446.881 129.74 446.049C134.402 445.384 138.897 444.219 143.392 443.221C144.558 438.73 142.726 427.753 139.73 423.262ZM85.1223 187.409C85.4553 187.741 85.6218 188.074 85.9547 188.24C91.4488 191.234 96.9428 194.561 102.603 197.222C108.43 200.05 113.758 203.543 117.92 208.699C120.084 211.194 122.582 213.522 124.912 216.017C127.41 218.678 130.739 220.009 134.236 221.173C133.57 220.009 132.737 218.845 132.071 217.681C132.238 217.514 132.404 217.182 132.571 217.015C135.9 218.678 139.064 220.508 142.893 222.338C141.228 219.011 137.066 218.845 136.233 214.52C141.228 216.516 145.723 218.18 150.218 219.843C150.385 219.676 150.385 219.344 150.551 219.177C146.888 215.518 141.561 214.021 138.398 209.697C141.727 210.196 144.558 212.691 148.387 212.524C143.559 208.033 137.399 205.871 133.237 201.38C133.403 201.214 133.403 201.048 133.57 200.881C135.068 201.214 136.566 201.38 138.564 201.879C135.734 198.553 132.571 197.555 129.074 197.056C125.079 196.557 121.583 194.727 118.419 192.232C115.589 190.07 112.925 187.741 110.095 185.579C105.767 182.086 101.438 178.593 97.1092 175.1C92.9471 179.259 89.118 183.251 85.1223 187.409ZM86.7872 59.3362C88.2855 57.1739 91.7817 59.5025 92.9471 56.3423C91.6152 55.677 90.6163 55.178 89.4509 54.5127C90.1168 50.5208 90.6163 46.6952 91.4487 42.2044C89.6174 42.7034 88.6185 43.0361 87.6196 43.3687C86.6207 50.3545 82.1255 53.3484 77.1309 50.5208C77.4639 49.5228 77.9634 48.6912 78.2963 47.6932C77.7969 46.1963 77.1309 44.6993 76.6315 43.3687C69.1396 42.7034 64.811 42.8697 62.9796 44.034C61.4813 43.2024 59.8164 42.3707 58.3181 41.3728C58.1516 41.5391 57.8187 41.7054 57.6522 41.8718C58.1516 43.3687 58.4846 44.8656 58.9841 46.3626C56.4868 45.8636 56.4868 45.8636 55.9873 40.3748C55.4879 41.0401 54.8219 41.7054 54.6554 42.5371C54.1559 45.531 56.8197 46.6953 59.1505 48.5249C56.3202 49.1902 57.3192 51.0198 57.4856 52.3504C57.8186 58.3382 58.9841 64.3261 54.8219 69.3159C55.1549 69.8149 55.3214 69.9812 55.6543 70.1475C62.1473 73.4741 68.9732 74.9711 76.132 75.1374C77.4639 75.1374 79.4618 74.3057 80.1277 73.1414C81.9591 69.8149 84.6228 68.6506 88.119 68.4843C88.6185 68.4843 89.2844 68.3179 89.7839 68.1516C92.9471 67.1536 94.4455 63.4944 93.1136 60.3341C90.9493 60.0015 88.6185 60.9995 86.7872 59.3362ZM98.1082 402.804C102.104 402.804 105.933 402.804 110.095 402.804C112.592 395.652 114.923 388.499 117.254 381.347C117.587 380.349 117.587 379.019 117.42 378.021C116.755 372.532 116.089 367.043 115.256 361.554C115.09 359.891 114.59 358.228 114.091 356.232C108.763 355.899 103.602 355.4 98.1082 357.23C98.1082 372.199 98.1082 387.335 98.1082 402.804ZM35.8425 193.563C40.3376 193.563 44.4998 193.563 48.6619 193.563C49.4944 193.563 50.4933 192.898 50.9928 192.232C53.6565 189.405 56.3202 186.411 58.8175 183.417C60.4824 181.421 61.9808 179.259 63.6456 177.263C63.1462 176.597 62.9797 176.431 62.8132 176.265C60.1494 174.103 57.6521 171.774 54.9884 169.612C54.3224 169.113 53.4901 168.78 52.6576 168.614C49.3279 168.447 45.9982 168.281 42.6685 168.447C38.1734 168.78 33.6782 169.445 29.1831 171.275C31.5139 178.926 33.6782 186.244 35.8425 193.563ZM27.5182 287.705C30.0155 285.709 32.1798 285.542 34.6771 286.041C38.3398 286.873 41.6696 283.879 41.5031 280.22C41.5031 278.224 41.6696 276.062 42.3355 274.398C43.5009 271.737 44.1668 269.076 44.0004 266.082C44.0004 264.585 44.0003 262.922 44.6662 261.591C47.1635 255.603 46.1647 251.611 41.0036 248.285C38.6728 248.285 36.675 248.285 34.8436 248.285C32.8458 250.78 32.6794 253.108 33.5118 255.936C34.0112 257.766 34.0112 260.094 33.5118 262.09C32.3464 266.082 29.6826 268.577 25.354 269.741C26.0199 275.729 26.6858 281.384 27.5182 287.705ZM47.8295 220.674C44.6663 216.683 41.6696 212.857 38.5064 209.031C36.675 211.194 35.0101 213.19 33.3452 215.019C31.6804 216.683 30.182 218.845 28.0177 219.676C24.8545 220.841 23.1897 223.003 22.6902 225.831C21.5248 231.818 21.8578 237.806 22.6902 243.794C25.8534 242.63 28.6836 240.467 30.848 236.975C34.0112 231.818 38.5063 227.993 43.3344 224.334C44.8327 223.336 46.1646 222.005 47.8295 220.674ZM92.4476 340.763C92.2811 340.763 92.1147 340.763 91.7817 340.763C91.4488 342.759 91.1157 344.755 90.7828 346.585C89.2844 355.733 87.6196 364.881 86.1212 374.029C85.7882 376.191 85.2887 378.187 82.9579 378.852C82.292 382.013 82.958 384.84 85.2888 386.67C88.6185 389.331 92.2812 391.66 95.9439 393.988C96.1104 393.988 96.2768 393.822 96.9427 393.656C96.9427 392.824 96.9427 391.992 96.9427 390.994C96.7763 386.836 96.9427 382.512 96.6098 378.353C95.9438 370.869 97.9417 363.051 95.1114 355.566C93.946 352.406 93.7795 348.747 93.28 345.42C92.7806 344.09 92.6141 342.427 92.4476 340.763ZM47.3301 257.599C47.663 257.766 47.996 257.766 48.3289 257.932C48.8284 257.1 49.6608 256.269 49.9938 255.271C50.9927 251.279 51.8251 247.287 52.4911 243.129C52.9905 240.135 54.3225 237.973 56.4868 236.143C59.4835 233.648 62.3137 231.153 65.3105 228.825C66.1429 228.159 67.1418 227.827 68.1408 227.827C71.304 227.494 73.8012 228.658 74.9666 231.818C75.9655 231.486 76.798 230.987 77.7969 230.82C78.7958 230.488 79.7947 230.321 81.1266 229.989C80.9601 228.325 80.7936 226.829 80.4606 225.165C76.6315 227.328 75.1332 227.161 73.1353 224.833C72.6359 224.167 72.1364 223.502 71.6369 222.67C70.1385 220.674 68.8067 218.678 67.6413 217.182C64.8111 218.346 62.4803 219.177 60.6489 220.009C59.1505 221.839 58.3181 224.001 56.6532 225.165C53.3235 227.494 52.3246 230.488 52.1581 234.313C51.9916 238.472 49.9939 241.632 45.9982 243.129C44.1669 243.794 43.0014 245.125 42.3355 247.287C45.3322 249.782 47.996 252.776 47.3301 257.599ZM64.6445 396.317C59.9829 395.984 55.9873 395.485 52.1581 395.153C51.3257 400.974 50.4932 406.463 49.6608 411.952C53.8229 415.944 58.8176 419.104 63.9786 421.931C67.1418 423.761 68.4737 423.595 71.4705 420.767C64.4781 414.28 63.4791 405.631 64.6445 396.317ZM84.7893 232.484C83.1245 232.151 81.4596 231.818 79.9612 231.818C76.798 231.985 75.4661 233.315 74.6336 236.309C74.1342 237.806 73.4683 239.303 72.4693 240.301C70.638 242.463 70.4715 244.958 70.8045 247.62C70.971 248.784 71.3039 250.281 70.8045 251.279C69.6391 253.774 69.8056 256.269 69.9721 258.764C70.1385 261.092 69.6392 263.421 70.1386 265.583C70.4716 267.08 71.8034 268.743 73.1353 269.242C74.9667 269.908 75.9656 268.244 76.465 266.581C77.2975 264.252 78.7958 262.922 81.4596 263.088C81.9591 263.088 82.625 263.088 83.1245 262.922C86.1212 262.423 87.1201 261.092 86.7872 257.932C86.4542 254.273 86.1212 250.447 85.7882 246.788C85.6217 242.297 85.2888 237.474 84.7893 232.484ZM48.8284 259.429C46.3311 260.926 45.1657 263.088 45.4987 265.916C45.8316 268.91 45.3322 271.737 44.1668 274.565C43.5009 276.062 42.835 277.891 43.1679 279.555C43.5009 281.55 44.6663 283.546 45.8317 285.21C47.663 287.705 48.8284 290.366 48.8284 293.36C48.8284 294.69 48.9949 296.187 50.4932 296.686C52.1581 297.019 53.49 296.187 54.4889 294.857C55.4878 293.526 56.4868 292.362 57.6522 291.197C60.316 288.536 61.1483 284.544 59.6499 281.218C58.4845 278.723 58.8176 276.394 59.8165 274.066C60.4824 272.569 61.1483 271.072 61.6478 269.575C62.4802 266.415 61.6478 263.92 58.9841 261.924C51.8252 266.415 51.3257 266.415 48.8284 259.429ZM92.2812 27.9002C85.9547 25.5716 69.9721 24.5736 67.8078 25.9043C67.9743 28.5655 68.8067 31.2268 68.3072 33.389C67.6413 35.5513 65.477 37.0482 63.4792 39.5431C73.1354 39.5431 82.1256 39.5431 90.9493 39.5431C91.4488 35.5513 91.9482 31.892 92.2812 27.9002ZM63.4792 348.248C62.6468 348.414 62.4803 348.248 62.3138 348.414C57.8187 350.41 53.157 351.575 48.3289 352.406C46.3311 352.739 44.0003 350.909 42.0025 350.078C42.0025 349.911 42.0025 349.579 42.169 349.412C41.17 349.745 40.0046 350.078 38.8392 350.577C39.5052 353.903 40.1711 357.063 40.8371 360.057C41.6695 363.883 44.8328 366.544 48.6619 366.71C52.4911 366.877 55.8209 365.879 58.4846 362.719C57.4857 360.224 57.8187 357.729 59.317 355.4C60.1495 354.236 61.1484 353.072 61.8143 351.907C62.3138 350.743 62.6468 349.579 63.4792 348.248ZM110.595 405.132C105.933 403.635 104.768 403.968 102.27 407.295C100.605 409.623 98.2746 410.455 95.7773 409.623C91.1157 408.126 86.6206 409.457 82.1255 409.956C81.2931 410.122 79.7948 410.954 79.7948 411.453C79.7948 412.451 80.4606 413.781 81.2931 414.28C83.2909 415.278 85.2887 416.276 87.453 416.443C93.1136 417.108 98.7741 417.274 104.435 417.441C106.266 417.441 107.931 417.108 109.429 416.775C111.094 413.116 111.593 409.29 110.595 405.132ZM74.9666 360.556C72.8023 360.224 71.1375 359.891 69.4726 359.891C68.6402 359.891 67.6413 360.224 66.8089 360.556C65.477 361.222 64.1451 362.386 62.8132 362.552C59.317 362.885 57.3192 365.214 55.3214 367.542C54.4889 368.54 53.9894 370.37 54.1559 371.7C54.3224 373.863 55.1549 376.025 55.9873 378.686C57.6522 377.189 58.984 375.859 60.4824 374.528C61.8143 373.364 63.4791 372.698 65.3105 373.696C66.6424 374.528 67.4748 376.69 66.6424 378.52C65.8099 380.349 64.6446 381.846 63.4792 383.51C62.8132 384.508 61.9807 385.506 61.3148 386.67C66.3094 389.331 71.304 386.836 71.9699 382.013C72.3029 380.349 72.4694 378.852 72.8023 377.189C73.3018 371.867 74.1342 366.211 74.9666 360.556ZM114.424 91.1048C114.091 90.9385 113.758 90.9385 113.425 90.7722C113.258 91.6038 112.925 92.2692 112.759 93.1008C111.261 97.5916 110.095 102.083 108.43 106.407C103.103 120.545 97.1092 134.35 90.2833 147.823C88.785 150.817 86.7871 153.811 85.2888 156.804C82.4585 162.626 78.7958 167.616 74.4672 172.273C71.6369 175.267 69.1397 178.593 66.4759 181.754C61.3149 187.741 55.9873 193.729 50.8262 199.717C49.4943 201.38 47.996 202.877 46.6641 204.374C46.8306 204.541 46.9971 204.707 47.3301 205.04C48.4955 204.042 49.8273 203.044 50.8262 201.879C59.65 191.733 68.4737 181.587 77.2975 171.441C79.1288 169.279 81.4596 167.616 82.7915 165.121C87.1201 157.802 91.4487 150.318 94.9449 142.667C101.105 129.028 106.599 115.222 112.093 101.417C113.258 98.4233 113.591 94.5977 114.424 91.1048ZM112.759 205.539C112.592 205.539 112.259 205.539 112.093 205.539C111.26 210.029 111.594 214.52 112.592 219.011C113.924 224.5 117.254 228.991 120.251 233.315C122.582 236.808 124.08 240.467 124.246 244.459C125.245 258.93 126.411 273.567 126.91 288.204C127.576 309.66 127.909 331.283 128.242 352.739C128.242 353.57 128.409 354.236 128.409 355.067C128.575 355.067 128.908 355.067 129.074 355.067C129.074 354.236 129.074 353.238 129.074 352.406C128.908 344.256 128.908 336.106 128.741 327.956C128.408 310.658 128.242 293.193 127.909 275.895C127.576 266.747 126.577 257.433 126.244 248.285C125.911 241.299 123.913 235.311 119.418 229.822C115.423 224.833 113.258 218.845 112.925 212.192C112.925 209.863 112.759 207.701 112.759 205.539ZM120.417 415.278C115.09 418.937 114.424 425.923 109.429 429.749C113.924 433.408 117.087 433.408 121.25 429.915C122.914 428.418 124.746 427.254 126.577 425.757C125.079 422.763 123.414 419.769 121.916 416.942C121.416 416.276 120.917 415.944 120.417 415.278ZM76.9645 269.741C77.6304 270.074 78.2964 270.406 78.9623 270.739C83.6239 273.068 85.1222 276.228 83.7903 281.218C83.2909 283.214 82.4585 285.21 81.959 287.206C81.7926 287.871 81.6261 288.536 81.4596 289.368C83.2909 289.202 84.7893 288.869 86.1212 288.703C88.6185 282.715 88.9514 268.411 86.9536 263.753C84.9558 264.086 83.1244 264.585 81.2931 264.585C79.7947 264.751 78.7958 265.25 78.1299 266.747C77.7969 267.579 77.4639 268.577 76.9645 269.741ZM80.9602 320.804C77.7969 320.638 74.6337 321.469 73.1353 318.974C70.971 320.305 68.9732 321.469 66.9753 322.634C66.8089 324.796 66.4759 327.124 66.6424 329.453C66.8088 331.782 67.6413 334.11 68.1408 336.439C69.6391 336.938 70.971 336.106 71.6369 334.775C72.3029 333.445 73.1353 332.114 73.6348 330.617C74.6337 327.457 76.132 325.295 79.9612 325.461C80.2942 323.964 80.6272 322.634 80.9602 320.804ZM45.6652 382.512C47.996 379.85 49.9938 377.854 53.8229 379.684C53.157 375.359 52.6575 371.867 52.1581 368.041C50.4932 368.041 48.6619 368.207 46.9971 368.041C45.3322 367.708 43.6673 366.877 41.6695 366.211C43.0014 371.534 44.3333 376.524 45.6652 382.512ZM67.8078 24.5736C68.1407 18.9185 69.9721 16.2572 75.1332 15.9246C79.1288 15.5919 83.2909 16.2572 87.453 16.7562C88.6184 16.9225 89.9504 17.7542 90.9493 18.5858C92.2812 19.5838 92.2811 21.0807 91.2822 22.0787C90.2833 22.9103 88.9514 22.5777 87.9525 21.4134C88.7849 21.4134 89.7838 21.247 90.7828 21.247C90.9492 19.2511 89.6174 18.7522 88.452 18.4195C83.9569 16.9225 79.2952 16.2572 74.6336 17.2552C73.8012 17.4215 72.9688 17.7542 72.1364 18.0868C69.6391 19.5838 68.9732 21.5797 70.1386 23.9083C73.4683 17.9205 78.2964 16.5899 83.9569 20.2491C84.9558 20.9144 85.9547 21.746 86.9536 22.4114C87.6196 22.9103 88.119 23.4093 88.9515 23.742C91.1158 24.7399 93.1136 23.5757 93.1136 21.0808C93.1136 18.9185 90.9493 16.0909 88.9515 15.9246C85.1223 15.4256 81.1266 14.9266 77.2975 14.5939C73.9678 14.4276 70.8045 15.5919 68.1408 17.5879C66.9754 18.4195 65.9764 19.7501 65.3105 21.0808C64.9775 21.7461 65.477 23.0767 65.8099 23.9083C65.8099 24.241 66.8089 24.241 67.8078 24.5736ZM80.9602 377.688C78.4629 377.688 76.2986 377.688 73.9678 377.688C73.4683 381.68 72.9688 385.506 72.4693 389.497C74.9666 390.495 77.464 391.327 79.7948 392.325C80.4607 390.994 80.7936 390.163 81.2931 389.165C82.292 389.165 82.958 388.998 84.2899 388.998C81.1267 385.506 80.1277 381.846 80.9602 377.688ZM31.6804 203.21C34.5106 203.709 37.0079 204.042 39.6717 204.374C42.3354 201.547 44.9992 198.719 47.8295 195.892C42.502 195.892 37.5074 195.892 32.5128 195.892C32.1798 198.386 32.0134 200.549 31.6804 203.21ZM80.1277 339.1C83.9569 340.93 86.9537 338.102 90.1169 337.437C90.6163 331.615 91.2823 325.96 91.7817 320.305C89.9504 322.467 88.2855 324.629 86.7872 326.958C86.2877 327.79 85.9547 328.788 85.9547 329.619C86.1212 333.778 84.4563 336.605 80.6272 338.268C80.4607 338.268 80.4607 338.601 80.1277 339.1ZM110.928 69.9812C105.267 68.8169 99.4401 70.1475 95.1114 67.1536C93.7796 68.4842 92.7806 69.6485 91.9482 70.4802C96.6098 71.9771 101.937 73.8067 107.265 75.6363C108.43 73.8067 109.596 71.9771 110.928 69.9812ZM92.2812 314.151C92.9471 308.662 90.2833 288.703 88.6185 285.709C87.786 290.699 86.9536 295.688 86.2876 300.678C90.2833 303.672 90.7828 307.83 89.7839 311.988C90.7828 312.82 91.4487 313.486 92.2812 314.151ZM139.896 116.387C140.229 116.387 140.395 116.22 140.728 116.22C140.728 115.389 141.061 114.557 140.895 113.725C140.728 112.062 140.562 110.233 140.229 108.569C139.896 106.241 139.563 104.078 138.897 101.75C137.066 95.2631 132.904 89.9406 127.909 85.616C125.245 83.2874 122.082 81.6241 119.252 79.6282C118.752 79.2956 117.92 79.6282 117.254 79.6282C117.254 79.7945 117.087 80.1272 117.087 80.2935C131.905 87.9446 139.23 100.087 139.896 116.387ZM117.087 82.1231C116.921 82.2895 116.755 82.4558 116.588 82.6221C117.587 83.4538 118.419 84.2854 119.418 84.9507C127.743 90.9385 133.57 98.5896 135.734 108.736C136.233 111.064 136.4 113.393 136.899 115.721C137.066 116.22 137.399 116.553 138.065 117.385C140.229 105.076 128.741 86.2813 117.087 82.1231ZM142.227 113.559C142.56 113.559 142.893 113.559 143.059 113.393C143.059 112.561 143.392 111.563 143.226 110.732C142.56 107.239 142.06 103.746 141.061 100.419C138.564 90.9385 132.737 83.7864 124.579 78.2976C123.081 77.2996 121.916 76.9669 120.584 78.6302C127.243 81.9568 132.071 87.113 136.233 93.1008C140.562 99.4213 141.561 106.407 142.227 113.559ZM101.604 92.7681C88.6184 104.411 84.4563 119.713 83.2909 136.18C85.1222 133.186 85.6217 129.693 86.1212 126.366C87.4531 116.553 90.9493 107.738 96.7763 99.7539C98.2747 97.4253 99.9395 95.0967 101.604 92.7681ZM145.057 110.898C145.224 96.0947 137.732 85.2834 127.243 75.6363C126.411 75.969 125.578 76.3017 124.246 76.8007C137.565 84.7844 142.726 96.9264 145.057 110.898ZM60.3159 259.762C61.6478 262.256 62.8132 264.419 64.1451 266.914C65.3105 266.914 66.8089 266.747 68.6402 266.581C67.4748 263.088 69.6391 259.595 68.1408 256.102C64.9775 256.934 61.8143 256.768 60.3159 259.762ZM129.574 75.6363C138.398 84.1191 144.891 93.9324 146.888 106.241C147.221 104.744 147.388 103.247 147.055 101.916C145.057 91.7701 139.73 83.2874 132.571 75.8027C131.738 74.8047 130.739 74.3057 129.574 75.6363ZM116.255 85.2834C116.588 85.9487 116.755 86.7803 117.254 87.2793C118.586 88.4436 120.251 89.4416 121.583 90.6059C129.074 97.0927 133.903 104.91 134.402 115.056C134.402 115.888 134.901 116.553 135.068 117.385C136.4 104.577 126.91 89.7742 116.255 85.2834ZM84.1233 205.539C84.2898 205.539 84.4563 205.539 84.6228 205.539C85.6217 200.715 86.4541 195.892 87.453 190.902C86.2876 190.236 85.2888 189.571 84.2899 188.906C81.4596 190.403 80.9601 192.565 81.959 195.06C82.4585 196.39 82.6249 197.887 82.9579 199.218C83.2909 201.38 83.7904 203.376 84.1233 205.539ZM147.055 149.819C146.888 149.652 146.722 149.486 146.555 149.32C146.389 149.652 146.222 149.985 146.222 150.484C145.224 160.796 144.391 170.942 143.392 181.421C144.891 180.09 145.39 178.261 145.557 176.597C146.222 172.107 146.888 167.449 147.055 162.959C147.221 158.634 147.055 154.31 147.055 149.819ZM144.558 153.145C144.225 153.145 143.892 153.145 143.559 152.979C142.227 163.624 140.728 174.269 139.397 185.08C141.061 184.581 141.394 183.251 141.561 181.92C142.227 175.932 143.059 169.944 143.725 163.957C144.058 160.297 144.225 156.638 144.558 153.145ZM69.8056 394.986C70.3051 392.325 70.638 390.163 70.8045 388.333C67.6413 388.998 64.6445 389.497 61.6478 390.163C61.3148 391.161 60.6489 392.658 60.1495 394.321C63.3127 394.487 66.3094 394.654 69.8056 394.986ZM114.257 88.4436C106.099 90.7722 95.4444 105.076 92.4476 117.717C98.1081 106.906 103.436 95.7621 114.257 88.4436ZM115.589 88.9426C118.253 91.4375 121.416 93.7661 123.747 96.5937C126.244 99.5876 128.408 102.914 129.907 106.407C131.405 109.734 131.738 113.725 132.571 117.551C134.735 109.401 126.744 93.5998 115.589 88.9426ZM79.7948 194.228C79.6283 194.228 79.2953 194.062 79.1288 194.062C76.798 196.723 74.3007 199.384 71.9699 202.046C75.2996 202.046 78.2963 202.046 81.6261 202.046C80.7936 199.218 80.2942 196.723 79.7948 194.228ZM78.9623 40.8738C78.6294 43.2024 78.7959 45.032 80.1277 46.3626C80.9602 47.1942 82.6249 47.8596 83.7903 47.6932C84.4563 47.6932 85.2888 46.1963 85.6217 45.1983C85.9547 44.2004 85.6217 43.036 85.6217 41.5391C83.2909 41.3728 81.1266 41.2064 78.9623 40.8738ZM138.231 160.297C137.898 160.297 137.399 160.131 137.066 160.131C136.899 161.129 136.566 162.293 136.4 163.291C136.233 165.121 136.067 166.95 135.9 168.78C135.234 174.269 134.568 179.758 134.069 185.247C134.069 185.912 134.236 186.411 134.402 187.076C134.735 187.076 135.068 187.076 135.401 187.076C136.4 178.094 137.232 169.113 138.231 160.297ZM127.41 243.295C127.576 243.129 127.743 242.962 127.743 242.796C128.575 235.977 129.241 229.323 129.907 222.504C129.907 221.839 129.407 221.173 129.074 220.508C128.741 220.508 128.575 220.674 128.242 220.674C127.909 228.326 125.911 235.644 127.41 243.295ZM106.266 180.922C106.599 180.922 106.765 180.922 107.098 180.922C107.598 174.435 107.931 168.115 108.43 161.628C105.6 164.289 104.435 178.593 106.266 180.922ZM99.6065 20.5817C101.771 17.4215 103.935 13.9286 106.266 10.6021C108.93 6.94284 113.258 6.44387 117.087 4.94692C109.096 3.78262 99.9394 12.4317 99.6065 20.5817ZM58.9841 215.186C59.317 216.017 59.65 216.849 59.9829 217.681C66.3094 217.681 66.6423 215.518 65.4769 209.198C63.3126 211.027 61.3149 212.857 58.9841 215.186ZM85.7882 302.674C85.1222 306.333 84.6228 309.826 83.9569 313.319C85.2888 313.319 86.2876 313.485 87.1201 313.485C89.4509 309.826 88.9514 305.668 85.7882 302.674ZM108.93 5.11325C103.769 4.61427 101.771 8.10717 99.6065 11.1011C97.4422 13.9287 96.7763 18.0868 97.7752 19.9164C103.769 8.27348 103.935 7.94083 108.93 5.11325ZM127.243 147.157C127.41 147.157 127.743 147.157 127.909 147.324C128.575 139.174 129.407 131.19 130.073 123.04C128.908 124.703 127.909 126.366 127.743 128.196C127.576 134.516 127.41 140.837 127.243 147.157ZM135.234 163.624C134.901 163.624 134.568 163.458 134.402 163.458C132.404 167.117 133.403 171.275 132.904 175.1C132.238 179.092 131.905 183.084 131.405 187.076C131.738 187.076 132.071 187.076 132.571 187.242C133.403 179.259 134.402 171.441 135.234 163.624ZM108.93 78.9629C117.587 75.969 126.078 72.9751 134.735 69.9812C125.412 70.6465 117.42 75.6363 108.93 78.9629ZM126.411 130.857C125.245 133.352 124.579 148.987 125.245 151.815C126.078 144.496 127.077 137.677 126.411 130.857ZM126.078 187.409C126.91 187.076 127.576 187.076 127.743 186.91C128.242 182.086 128.742 177.429 129.241 172.606C129.074 172.606 128.908 172.439 128.575 172.439C128.242 173.105 127.41 173.604 127.41 174.269C127.077 178.593 126.577 182.918 126.078 187.409ZM93.946 407.461C98.1082 409.457 100.772 408.791 101.937 404.633C97.9417 403.802 95.9439 404.467 93.946 407.461ZM122.748 187.741C123.58 187.575 124.413 187.575 124.413 187.242C125.578 183.75 126.078 179.924 126.411 175.932C124.246 177.263 123.247 180.589 122.748 187.741ZM132.238 167.782C131.905 167.782 131.738 167.782 131.405 167.616C129.907 173.936 129.74 180.589 129.074 187.076C129.407 187.076 129.74 187.076 130.073 187.242C130.739 180.756 131.572 174.269 132.238 167.782ZM103.935 178.593C104.268 174.435 104.601 170.277 105.101 165.62C101.937 168.946 101.438 176.93 103.935 178.593ZM149.053 161.961C149.552 156.472 150.052 150.983 150.551 145.494C148.553 147.157 147.887 154.808 149.053 161.961ZM120.584 142.334C120.417 142.334 120.251 142.168 120.084 142.168C118.419 146.159 118.586 150.484 117.92 154.809C119.918 154.975 120.084 153.977 120.251 152.646C120.251 149.153 120.417 145.827 120.584 142.334ZM83.4575 220.175C82.625 221.672 80.1277 221.34 81.2931 223.502C82.292 223.169 83.291 222.837 84.2899 222.504C84.2899 219.843 84.2899 217.514 84.2899 214.354C83.1245 215.685 82.292 216.516 81.6261 217.348C82.292 218.679 82.958 219.51 83.4575 220.175ZM88.9515 392.491C86.7871 390.329 84.4563 390.163 81.6261 390.495C83.9569 393.822 86.6207 394.487 88.9515 392.491ZM76.2985 151.981C76.9644 151.316 77.131 151.149 77.2975 150.817C78.7958 148.987 78.1299 146.825 78.2963 144.829C78.4628 141.336 78.7958 137.843 79.1288 134.35C78.9623 134.35 78.7958 134.35 78.6293 134.35C77.9634 140.005 77.1309 145.827 76.2985 151.981ZM109.096 174.269C112.093 172.606 111.427 169.944 112.093 167.449C111.26 167.283 110.595 167.117 109.596 166.95C109.263 169.445 109.096 171.608 109.096 174.269ZM115.256 156.971C115.589 156.971 115.922 157.137 116.255 157.137C116.588 154.143 116.921 151.316 117.42 148.322C114.424 150.817 115.09 153.977 115.256 156.971ZM120.584 179.591C117.92 181.754 116.921 185.746 118.752 188.074C119.418 185.08 120.084 182.585 120.584 179.591ZM54.4889 217.348C54.3224 214.853 49.1614 208.865 46.6641 207.867C49.3279 211.194 51.8252 214.188 54.4889 217.348ZM41.6695 347.749C41.1701 346.585 40.8371 345.42 40.3377 344.422C37.1744 346.252 37.1745 346.252 38.5064 348.747C39.5053 348.414 40.5041 348.082 41.6695 347.749ZM123.081 178.094C122.748 178.094 122.415 177.928 122.082 177.928C121.583 181.088 120.917 184.082 120.417 187.242C120.75 187.242 120.917 187.409 121.25 187.409C121.916 184.249 122.582 181.255 123.081 178.094ZM111.094 156.971C109.096 158.967 109.263 161.462 109.929 163.79C111.427 161.794 110.761 159.299 111.094 156.971ZM112.093 162.127C115.09 159.466 113.258 156.971 113.425 154.476C112.426 156.638 112.259 159.133 112.093 162.127ZM130.073 195.892C130.406 195.892 130.906 196.058 131.239 196.058C131.738 193.896 132.071 191.733 131.405 189.405C131.239 189.405 130.906 189.405 130.739 189.405C130.406 191.567 130.24 193.729 130.073 195.892ZM114.757 183.084C113.591 186.577 113.591 186.577 115.922 187.242C116.255 186.078 116.422 184.914 116.755 183.583C115.922 183.417 115.423 183.251 114.757 183.084ZM109.263 178.261C107.764 180.257 107.764 181.421 109.263 183.084C109.762 181.421 110.262 179.924 109.263 178.261ZM100.272 175.766C100.439 175.766 100.772 175.766 100.938 175.766C101.105 174.103 101.105 172.273 101.271 170.61C99.44 172.273 99.9395 174.103 100.272 175.766ZM82.4585 225.997C82.4585 226.33 82.292 226.496 82.292 226.829C83.1245 227.161 83.7904 227.328 84.9558 227.66C84.7893 226.496 84.7893 225.997 84.6228 225.165C83.6239 225.498 82.9579 225.664 82.4585 225.997ZM91.9482 50.6871C90.6163 53.681 90.6163 53.6811 93.1136 54.3464C92.7806 53.1821 92.4476 52.1841 91.9482 50.6871ZM47.4965 211.027C46.9971 211.027 46.6641 211.194 46.1646 211.194C46.3311 212.025 46.4976 212.691 46.6641 213.522C46.9971 213.522 47.4965 213.356 47.8295 213.356C47.663 212.524 47.4965 211.693 47.4965 211.027ZM114.257 167.117C113.924 167.117 113.591 166.95 113.258 166.95C113.092 167.948 112.925 168.78 112.759 169.778C113.092 169.778 113.258 169.944 113.591 169.944C113.924 168.946 114.091 167.948 114.257 167.117ZM44.9992 207.036C45.3322 206.703 45.4987 206.537 45.8317 206.204C44.8327 205.372 44.0003 204.541 43.0014 203.709C42.8349 203.875 42.6684 204.042 42.5019 204.374C43.3344 205.206 44.1668 206.038 44.9992 207.036ZM139.23 118.882C138.897 118.715 138.731 118.549 138.398 118.383C137.066 118.882 137.565 120.046 138.065 121.21C138.564 120.379 138.897 119.547 139.23 118.882ZM40.8371 209.53C41.0036 209.863 41.1701 210.029 41.5031 210.362C42.3355 209.697 43.1679 209.031 44.0004 208.366C43.8339 208.2 43.6674 208.033 43.5009 207.867C42.502 208.366 41.6695 209.031 40.8371 209.53ZM111.593 185.413C111.926 185.579 112.259 185.579 112.592 185.746C112.759 185.08 112.925 184.415 113.092 183.75C112.925 183.75 112.592 183.583 112.426 183.583C112.093 184.249 111.926 184.748 111.593 185.413ZM110.928 178.76C111.094 178.926 111.261 179.092 111.427 179.259C111.593 178.76 111.926 178.427 112.093 177.928C111.926 177.928 111.76 177.762 111.76 177.762C111.594 178.094 111.261 178.427 110.928 178.76ZM147.887 166.784C148.054 166.784 148.054 166.784 148.22 166.784C148.22 166.119 148.22 165.454 148.22 164.955H148.054C148.054 165.62 148.054 166.119 147.887 166.784ZM83.2909 230.155C83.2909 230.321 83.2909 230.488 83.2909 230.654C83.7904 230.82 84.2899 230.82 84.7893 230.987C84.7893 230.82 84.7893 230.654 84.7893 230.321C84.2899 230.155 83.7904 230.155 83.2909 230.155ZM89.4509 339.266C89.2844 339.266 89.1179 339.433 89.1179 339.433C89.1179 339.599 89.2844 339.765 89.2844 339.932C89.4509 339.765 89.6174 339.765 89.7839 339.599C89.7839 339.599 89.6174 339.433 89.4509 339.266ZM79.4618 131.523C79.4618 131.19 79.4618 131.356 79.4618 131.523C79.4618 131.356 79.4618 131.19 79.4618 131.523ZM98.6076 174.269V174.103C98.6076 174.103 98.4411 174.103 98.6076 174.269C98.4411 174.269 98.4411 174.269 98.6076 174.269Z" fill="#201B20"/>
<path d="M118.92 47.6931C119.419 46.5288 119.919 45.3645 120.418 44.2002C120.585 44.3665 120.918 44.3665 121.084 44.5328C121.584 46.0298 120.252 46.8614 119.419 48.0257C119.253 47.8594 119.086 47.8594 118.92 47.6931Z" fill="#201B20"/>
<path d="M87.9535 55.677C86.1221 55.5107 85.7892 55.0117 86.4551 53.3485C87.1211 51.8515 87.9535 50.5209 88.6194 49.0239C88.7859 49.0239 89.1189 49.0239 89.2854 49.1903C88.9525 51.1862 88.4529 53.3485 87.9535 55.677Z" fill="#201B20"/>
<path d="M77.7959 241.299C76.9634 240.135 76.1311 239.469 75.9646 238.804C75.7981 237.64 76.6305 236.808 77.7959 236.974C78.4618 237.141 79.6272 238.139 79.6272 238.638C79.6272 239.303 78.6283 240.135 77.7959 241.299Z" fill="#201B20"/>
<path d="M82.2913 232.151C83.1238 233.482 83.9561 234.313 84.1226 235.145C84.1226 235.478 82.9573 236.642 82.6243 236.642C81.9584 236.475 80.9594 235.81 80.7929 235.145C80.6264 234.313 81.4589 233.482 82.2913 232.151Z" fill="#201B20"/>
<path d="M75.9649 260.26C74.7995 261.092 74.1336 261.924 73.4676 261.924C72.9682 261.924 71.9692 260.759 72.1357 260.26C72.3022 259.595 73.1346 258.763 73.8005 258.597C74.1335 258.431 74.966 259.429 75.9649 260.26Z" fill="#201B20"/>
<path d="M76.2989 254.938C74.967 255.603 74.3011 256.269 73.6351 256.269C73.1357 256.269 72.6362 255.271 72.1367 254.605C72.8027 254.106 73.4686 253.275 74.1346 253.108C74.634 253.108 75.1335 254.106 76.2989 254.938Z" fill="#201B20"/>
<path d="M78.6299 256.768C77.4645 255.271 77.4645 254.273 78.6299 253.774C79.1294 253.441 80.1283 253.607 80.6278 253.94C80.9607 254.106 81.2937 255.437 81.1272 255.603C80.2948 256.269 79.4623 256.435 78.6299 256.768Z" fill="#201B20"/>
<path d="M75.1343 247.786C75.3007 248.617 75.6337 249.615 75.3007 250.281C74.9677 250.946 73.9688 251.112 73.1364 251.445C72.1375 248.784 72.304 248.617 75.1343 247.786Z" fill="#201B20"/>
<path d="M77.4642 243.96C76.2988 244.792 75.6329 245.457 74.8004 245.457C74.301 245.457 73.4686 244.459 73.4686 243.794C73.3021 242.63 74.1345 241.964 75.1334 242.131C75.7994 242.463 76.2988 243.129 77.4642 243.96Z" fill="#201B20"/>
<path d="M80.9604 241.964C81.6263 242.962 82.4587 243.794 82.2922 243.96C81.7928 244.626 81.1268 245.291 80.4608 245.457C80.2944 245.624 79.129 244.459 79.2955 244.127C79.462 243.461 80.128 242.962 80.9604 241.964Z" fill="#201B20"/>
<path d="M79.9606 247.62C80.6265 248.618 81.459 249.449 81.459 249.948C81.2925 250.613 80.2936 251.279 79.7941 251.279C79.2947 251.279 78.2957 250.281 78.2957 249.782C78.1292 249.117 79.1281 248.618 79.9606 247.62Z" fill="#201B20"/>
<path d="M73.801 262.922C74.4669 264.086 75.133 264.751 75.133 265.417C75.133 265.916 74.134 266.249 73.6345 266.748C73.1351 266.082 72.4692 265.583 72.3027 264.918C72.1362 264.585 72.9686 263.92 73.801 262.922Z" fill="#201B20"/>
<path d="M84.1229 256.602C84.9553 257.6 85.7877 258.098 85.7877 258.764C85.7877 259.263 84.7889 260.094 84.2894 260.261C83.9565 260.427 82.791 259.429 82.791 259.096C82.791 258.265 83.4569 257.766 84.1229 256.602Z" fill="#201B20"/>
<path d="M83.2912 241.798C82.4588 240.8 81.6264 240.301 81.7929 239.802C81.9594 239.137 82.7918 238.638 83.2912 238.139C83.7907 238.638 84.6231 239.137 84.6231 239.636C84.6231 240.135 83.9572 240.8 83.2912 241.798Z" fill="#201B20"/>
<path d="M81.1265 259.096C80.96 259.928 80.96 260.926 80.4605 261.425C80.1275 261.757 79.1287 261.591 78.4628 261.258C78.1298 261.092 77.9633 259.928 78.1298 259.761C78.7957 259.262 79.6281 258.763 80.4605 258.431C80.627 258.763 80.7935 258.93 81.1265 259.096Z" fill="#201B20"/>
<path d="M84.6228 251.611C85.2888 252.443 85.9548 252.942 85.9548 253.275C85.7883 253.94 85.1224 254.273 84.7894 254.772C84.2899 254.273 83.4575 253.94 83.4575 253.441C83.291 252.942 83.9569 252.443 84.6228 251.611Z" fill="#201B20"/>
<path d="M83.9569 249.948C83.291 248.784 82.625 248.119 82.7915 247.62C82.958 247.121 83.6239 246.622 84.1234 246.123C84.6228 246.622 85.2888 247.121 85.2888 247.62C85.4553 248.285 84.7893 248.784 83.9569 249.948Z" fill="#201B20"/>
<path d="M47.6629 276.893C46.8305 275.563 45.998 274.897 45.998 274.232C45.998 273.567 46.997 272.901 47.6629 272.402C48.1624 273.068 49.1613 273.567 49.3278 274.232C49.3278 274.897 48.3288 275.729 47.6629 276.893Z" fill="#201B20"/>
<path d="M45.1668 279.222C46.9982 278.723 48.33 278.723 48.4965 280.552C48.4965 281.051 47.3311 282.216 46.8317 282.216C45.1668 282.049 44.8338 280.885 45.1668 279.222Z" fill="#201B20"/>
<path d="M52.991 288.204C53.8235 289.368 54.4894 290.033 54.6559 290.699C54.8224 291.031 53.657 292.196 53.4906 292.196C52.8246 291.863 51.8256 291.364 51.6592 290.699C51.3262 290.2 52.1586 289.534 52.991 288.204Z" fill="#201B20"/>
<path d="M52.3258 286.54C51.3269 287.206 50.4944 288.204 49.9949 288.037C49.329 287.871 48.8295 286.873 48.3301 286.208C48.996 285.709 49.4955 284.877 50.1615 284.877C50.8274 284.877 51.4933 285.875 52.3258 286.54Z" fill="#201B20"/>
<path d="M57.3187 273.567C56.4862 272.402 55.6538 271.571 55.8203 271.238C56.1532 270.573 56.9857 269.907 57.6517 269.575C57.8181 269.408 58.9835 270.573 58.9835 270.905C58.817 271.737 58.1511 272.236 57.3187 273.567Z" fill="#201B20"/>
<path d="M59.484 282.049C58.4851 282.881 57.8191 283.879 57.3197 283.712C56.6537 283.546 56.1542 282.714 55.4883 282.049C55.9877 281.55 56.4872 280.552 57.1531 280.552C57.8191 280.719 58.4851 281.384 59.484 282.049Z" fill="#201B20"/>
<path d="M56.8206 289.202C55.9882 288.204 55.1557 287.538 55.3222 287.039C55.3222 286.374 56.3212 285.542 56.8206 285.542C57.3201 285.542 58.3189 286.374 58.3189 287.039C58.4854 287.538 57.653 288.204 56.8206 289.202Z" fill="#201B20"/>
<path d="M56.4871 278.723C55.6547 277.725 54.8223 277.06 54.8223 276.561C54.9888 275.895 55.8212 275.396 56.4871 274.731C56.9866 275.23 57.8189 275.729 57.9854 276.394C57.9854 277.06 57.1531 277.725 56.4871 278.723Z" fill="#201B20"/>
<path d="M50.6608 268.078C49.4954 268.743 48.8294 269.575 48.33 269.408C47.664 269.242 46.8316 268.244 46.9981 267.745C46.9981 267.246 47.997 266.414 48.663 266.248C48.9959 266.248 49.6619 267.246 50.6608 268.078Z" fill="#201B20"/>
<path d="M52.159 271.238C52.8249 272.236 53.6574 272.735 53.491 273.234C53.3245 273.9 52.492 274.399 51.9926 275.064C51.4931 274.565 50.4941 274.066 50.4941 273.567C50.4941 272.902 51.3266 272.236 52.159 271.238Z" fill="#201B20"/>
<path d="M52.6581 265.916C53.4906 267.08 54.1564 267.579 54.1564 268.245C54.1564 268.744 53.324 269.243 52.8246 269.742C52.3251 269.243 51.4927 268.744 51.3262 268.078C51.3262 267.579 51.9922 266.914 52.6581 265.916Z" fill="#201B20"/>
<path d="M54.1568 279.222C53.1579 279.887 52.492 280.719 52.159 280.552C51.4931 280.386 50.9936 279.554 50.4941 279.055C50.9936 278.557 51.4931 277.559 52.159 277.559C52.6585 277.559 53.3244 278.39 54.1568 279.222Z" fill="#201B20"/>
<path d="M47.662 260.926C48.4944 262.09 48.9939 262.589 48.9939 263.254C48.9939 263.753 48.3279 264.252 47.9949 264.751C47.4954 264.252 46.6631 263.92 46.4966 263.421C46.3301 262.755 46.9961 262.09 47.662 260.926Z" fill="#201B20"/>
<path d="M60.1492 265.583C59.1503 266.082 58.6508 266.747 58.1513 266.581C57.8183 266.581 57.1523 265.583 57.1523 265.25C57.3188 264.751 57.9848 264.086 58.6508 263.919C58.9837 263.919 59.4832 264.751 60.1492 265.583Z" fill="#201B20"/>
<path d="M52.8248 294.192C51.9924 294.691 51.3265 295.189 50.9935 295.189C50.4941 295.023 50.1611 294.358 49.8281 293.859C50.3276 293.526 50.6605 292.861 51.16 292.861C51.493 292.861 51.9924 293.526 52.8248 294.192Z" fill="#201B20"/>
<path d="M53.3241 285.543C52.6581 284.711 51.9922 284.212 51.9922 283.879C51.9922 283.38 52.6581 283.048 52.9911 282.549C53.4905 282.881 54.1565 283.214 54.323 283.713C54.4895 284.046 53.8235 284.545 53.3241 285.543Z" fill="#201B20"/>
<path d="M75.1328 36.8818C76.9642 33.7215 82.7911 33.5552 86.7868 36.3827C82.6247 37.3807 78.7955 36.5491 75.1328 36.8818Z" fill="#201B20"/>
<path d="M57.6523 327.623C57.6523 327.124 57.8187 326.459 57.9852 325.96C59.6501 326.293 60.982 326.459 62.1474 326.958C62.6468 327.124 63.1463 327.79 63.3128 328.289C63.4793 328.621 63.1463 329.286 62.8134 329.453C62.3139 329.619 61.4815 329.785 60.9821 329.453C59.9831 328.954 59.1507 328.455 57.6523 327.623Z" fill="#201B20"/>
<path d="M58.4846 332.114C61.1484 332.281 61.1484 332.613 60.3159 334.609C59.8165 335.607 59.65 336.605 59.3171 337.936C58.4846 337.603 57.6522 337.27 57.3192 336.771C57.1527 336.439 57.3192 335.274 57.6522 335.108C58.9841 334.443 57.9852 333.112 58.4846 332.114C58.4846 332.114 58.3181 332.114 58.4846 332.114Z" fill="#201B20"/>
<path d="M59.65 339.599C60.316 340.597 61.1484 341.429 61.1484 341.928C61.1484 342.427 60.1495 343.425 59.4836 343.425C58.8176 343.425 57.9852 342.427 57.9852 341.928C57.8187 341.262 58.8176 340.597 59.65 339.599Z" fill="#201B20"/>
<path d="M53.6573 346.585C52.6584 347.25 51.9924 348.082 51.6594 347.915C50.9935 347.583 50.3276 346.917 49.8281 346.252C50.3276 345.753 50.827 344.755 51.16 344.921C51.8259 345.088 52.4919 345.753 53.6573 346.585Z" fill="#201B20"/>
<path d="M63.1464 335.441C62.4804 334.443 61.648 333.777 61.8145 333.112C61.8145 332.613 62.8134 332.114 63.3128 331.615C63.8123 332.281 64.4782 332.779 64.6447 333.445C64.8112 333.944 63.9788 334.443 63.1464 335.441Z" fill="#201B20"/>
<path d="M59.484 345.753C58.3186 346.418 57.6526 347.25 56.9867 347.083C56.3207 346.917 55.9877 346.085 55.4883 345.42C55.9877 344.921 56.4872 344.256 56.9867 344.256C57.6526 344.256 58.3186 344.921 59.484 345.753Z" fill="#201B20"/>
<path d="M49.1607 346.585C48.1618 347.25 47.4959 347.915 47.1629 347.915C46.497 347.749 45.9975 346.917 45.498 346.418C45.9975 345.92 46.497 345.088 46.83 345.088C47.3295 345.088 47.9954 345.753 49.1607 346.585Z" fill="#201B20"/>
<path d="M53.9901 337.769C53.3241 336.605 52.6582 335.94 52.6582 335.274C52.6582 334.775 53.6571 333.777 53.9901 333.944C54.656 334.11 55.4884 334.775 55.6549 335.441C55.4884 335.94 54.656 336.605 53.9901 337.769Z" fill="#201B20"/>
<path d="M48.8295 334.775C49.6619 335.108 50.4944 335.274 51.1604 335.773C51.3268 335.94 51.3269 336.938 50.9939 337.27C50.4945 337.603 49.4955 337.936 49.3291 337.603C48.8296 337.104 48.663 336.106 48.3301 335.441C48.4966 335.108 48.663 334.942 48.8295 334.775Z" fill="#201B20"/>
<path d="M63.4803 339.1C61.6489 339.266 60.4835 338.933 60.8165 337.436C60.9829 336.771 62.1484 336.438 62.8143 335.939C62.9808 336.106 63.1473 336.272 63.4803 336.438C63.4803 337.27 63.4803 338.102 63.4803 339.1Z" fill="#201B20"/>
<path d="M48.6622 340.763C47.6633 341.429 46.9973 342.26 46.4979 342.26C45.9984 342.26 45.166 341.429 45.166 340.93C45.166 340.431 45.9984 339.599 46.4979 339.599C46.9973 339.433 47.4968 340.098 48.6622 340.763Z" fill="#201B20"/>
<path d="M53.9892 339.266C55.6541 338.767 56.4865 339.266 56.4865 340.763C56.4865 341.262 55.4876 342.094 54.9881 342.094C53.6562 341.761 53.3233 340.597 53.9892 339.266Z" fill="#201B20"/>
<path d="M52.8238 341.595C51.8249 342.426 51.1589 343.258 50.8259 343.092C50.16 342.925 49.494 342.26 49.1611 341.595C48.9946 341.262 49.9935 340.264 50.4929 340.098C50.9924 340.264 51.6584 340.929 52.8238 341.595Z" fill="#201B20"/>
<path d="M63.8125 325.461C62.3141 325.461 60.9823 325.295 61.3152 323.465C61.3152 323.133 62.4806 322.467 62.9801 322.467C64.4785 322.966 64.4785 323.964 63.8125 325.461Z" fill="#201B20"/>
<path d="M47.3301 337.104C46.1647 337.936 45.1658 338.268 44.4999 336.938C44.3334 336.605 44.8329 335.607 45.1658 335.441C46.4977 335.108 47.3301 335.607 47.3301 337.104Z" fill="#201B20"/>
<path d="M67.8087 365.047C67.9752 365.879 68.1417 366.71 68.4747 368.041C67.1428 367.874 66.3104 367.875 65.6444 367.542C65.3115 367.376 65.6444 366.211 65.8109 365.546C65.8109 365.047 66.1439 364.548 65.9774 364.049C65.478 362.885 65.6444 361.887 66.9763 361.554C67.6422 361.388 68.6412 361.554 68.9741 362.053C69.8066 363.051 68.9741 363.883 68.1417 364.714C67.9752 364.881 67.8087 365.047 67.8087 365.047Z" fill="#201B20"/>
<path d="M61.3152 368.54C61.9812 369.538 62.8137 370.203 62.8137 370.702C62.8137 371.368 61.9812 371.867 61.3152 372.366C60.6493 371.867 59.8169 371.368 59.6504 370.702C59.6504 370.203 60.4828 369.538 61.3152 368.54Z" fill="#201B20"/>
<path d="M64.3121 365.546C63.1467 366.211 62.4807 367.043 61.9813 367.043C61.3153 367.043 60.9823 366.045 60.3164 365.546C60.8159 365.047 61.3153 364.216 61.9813 364.049C62.6472 363.883 63.3132 364.714 64.3121 365.546Z" fill="#201B20"/>
<path d="M57.4859 366.378C58.1518 367.376 58.9842 368.208 58.8177 368.374C58.4848 369.039 57.8188 369.705 57.1529 370.037C56.9864 370.203 55.6545 369.039 55.821 368.707C55.9875 368.208 56.6534 367.542 57.4859 366.378Z" fill="#201B20"/>
<path d="M72.6349 380.016C71.4695 380.682 70.8035 381.347 70.1376 381.347C69.6381 381.347 68.6391 380.349 68.8056 380.016C68.9721 379.351 69.6381 378.519 70.304 378.519C70.8035 378.353 71.4695 379.185 72.6349 380.016Z" fill="#201B20"/>
<path d="M70.4706 371.7C71.1365 372.864 71.8025 373.364 71.969 374.029C71.969 374.528 71.1366 375.027 70.6371 375.526C70.1377 375.027 69.3052 374.528 69.1387 373.862C68.9722 373.363 69.8046 372.698 70.4706 371.7Z" fill="#201B20"/>
<path d="M68.1405 386.503C67.4746 385.505 66.6422 384.84 66.8086 384.507C67.1416 383.842 67.8076 383.509 68.4735 383.01C68.973 383.509 69.6388 384.008 69.6388 384.674C69.8053 385.173 68.9729 385.672 68.1405 386.503Z" fill="#201B20"/>
<path d="M72.9688 368.54C71.9699 369.205 71.304 370.037 70.9711 370.037C70.3051 369.87 69.9721 369.039 69.4727 368.54C69.9721 368.041 70.4716 367.375 70.9711 367.375C71.4705 367.209 71.9699 367.874 72.9688 368.54Z" fill="#201B20"/>
<path d="M66.1425 373.197C65.4765 372.199 64.8106 371.534 64.977 371.035C65.1435 370.536 65.976 370.037 66.4755 369.538C66.9749 370.037 67.8073 370.536 67.8073 371.035C67.6408 371.7 66.8084 372.199 66.1425 373.197Z" fill="#201B20"/>
<path d="M72.4701 361.72C73.136 362.552 73.802 363.217 73.802 363.55C73.6355 364.215 72.9696 364.548 72.4701 365.047C71.9707 364.714 71.3047 364.215 71.3047 363.882C71.3047 363.217 71.9707 362.718 72.4701 361.72Z" fill="#201B20"/>
<path d="M59.6505 373.696C58.8181 374.362 58.1522 375.027 57.8192 374.861C57.3197 374.694 56.6538 374.029 56.4873 373.364C56.3208 373.031 57.3198 372.199 57.6527 372.199C58.3187 372.366 58.8181 373.031 59.6505 373.696Z" fill="#201B20"/>
<path d="M64.6438 383.676C65.3098 384.507 65.9757 385.006 65.8093 385.505C65.8093 386.004 65.1433 386.337 64.6438 386.836C64.1444 386.337 63.4785 386.004 63.4785 385.505C63.4785 385.006 64.1444 384.507 64.6438 383.676Z" fill="#201B20"/>
<path d="M47.663 237.972C46.4976 238.638 45.6651 239.636 44.9992 239.469C44.3332 239.303 43.3344 238.305 43.5008 237.64C43.5008 236.975 44.6662 236.143 45.3321 235.977C45.8316 235.977 46.4976 236.974 47.663 237.972Z" fill="#201B20"/>
<path d="M49.9933 232.983C48.9944 233.981 48.3285 234.812 47.6626 234.979C47.1631 235.145 46.1642 234.147 45.9977 233.648C45.8312 232.484 46.3307 231.486 47.6626 231.652C48.3285 231.652 48.9944 232.317 49.9933 232.983Z" fill="#201B20"/>
<path d="M45.3316 230.986C44.3327 231.818 43.5003 232.816 43.1673 232.65C42.5014 232.483 41.8354 231.652 41.3359 230.986C41.8354 230.487 42.5013 229.656 43.0008 229.489C43.5002 229.489 44.1662 230.321 45.3316 230.986Z" fill="#201B20"/>
<path d="M38.6727 232.65C39.5051 233.648 40.3375 234.314 40.3375 234.813C40.3375 235.478 39.1721 236.476 38.8391 236.31C38.1732 236.143 37.3408 235.312 37.0078 234.646C37.0078 234.314 38.0067 233.648 38.6727 232.65Z" fill="#201B20"/>
<path d="M41.1707 242.297C40.3383 241.299 39.5059 240.8 39.5059 240.135C39.5059 239.636 40.5048 238.638 41.0043 238.638C41.6702 238.638 42.3362 239.469 42.6691 240.135C42.6691 240.634 41.8367 241.299 41.1707 242.297Z" fill="#201B20"/>
<path d="M47.1629 225.332C47.8288 226.33 48.6614 226.995 48.4949 227.494C48.3284 228.159 47.496 228.824 46.83 228.991C46.497 229.157 45.498 228.159 45.498 227.66C45.6645 226.995 46.3305 226.33 47.1629 225.332Z" fill="#201B20"/>
<path d="M52.6581 223.169C53.1576 224.833 52.6581 225.664 51.1597 225.498C50.6603 225.498 49.8278 224.334 49.9943 224.001C50.3273 222.504 51.4927 222.837 52.6581 223.169Z" fill="#201B20"/>
<path d="M54.3218 219.676C54.4883 219.676 54.6548 219.676 54.8213 219.676C55.9867 219.676 56.8191 220.009 56.4861 221.34C56.4861 221.672 55.6537 222.338 55.3207 222.338C53.9888 222.338 53.8223 221.506 53.9888 220.342C54.3218 220.009 54.3218 219.843 54.3218 219.676Z" fill="#201B20"/>
<path d="M39.3379 241.465C40.0038 242.297 40.8362 242.962 40.6697 243.295C40.5033 243.794 39.8373 244.293 39.5043 244.792C39.0049 244.459 38.3389 243.96 38.3389 243.628C38.1724 242.962 38.6719 242.463 39.3379 241.465Z" fill="#201B20"/>
<path d="M82.1251 311.822C81.6256 311.988 81.1262 312.321 80.7932 312.321C80.1273 311.822 79.1284 311.323 78.9619 310.658C78.7954 310.159 79.7944 309.327 80.1273 308.828C80.7933 309.327 81.6256 309.826 82.1251 310.325C82.4581 310.658 82.1251 311.323 82.1251 311.822C82.1251 311.822 81.9586 311.988 82.1251 311.822Z" fill="#201B20"/>
<path d="M75.2989 308.495C74.1335 309.161 73.301 309.992 72.8016 309.826C72.1356 309.66 71.6362 308.828 71.1367 308.329C71.8027 307.83 72.3021 306.998 72.968 306.832C73.634 306.832 74.1335 307.664 75.2989 308.495Z" fill="#201B20"/>
<path d="M81.4589 307.165C80.7929 306 79.9605 305.335 80.127 304.836C80.2935 304.171 80.9594 303.506 81.6253 303.173C81.9583 303.007 83.1237 304.005 83.1237 304.337C82.7908 305.169 82.1248 305.834 81.4589 307.165Z" fill="#201B20"/>
<path d="M82.1261 298.682C81.9596 298.848 81.7931 299.015 81.6266 299.347C81.1272 299.181 80.4612 299.181 80.2948 298.848C79.9618 298.349 79.4623 297.518 79.6288 297.019C79.7953 296.52 80.9607 295.854 81.2936 296.021C81.9596 296.187 82.2926 297.185 82.6256 297.85C82.6256 297.85 82.2925 298.349 82.1261 298.682Z" fill="#201B20"/>
<path d="M75.4656 314.982C74.6332 313.818 73.8008 313.152 73.8008 312.654C73.8008 311.988 74.6332 311.489 75.2992 310.99C75.7986 311.489 76.7976 311.988 76.7976 312.654C76.9641 312.986 76.1316 313.818 75.4656 314.982Z" fill="#201B20"/>
<path d="M75.2988 307.331C76.4642 306.666 77.1301 306.001 77.4631 306.167C78.1291 306.333 78.6285 307.165 79.128 307.664C78.6285 308.163 77.9626 308.995 77.4631 308.995C76.9637 308.995 76.2977 308.163 75.2988 307.331Z" fill="#201B20"/>
<path d="M77.9627 304.67C77.2968 303.506 76.6309 302.84 76.6309 302.341C76.6309 301.842 77.7962 301.011 77.9627 301.177C78.6287 301.51 79.2946 302.175 79.4611 302.84C79.6276 303.007 78.7952 303.672 77.9627 304.67Z" fill="#201B20"/>
<path d="M74.4682 306.167C73.8022 304.836 73.3027 304.171 73.3027 303.505C73.3027 303.173 74.1352 302.674 74.4682 302.175C74.9676 302.674 75.8001 303.173 75.9666 303.838C76.1331 304.503 75.3006 305.169 74.4682 306.167Z" fill="#201B20"/>
<path d="M81.127 316.812C79.9616 317.311 79.2956 317.976 78.7962 317.81C78.2967 317.644 77.6309 316.812 77.6309 316.313C77.6309 315.814 78.6298 314.982 78.9627 314.982C79.6287 314.982 80.1281 315.814 81.127 316.812Z" fill="#201B20"/>
<path d="M34.177 299.514C33.3446 298.516 32.5122 297.85 32.3457 297.185C32.3457 296.686 33.3446 295.522 33.844 295.688C34.51 295.854 35.3424 296.52 35.6754 297.185C35.8419 297.684 35.0094 298.349 34.177 299.514Z" fill="#201B20"/>
<path d="M37.1733 311.822C36.0079 312.654 35.342 313.319 34.676 313.319C34.1766 313.319 33.6772 312.487 33.1777 311.988C33.6772 311.489 34.1766 310.492 34.676 310.325C35.1755 310.325 36.0079 311.157 37.1733 311.822Z" fill="#201B20"/>
<path d="M37.0078 307.664C35.8424 308.329 35.1765 308.995 34.677 308.995C34.0111 308.828 33.5116 307.997 32.8457 307.498C33.3452 306.999 33.8446 306.001 34.1776 306.167C35.01 306.167 35.676 306.832 37.0078 307.664Z" fill="#201B20"/>
<path d="M36.0094 302.508C34.844 303.173 34.1779 303.838 33.845 303.672C33.179 303.339 32.6796 302.508 32.0137 301.842C32.5131 301.51 33.1791 300.678 33.6785 300.845C34.3445 300.845 34.844 301.676 36.0094 302.508Z" fill="#201B20"/>
<path d="M34.8428 290.366C35.6752 291.364 36.5076 291.863 36.5076 292.528C36.5076 293.027 35.5087 294.025 35.3422 294.025C34.6763 293.692 33.8439 293.193 33.6774 292.528C33.3444 292.029 34.1768 291.364 34.8428 290.366Z" fill="#201B20"/>
<path d="M30.8475 288.204C31.68 289.368 32.1795 290.033 32.346 290.699C32.346 291.031 31.68 291.696 31.347 292.029C30.681 291.53 29.8486 291.198 29.6821 290.532C29.5156 290.2 30.1816 289.368 30.8475 288.204Z" fill="#201B20"/>
<path d="M86.1215 352.073C85.4555 351.075 84.623 350.41 84.623 349.911C84.623 349.412 85.622 348.913 86.1215 348.414C86.6209 349.079 87.4533 349.578 87.4533 350.244C87.6198 350.576 86.7874 351.242 86.1215 352.073Z" fill="#201B20"/>
<path d="M87.2865 356.232C86.9535 356.398 86.454 356.897 86.121 356.897C85.4551 356.731 84.7892 356.232 84.4562 355.733C84.2897 355.4 84.9557 354.236 85.1222 354.236C85.7881 354.236 86.454 354.569 86.9535 354.901C87.2864 355.234 87.12 355.899 87.2865 356.232C87.2865 356.232 87.2865 356.398 87.2865 356.232Z" fill="#201B20"/>
<path d="M33.0118 212.026C31.6799 212.358 30.3481 212.691 30.1816 210.861C30.1816 210.362 31.1805 209.198 31.6799 209.364C33.3448 209.531 33.1783 210.861 33.0118 212.026C33.0118 212.026 33.0118 212.192 33.0118 212.026Z" fill="#201B20"/>
</svg>
